<?xml version="1.0" standalone="no"?>
<!DOCTYPE svg PUBLIC "-//W3C//DTD SVG 1.1//EN" "http://www.w3.org/Graphics/SVG/1.1/DTD/svg11.dtd" >
<svg xmlns="http://www.w3.org/2000/svg" xmlns:xlink="http://www.w3.org/1999/xlink" version="1.1">
<metadata>
Created by FontForge 20161003 at Mon Feb 12 11:50:51 2018
 By www-data
Copyright (c) 2003 by Bitstream, Inc. All Rights Reserved.
DejaVu changes are in public domain
Copyright (c) 2015 by Saber Rastikerdar. All Rights Reserved.
Non-Arabic(Latin) glyphs and data are imported from Open Sans font under the Apache License, Version 2.0.
</metadata>
<defs>
<font id="Samim-FD" horiz-adv-x="1171" >
  <font-face 
    font-family="Samim FD"
    font-weight="400"
    font-stretch="normal"
    units-per-em="2048"
    panose-1="2 11 6 3 3 8 4 2 2 4"
    ascent="1638"
    descent="-410"
    x-height="1096"
    cap-height="1462"
    bbox="-1051 -995.518 2829 2240"
    underline-thickness="100"
    underline-position="-300"
    unicode-range="U+000D-FFFD"
  />
<missing-glyph horiz-adv-x="1229" 
d="M193 1462h841v-1462h-841v1462zM297 104h633v1254h-633v-1254z" />
    <glyph glyph-name="uni0622" unicode="&#x627;&#x653;" horiz-adv-x="560" 
d="M215 1273.75l173 67.4971v-1336.45h-130zM61 1405l-92 91q108 179 254 152l134 -26q77 -14 195 57l65 -104q-100 -113 -269 -85l-126 22q-102 17 -161 -107z" />
    <glyph glyph-name="uni0623" unicode="&#x627;&#x654;" horiz-adv-x="448" 
d="M151 1273.75l173 67.4971v-1336.45h-130zM192.489 1850.83q100.796 19.7998 186.292 -30.5986l4.5 -2.7002v-4.49902v-100.796v-14.3994l-13.5 6.2998l-17.999 8.99902q-55.7979 27.8994 -111.596 21.5996q-17.0986 -1.7998 -31.0488 -5.85059
q-13.9492 -4.0498 -23.8486 -9.89941t-17.0996 -13.9492q-7.19922 -8.09961 -10.7988 -17.999q-3.60059 -9.89941 -5.40039 -22.499q-5.39941 -66.5977 89.9961 -95.3965q28.7988 -8.99902 151.194 19.7998l11.6992 1.7998v-10.7998v-104.396v-7.2002l-7.19922 -1.7998
l-350.086 -78.2969l-10.7998 -2.7002v11.7002v101.695v7.2002l6.2998 1.7998l62.998 14.3994q-67.498 52.1973 -67.498 134.994q0 92.6963 64.7979 150.294q12.5996 10.7998 26.5488 18.8994t29.6992 14.3994q15.749 6.2998 32.8486 9.89941z" />
    <glyph glyph-name="afii57412" unicode="&#x648;&#x654;" horiz-adv-x="891" 
d="M409.489 1329.83q100.796 19.7998 186.292 -30.5986l4.5 -2.7002v-4.49902v-100.796v-14.3994l-13.5 6.2998l-17.999 8.99902q-55.7979 27.8994 -111.596 21.5996q-17.0986 -1.7998 -31.0488 -5.85059q-13.9492 -4.0498 -23.8486 -9.89941t-17.0996 -13.9492
q-7.19922 -8.09961 -10.7988 -17.999q-3.60059 -9.89941 -5.40039 -22.499q-5.39941 -66.5977 89.9961 -95.3965q28.7988 -8.99902 151.194 19.7998l11.6992 1.7998v-10.7998v-104.396v-7.2002l-7.19922 -1.7998l-350.086 -78.2969l-10.7998 -2.7002v11.7002v101.695v7.2002
l6.2998 1.7998l62.998 14.3994q-67.498 52.1973 -67.498 134.994q0 92.6963 64.7979 150.294q12.5996 10.7998 26.5488 18.8994t29.6992 14.3994q15.749 6.2998 32.8486 9.89941zM441 548q-135 -4 -180 -183q-53 -205 178 -204q121 0 191 54q0 57 -4 94q-28 244 -185 239z
M727 534q64 -132 63 -352q-1 -314 -127 -477q-185 -239 -560 -242h-2l-55 139q523 31 576 438q-90 -49 -208 -49q-95 1 -160 31q-157 72 -155 254q1 116 51 226q97 217 293 218q194 1 284 -186z" />
    <glyph glyph-name="uni0625" unicode="&#x627;&#x655;" horiz-adv-x="448" 
d="M205.489 -95.1738q100.796 19.7998 186.292 -30.5986l4.5 -2.7002v-4.49902v-100.796v-14.3994l-13.5 6.2998l-17.999 8.99902q-55.7979 27.8994 -111.596 21.5996q-17.0986 -1.7998 -31.0488 -5.85059q-13.9492 -4.0498 -23.8486 -9.89941t-17.0996 -13.9492
q-7.19922 -8.09961 -10.7988 -17.999q-3.60059 -9.89941 -5.40039 -22.499q-5.39941 -66.5977 89.9961 -95.3965q28.7988 -8.99902 151.194 19.7998l11.6992 1.7998v-10.7998v-104.396v-7.2002l-7.19922 -1.7998l-350.086 -78.2969l-10.7998 -2.7002v11.7002v101.695v7.2002
l6.2998 1.7998l62.998 14.3994q-67.498 52.1973 -67.498 134.994q0 92.6963 64.7979 150.294q12.5996 10.7998 26.5488 18.8994t29.6992 14.3994q15.749 6.2998 32.8486 9.89941zM138 1412l173 75v-1485h-130z" />
    <glyph glyph-name="afii57414" unicode="&#x64a;&#x654;" horiz-adv-x="1470" 
d="M542.489 1170.83q100.796 19.7998 186.292 -30.5986l4.5 -2.7002v-4.49902v-100.796v-14.3994l-13.5 6.2998l-17.999 8.99902q-55.7979 27.8994 -111.596 21.5996q-17.0986 -1.7998 -31.0488 -5.85059q-13.9492 -4.0498 -23.8486 -9.89941t-17.0996 -13.9492
q-7.19922 -8.09961 -10.7988 -17.999q-3.60059 -9.89941 -5.40039 -22.499q-5.39941 -66.5977 89.9961 -95.3965q28.7988 -8.99902 151.194 19.7998l11.6992 1.7998v-10.7998v-104.396v-7.2002l-7.19922 -1.7998l-350.086 -78.2969l-10.7998 -2.7002v11.7002v101.695v7.2002
l6.2998 1.7998l62.998 14.3994q-67.498 52.1973 -67.498 134.994q0 92.6963 64.7979 150.294q12.5996 10.7998 26.5488 18.8994t29.6992 14.3994q15.749 6.2998 32.8486 9.89941zM1045 150l55 1q107 0 168 -25q105 -43 105 -179q1 -130 -79 -230q-176 -221 -586 -222
q-195 0 -324 56q-285 125 -287 480q-1 200 126 470l137 -60q-93 -211 -97 -388q-9 -385 453 -382q304 2 448 141q55 52 57 95q3 69 -82 69l-111 1q-255 1 -256 202q-1 134 102 282q50 71 114 122q144 116 323 120l58 1l-60 -192h-14q-92 0 -184 -61q-104 -71 -152 -168
q-18 -36 -23 -73q-10 -63 109 -60z" />
    <glyph glyph-name="ff" unicode="ff" horiz-adv-x="1389" 
d="M1364 967h-279v-967h-166v967h-196v75l196 60v61q0 404 353 404q87 0 204 -35l-43 -133q-96 31 -164 31q-94 0 -139 -62.5t-45 -200.5v-71h279v-129zM670 967h-279v-967h-166v967h-196v75l196 60v61q0 404 353 404q87 0 204 -35l-43 -133q-96 31 -164 31
q-94 0 -139 -62.5t-45 -200.5v-71h279v-129z" />
    <glyph glyph-name="uniFB01" unicode="fi" horiz-adv-x="1212" 
d="M670 967h-279v-967h-166v967h-196v75l196 60v61q0 404 353 404q87 0 204 -35l-43 -133q-96 31 -164 31q-94 0 -139 -62.5t-45 -200.5v-71h279v-129zM1036 0h-166v1096h166v-1096zM856 1393q0 57 28 83.5t70 26.5q40 0 69 -27t29 -83t-29 -83.5t-69 -27.5q-42 0 -70 27.5
t-28 83.5z" />
    <glyph glyph-name="uniFB02" unicode="fl" horiz-adv-x="1212" 
d="M670 967h-279v-967h-166v967h-196v75l196 60v61q0 404 353 404q87 0 204 -35l-43 -133q-96 31 -164 31q-94 0 -139 -62.5t-45 -200.5v-71h279v-129zM1036 0h-166v1556h166v-1556z" />
    <glyph glyph-name="uniFB03" unicode="ffi" horiz-adv-x="1909" 
d="M1358 967h-279v-967h-166v967h-196v75l196 60v61q0 404 353 404q87 0 204 -35l-43 -133q-96 31 -164 31q-94 0 -139 -62.5t-45 -200.5v-71h279v-129zM670 967h-279v-967h-166v967h-196v75l196 60v61q0 404 353 404q87 0 204 -35l-43 -133q-96 31 -164 31
q-94 0 -139 -62.5t-45 -200.5v-71h279v-129zM1731 0h-166v1096h166v-1096zM1551 1393q0 57 28 83.5t70 26.5q40 0 69 -27t29 -83t-29 -83.5t-69 -27.5q-42 0 -70 27.5t-28 83.5z" />
    <glyph glyph-name="uniFB04" unicode="ffl" horiz-adv-x="1909" 
d="M1358 967h-279v-967h-166v967h-196v75l196 60v61q0 404 353 404q87 0 204 -35l-43 -133q-96 31 -164 31q-94 0 -139 -62.5t-45 -200.5v-71h279v-129zM670 967h-279v-967h-166v967h-196v75l196 60v61q0 404 353 404q87 0 204 -35l-43 -133q-96 31 -164 31
q-94 0 -139 -62.5t-45 -200.5v-71h279v-129zM1731 0h-166v1556h166v-1556z" />
    <glyph glyph-name="uniFDF2" unicode="&#x627;&#xfedf;&#xfee0;&#xfeea;" horiz-adv-x="2782" arabic-form="isolated" 
d="M1376 1756l-26 423l104 61v-484h-78zM1426 1424q-25 -135 -157 -135q-150 1 -149 178q0 35 15 134h71q-12 -85 -12 -112q0 -88 76 -88q106 0 111 118q1 38 1 83v53h71q2 -34 2 -80q0 -114 106 -114q81 0 82 110q0 84 -11 143h76q14 -76 14 -135q0 -225 -159 -225
q-104 0 -137 70zM1152 185q48 0 48 -77v-34q0 -74 -48 -74h-48q-296 0 -346 237q-522 -82 -638 139q-20 38 -22 89q-10 279 586 394q0 13 -14 118l157 38l68 -597q26 -232 210 -232zM740 412q-16 166 -35 285q-426 -79 -441 -197q-11 -84 80 -102q132 -27 396 14zM1132 185
h73q193 0 183 242l-31 727l172 74v-800q0 -243 201 -243h71q48 0 48 -77v-34q0 -74 -48 -74h-80q-149 0 -257 114q-103 -114 -260 -114h-72q-48 0 -48 74v34q0 77 48 77zM1780 185h63q231 0 220 295l-30 818l174 76v-908q0 -246 -99 -356q-100 -110 -255 -110h-73
q-48 0 -48 74v34q0 77 48 77zM2472 1412l173 75v-1485h-130z" />
    <glyph glyph-name="uniFE70" unicode="&#x20;&#x64b;" horiz-adv-x="680" arabic-form="isolated" 
d="M107 1153v109l480 197v-110zM107 1414v109l480 197v-110z" />
    <glyph glyph-name="uniFE72" unicode="&#x20;&#x64c;" horiz-adv-x="680" arabic-form="isolated" 
d="M443 1813q-79 1 -80 -70q0 -48 60 -75q22 -11 65 -23l5 11q18 41 19 81q-2 77 -69 76zM128 1606q1 -213 121 -213q65 0 137 69q41 40 66 89l9 19q-46 10 -83 28q-99 51 -99 152q0 55 27 90q43 59 120.5 59t123.5 -45t46 -124q1 -38 -12 -78l-6 -21l21 -1q26 -1 61 -2v-85
q-40 1 -54 2l-65 7q-70 -161 -202 -225q-40 -19 -92 -19q-115 0 -163 127q-19 50 -20 171h64zM635 1629v0v0z" />
    <glyph glyph-name="uniFE74" unicode="&#x20;&#x64d;" horiz-adv-x="680" arabic-form="isolated" 
d="M112 -515v110l481 196v-109zM112 -254v110l481 196v-109z" />
    <glyph glyph-name="uniFE76" unicode="&#x20;&#x64e;" horiz-adv-x="680" arabic-form="isolated" 
d="M74 1427v110l481 196v-109z" />
    <glyph glyph-name="uniFE78" unicode="&#x20;&#x64f;" horiz-adv-x="680" arabic-form="isolated" 
d="M605 1562q-77 0 -126 8q-50 -70 -121 -114q-113 -71 -241 -76v85q189 29 267 131q-95 21 -136 80q-26 36 -26 84q0 77 64 125q44 32 96 32q67 0 113 -45t46 -124q0 -32 -14 -78l-6 -20l21 -1q37 -3 63 -3v-84zM433 1664l3 7q21 45 22 83q-1 38 -25 59q-24 19 -52 19
q-29 0 -50 -16q-23 -20 -24 -51q-1 -50 61 -79q30 -14 65 -22z" />
    <glyph glyph-name="uniFE7A" unicode="&#x20;&#x650;" horiz-adv-x="680" arabic-form="isolated" 
d="M124 -357v109l480 197v-109z" />
    <glyph glyph-name="uniFE7C" unicode="&#x20;&#x651;" horiz-adv-x="680" arabic-form="isolated" 
d="M372 1607q-25 -135 -157 -135q-150 1 -149 178q0 35 15 134h71q-12 -85 -12 -112q0 -88 76 -88q106 0 111 118q1 38 1 83v53h71q2 -34 2 -80q0 -114 106 -114q81 0 82 110q0 84 -11 143h76q14 -76 14 -135q0 -225 -159 -225q-104 0 -137 70z" />
    <glyph glyph-name="uniFE7E" unicode="&#x20;&#x652;" horiz-adv-x="680" arabic-form="isolated" 
d="M497 1545q0 46 -32.5 78.5t-79.5 32.5t-79.5 -32t-32.5 -79q0 -48 32.5 -80.5t79.5 -32.5t79.5 32.5t32.5 80.5zM566 1544.5q0 -75.5 -52.5 -128.5t-127.5 -53q-26 0 -48.5 6t-42.5 17.5t-38 29.5q-26 26 -39 58.5t-13 70.5q0 75 52.5 127.5t128 52.5t128 -52.5
t52.5 -128z" />
    <glyph glyph-name="uniFEF5" unicode="&#xfedf;&#xfe82;" horiz-adv-x="1153" arabic-form="isolated" 
d="M227 1368l393 -1171q254 28 243 419l-22 795l174 76v-938q0 -291 -156 -425q-150 -128 -399 -127q-186 1 -304 37v165q205 -41 323 -33l-392 1088zM-9 1417l-92 91q108 179 254 152l134 -26q77 -14 195 57l65 -104q-100 -113 -269 -85l-126 22q-102 17 -161 -107z" />
    <glyph glyph-name="uniFEF6" unicode="&#xfee0;&#xfe82;" horiz-adv-x="1268" arabic-form="final" 
d="M1015 549q0 -174 50 -263q54 -99 168 -100l42 -1q48 0 48 -77v-34q0 -75 -48 -74l-43 1q-256 3 -295 215q-33 -52 -78 -92q-146 -128 -399 -127q-186 1 -304 37v165q205 -41 323 -33l-392 1088l140 114l393 -1171q257 27 245 419l-24 795l174 76v-938zM-9 1418l-92 91
q108 179 254 152l134 -26q77 -14 195 57l65 -104q-100 -113 -269 -85l-126 22q-102 17 -161 -107z" />
    <glyph glyph-name="uniFEF7" unicode="&#xfedf;&#xfe84;" horiz-adv-x="1153" arabic-form="isolated" 
d="M227 1368l393 -1171q254 28 243 419l-22 795l174 76v-938q0 -291 -156 -425q-150 -128 -399 -127q-186 1 -304 37v165q205 -41 323 -33l-392 1088zM160.489 1864.83q100.796 19.7998 186.292 -30.5986l4.5 -2.7002v-4.49902v-100.796v-14.3994l-13.5 6.2998
l-17.999 8.99902q-55.7979 27.8994 -111.596 21.5996q-17.0986 -1.7998 -31.0488 -5.85059q-13.9492 -4.0498 -23.8486 -9.89941t-17.0996 -13.9492q-7.19922 -8.09961 -10.7988 -17.999q-3.60059 -9.89941 -5.40039 -22.499q-5.39941 -66.5977 89.9961 -95.3965
q28.7988 -8.99902 151.194 19.7998l11.6992 1.7998v-10.7998v-104.396v-7.2002l-7.19922 -1.7998l-350.086 -78.2969l-10.7998 -2.7002v11.7002v101.695v7.2002l6.2998 1.7998l62.998 14.3994q-67.498 52.1973 -67.498 134.994q0 92.6963 64.7979 150.294
q12.5996 10.7998 26.5488 18.8994t29.6992 14.3994q15.749 6.2998 32.8486 9.89941z" />
    <glyph glyph-name="uniFEF8" unicode="&#xfee0;&#xfe84;" horiz-adv-x="1268" arabic-form="final" 
d="M1015 549q0 -174 50 -263q54 -99 168 -100l42 -1q48 0 48 -77v-34q0 -75 -48 -74l-43 1q-256 3 -295 215q-33 -52 -78 -92q-146 -128 -399 -127q-186 1 -304 37v165q205 -41 323 -33l-392 1088l140 114l393 -1171q257 27 245 419l-24 795l174 76v-938zM160.489 1866.83
q100.796 19.7998 186.292 -30.5986l4.5 -2.7002v-4.49902v-100.796v-14.3994l-13.5 6.2998l-17.999 8.99902q-55.7979 27.8994 -111.596 21.5996q-17.0986 -1.7998 -31.0488 -5.85059q-13.9492 -4.0498 -23.8486 -9.89941t-17.0996 -13.9492
q-7.19922 -8.09961 -10.7988 -17.999q-3.60059 -9.89941 -5.40039 -22.499q-5.39941 -66.5977 89.9961 -95.3965q28.7988 -8.99902 151.194 19.7998l11.6992 1.7998v-10.7998v-104.396v-7.2002l-7.19922 -1.7998l-350.086 -78.2969l-10.7998 -2.7002v11.7002v101.695v7.2002
l6.2998 1.7998l62.998 14.3994q-67.498 52.1973 -67.498 134.994q0 92.6963 64.7979 150.294q12.5996 10.7998 26.5488 18.8994t29.6992 14.3994q15.749 6.2998 32.8486 9.89941z" />
    <glyph glyph-name="uniFEF9" unicode="&#xfedf;&#xfe88;" horiz-adv-x="1153" arabic-form="isolated" 
d="M227 1368l393 -1171q254 28 243 419l-22 795l174 76v-938q0 -291 -156 -425q-150 -128 -399 -127q-186 1 -304 37v165q205 -41 323 -33l-392 1088zM216.489 -95.1738q100.796 19.7998 186.292 -30.5986l4.5 -2.7002v-4.49902v-100.796v-14.3994l-13.5 6.2998
l-17.999 8.99902q-55.7979 27.8994 -111.596 21.5996q-17.0986 -1.7998 -31.0488 -5.85059q-13.9492 -4.0498 -23.8486 -9.89941t-17.0996 -13.9492q-7.19922 -8.09961 -10.7988 -17.999q-3.60059 -9.89941 -5.40039 -22.499q-5.39941 -66.5977 89.9961 -95.3965
q28.7988 -8.99902 151.194 19.7998l11.6992 1.7998v-10.7998v-104.396v-7.2002l-7.19922 -1.7998l-350.086 -78.2969l-10.7998 -2.7002v11.7002v101.695v7.2002l6.2998 1.7998l62.998 14.3994q-67.498 52.1973 -67.498 134.994q0 92.6963 64.7979 150.294
q12.5996 10.7998 26.5488 18.8994t29.6992 14.3994q15.749 6.2998 32.8486 9.89941z" />
    <glyph glyph-name="uniFEFA" unicode="&#xfee0;&#xfe88;" horiz-adv-x="1268" arabic-form="final" 
d="M1015 549q0 -174 50 -263q54 -99 168 -100l42 -1q48 0 48 -77v-34q0 -75 -48 -74l-43 1q-256 3 -295 215q-33 -52 -78 -92q-146 -128 -399 -127q-186 1 -304 37v165q205 -41 323 -33l-392 1088l140 114l393 -1171q257 27 245 419l-24 795l174 76v-938zM198.489 -95.1738
q100.796 19.7998 186.292 -30.5986l4.5 -2.7002v-4.49902v-100.796v-14.3994l-13.5 6.2998l-17.999 8.99902q-55.7979 27.8994 -111.596 21.5996q-17.0986 -1.7998 -31.0488 -5.85059q-13.9492 -4.0498 -23.8486 -9.89941t-17.0996 -13.9492
q-7.19922 -8.09961 -10.7988 -17.999q-3.60059 -9.89941 -5.40039 -22.499q-5.39941 -66.5977 89.9961 -95.3965q28.7988 -8.99902 151.194 19.7998l11.6992 1.7998v-10.7998v-104.396v-7.2002l-7.19922 -1.7998l-350.086 -78.2969l-10.7998 -2.7002v11.7002v101.695v7.2002
l6.2998 1.7998l62.998 14.3994q-67.498 52.1973 -67.498 134.994q0 92.6963 64.7979 150.294q12.5996 10.7998 26.5488 18.8994t29.6992 14.3994q15.749 6.2998 32.8486 9.89941z" />
    <glyph glyph-name="uniFEFB" unicode="&#xfedf;&#xfe8e;" horiz-adv-x="1153" arabic-form="isolated" 
d="M227 1368l393 -1171q254 28 243 419l-22 795l174 76v-938q0 -291 -156 -425q-150 -128 -399 -127q-186 1 -304 37v165q205 -41 323 -33l-392 1088z" />
    <glyph glyph-name="uniFEFC" unicode="&#xfee0;&#xfe8e;" horiz-adv-x="1268" arabic-form="final" 
d="M1015 549q0 -174 50 -263q54 -99 168 -100l42 -1q48 0 48 -77v-34q0 -75 -48 -74l-43 1q-256 3 -295 215q-33 -52 -78 -92q-146 -128 -399 -127q-186 1 -304 37v165q205 -41 323 -33l-392 1088l140 114l393 -1171q257 27 245 419l-24 795l174 76v-938z" />
    <glyph glyph-name="uni0651064B" unicode="&#x64b;&#x651;" horiz-adv-x="33" 
d="M373 1307v109l480 197v-110zM373 1568v109l480 197v-110zM638 1042q-25 -135 -157 -135q-150 1 -149 178q0 35 15 134h71q-12 -85 -12 -112q0 -88 76 -88q106 0 111 118q1 38 1 83v53h71q2 -34 2 -80q0 -114 106 -114q81 0 82 110q0 84 -11 143h76q14 -76 14 -135
q0 -225 -159 -225q-104 0 -137 70z" />
    <glyph glyph-name="uni0651064C" unicode="&#x64c;&#x651;" horiz-adv-x="35" 
d="M698 1825q-79 1 -80 -70q0 -48 60 -75q22 -11 65 -23l5 11q18 41 19 81q-2 77 -69 76zM383 1618q1 -213 121 -213q65 0 137 69q41 40 66 89l9 19q-46 10 -83 28q-99 51 -99 152q0 55 27 90q43 59 120.5 59t123.5 -45t46 -124q1 -38 -12 -78l-6 -21l21 -1q26 -1 61 -2v-85
q-40 1 -54 2l-65 7q-70 -161 -202 -225q-40 -19 -92 -19q-115 0 -163 127q-19 50 -20 171h64zM890 1641v0v0zM627 997q-25 -135 -157 -135q-150 1 -149 178q0 35 15 134h71q-12 -85 -12 -112q0 -88 76 -88q106 0 111 118q1 38 1 83v53h71q2 -34 2 -80q0 -114 106 -114
q81 0 82 110q0 84 -11 143h76q14 -76 14 -135q0 -225 -159 -225q-104 0 -137 70z" />
    <glyph glyph-name="uni064B0651" unicode="&#x64d;&#x651;" horiz-adv-x="33" 
d="M591 1606q-25 -135 -157 -135q-150 1 -149 178q0 35 15 134h71q-12 -85 -12 -112q0 -88 76 -88q106 0 111 118q1 38 1 83v53h71q2 -34 2 -80q0 -114 106 -114q81 0 82 110q0 84 -11 143h76q14 -76 14 -135q0 -225 -159 -225q-104 0 -137 70zM326 905v109l480 197v-110z
M326 1166v109l480 197v-110z" />
    <glyph glyph-name="uni0651064E" unicode="&#x64e;&#x651;" horiz-adv-x="30" 
d="M346 1492v110l481 196v-109zM644 1220q-25 -135 -157 -135q-150 1 -149 178q0 35 15 134h71q-12 -85 -12 -112q0 -88 76 -88q106 0 111 118q1 38 1 83v53h71q2 -34 2 -80q0 -114 106 -114q81 0 82 110q0 84 -11 143h76q14 -76 14 -135q0 -225 -159 -225q-104 0 -137 70z
" />
    <glyph glyph-name="uni0651064F" unicode="&#x64f;&#x651;" horiz-adv-x="34" 
d="M861 1549q-77 0 -126 8q-50 -70 -121 -114q-113 -71 -241 -76v85q189 29 267 131q-95 21 -136 80q-26 36 -26 84q0 77 64 125q44 32 96 32q67 0 113 -45t46 -124q0 -32 -14 -78l-6 -20l21 -1q37 -3 63 -3v-84zM689 1651l3 7q21 45 22 83q-1 38 -25 59q-24 19 -52 19
q-29 0 -50 -16q-23 -20 -24 -51q-1 -50 61 -79q30 -14 65 -22zM628 1098q-25 -135 -157 -135q-150 1 -149 178q0 35 15 134h71q-12 -85 -12 -112q0 -88 76 -88q106 0 111 118q1 38 1 83v53h71q2 -34 2 -80q0 -114 106 -114q81 0 82 110q0 84 -11 143h76q14 -76 14 -135
q0 -225 -159 -225q-104 0 -137 70z" />
    <glyph glyph-name="uni064E0651" unicode="&#x650;&#x651;" horiz-adv-x="30" 
d="M629 1552q-25 -135 -157 -135q-150 1 -149 178q0 35 15 134h71q-12 -85 -12 -112q0 -88 76 -88q106 0 111 118q1 38 1 83v53h71q2 -34 2 -80q0 -114 106 -114q81 0 82 110q0 84 -11 143h76q14 -76 14 -135q0 -225 -159 -225q-104 0 -137 70zM399 1147v110l481 196v-109z
" />
    <glyph glyph-name="uni0654064E" unicode="&#x64e;&#x654;" horiz-adv-x="30" 
d="M292 1491v110l481 196v-109zM545.489 1472.83q100.796 19.7998 186.292 -30.5986l4.5 -2.7002v-4.49902v-100.796v-14.3994l-13.5 6.2998l-17.999 8.99902q-55.7979 27.8994 -111.596 21.5996q-17.0986 -1.7998 -31.0488 -5.85059q-13.9492 -4.0498 -23.8486 -9.89941
t-17.0996 -13.9492q-7.19922 -8.09961 -10.7988 -17.999q-3.60059 -9.89941 -5.40039 -22.499q-5.39941 -66.5977 89.9961 -95.3965q28.7988 -8.99902 151.194 19.7998l11.6992 1.7998v-10.7998v-104.396v-7.2002l-7.19922 -1.7998l-350.086 -78.2969l-10.7998 -2.7002
v11.7002v101.695v7.2002l6.2998 1.7998l62.998 14.3994q-67.498 52.1973 -67.498 134.994q0 92.6963 64.7979 150.294q12.5996 10.7998 26.5488 18.8994t29.6992 14.3994q15.749 6.2998 32.8486 9.89941z" />
    <glyph glyph-name="uni0654064F" unicode="&#x64f;&#x654;" horiz-adv-x="34" 
d="M850 1544q-77 0 -126 8q-50 -70 -121 -114q-113 -71 -241 -76v85q189 29 267 131q-95 21 -136 80q-26 36 -26 84q0 77 64 125q44 32 96 32q67 0 113 -45t46 -124q0 -32 -14 -78l-6 -20l21 -1q37 -3 63 -3v-84zM678 1646l3 7q21 45 22 83q-1 38 -25 59q-24 19 -52 19
q-29 0 -50 -16q-23 -20 -24 -51q-1 -50 61 -79q30 -14 65 -22zM554.489 1317.83q100.796 19.7998 186.292 -30.5986l4.5 -2.7002v-4.49902v-100.796v-14.3994l-13.5 6.2998l-17.999 8.99902q-55.7979 27.8994 -111.596 21.5996q-17.0986 -1.7998 -31.0488 -5.85059
q-13.9492 -4.0498 -23.8486 -9.89941t-17.0996 -13.9492q-7.19922 -8.09961 -10.7988 -17.999q-3.60059 -9.89941 -5.40039 -22.499q-5.39941 -66.5977 89.9961 -95.3965q28.7988 -8.99902 151.194 19.7998l11.6992 1.7998v-10.7998v-104.396v-7.2002l-7.19922 -1.7998
l-350.086 -78.2969l-10.7998 -2.7002v11.7002v101.695v7.2002l6.2998 1.7998l62.998 14.3994q-67.498 52.1973 -67.498 134.994q0 92.6963 64.7979 150.294q12.5996 10.7998 26.5488 18.8994t29.6992 14.3994q15.749 6.2998 32.8486 9.89941z" />
    <glyph glyph-name="uni066E.init" unicode="&#x66e;" horiz-adv-x="640" 
d="M441 80q-94 -80 -356 -80h-87q-50 0 -50 74v34q0 77 48 77h93q93 0 120 4q116 16 146 88q21 50 21 137q0 154 -39 314l151 34q53 -154 53 -336q0 -258 -100 -346z" />
    <glyph glyph-name="uni066E.medi" unicode="&#x66e;" horiz-adv-x="744" 
d="M750 0h-43q-156 0 -276 130q-117 -130 -302 -130h-135q-46 0 -46 74v34q0 77 46 77h139q213 0 217 182l5 225l154 26l9 -251q6 -182 192 -182h40q48 0 48 -77v-34q0 -74 -48 -74z" />
    <glyph glyph-name="uni066E.fina" unicode="&#x66e;" horiz-adv-x="2132" 
d="M2139 185q48 0 48 -77v-34q0 -74 -48 -74l-63 1q-235 2 -338 219q-52 -61 -190 -125q-200 -95 -641 -95q-340 0 -509 71q-273 113 -298 396q-12 133 31 285l142 -38q-21 -141 -18 -207q12 -259 339 -306q103 -15 327 -15q412 0 582 80q198 94 226 310h121
q14 -179 41 -253q49 -135 208 -137z" />
    <glyph glyph-name="uni066F.fina" unicode="&#x66f;" horiz-adv-x="1456" 
d="M693 -345q441 -1 482 348q-33 -1 -184 -1q-200 0 -281 104q-64 83 -51 218q20 194 146 318q80 78 186 77q189 -2 279 -190q54 -111 61 -343l132 -1q48 0 48 -77v-34q0 -75 -48 -74l-140 2q-32 -515 -633 -520q-258 0 -413 117q-178 137 -177 419q0 207 92 416l149 -55
q-80 -195 -80 -344q0 -378 432 -380zM981 547q-81 -1 -134 -101q-28 -52 -34 -114q-7 -76 33 -113q38 -33 114 -39q72 -6 216 1q0 367 -195 366z" />
    <glyph glyph-name="uni06A1.init" unicode="&#x6a1;" horiz-adv-x="870" 
d="M433 1071q169 0 254 -144q89 -151 90 -390q1 -359 -179 -473q-101 -64 -344 -64h-258q-48 0 -48 74v34q0 77 48 77h264q212 0 267 45q83 64 87 178q-73 -52 -218 -51q-157 0 -239 112q-53 72 -52 179q2 133 55 238q93 186 273 185zM415 529q123 -1 202 57q6 26 -12 123
q-35 190 -163 190q-136 1 -178 -172q-9 -39 -10 -71q1 -126 161 -127z" />
    <glyph glyph-name="uni06A1.medi" unicode="&#x6a1;" horiz-adv-x="1070" 
d="M-4 185h124q197 0 244 29q-99 65 -141 163q-27 62 -27 129q0 48 14 99q21 81 86 150q106 113 252 113q156 0 259 -115q57 -62 77 -149q10 -46 10 -89q0 -64 -23 -121q-43 -108 -158 -182q56 -27 223 -27h141q48 0 48 -77v-34q0 -74 -48 -74h-137q-246 0 -396 113
q-132 -113 -405 -113h-143q-48 0 -48 74v34q0 77 48 77zM359 504q0 -77 54 -131q86 -88 131.5 -88t132.5 88q54 55 54 134q0 78 -55 133q-65 65 -131 65q-67 0 -132 -65q-54 -54 -54 -136z" />
    <glyph glyph-name="uni06A1.fina" unicode="&#x6a1;" horiz-adv-x="2042" 
d="M921 186q107 -1 201 5q55 3 214 23q-99 65 -141 163q-27 62 -27 129q0 48 14 99q21 81 86 150q106 113 252 113q156 0 259 -115q57 -62 77 -149q10 -46 10 -89q0 -64 -23 -121q-43 -108 -158 -182q39 -27 223 -27h141q48 0 48 -77v-34q0 -74 -48 -74h-137
q-246 0 -396 113q-217 -113 -609 -113q-340 0 -509 71q-273 113 -298 396q-12 133 31 285l142 -38q-21 -141 -18 -207q12 -259 339 -306q103 -15 327 -15zM1331 504q0 -77 54 -131q86 -88 131 -88q46 0 133 88q54 55 54 134q0 78 -55 133q-65 65 -131 65q-67 0 -132 -65
q-54 -54 -54 -136z" />
    <glyph glyph-name="uni06CA.fina" unicode="&#x6ca;" horiz-adv-x="905" 
d="M615 1157l83 -83q26 -26 1 -52l-87 -87q-28 -28 -56 0l-87 86q-26 27 4 56l81 81q30 30 61 -1zM315 1157l83 -83q26 -26 1 -52l-87 -87q-28 -28 -56 0l-87 86q-26 27 4 56l81 81q30 30 61 -1zM912 185q48 0 48 -77v-34q0 -74 -48 -74h-136q-29 -192 -157 -340
q-168 -196 -519 -197h-2l-52 140q494 30 576 398h-176q-202 0 -281 104q-54 70 -53 174q1 157 75 280q94 158 258 159q188 0 280 -190q54 -111 61 -342zM436 546q-78 -1 -127 -92q-42 -80 -42 -145q0 -60 34 -91q37 -34 113 -39q73 -6 217 1q0 365 -195 366z" />
    <glyph glyph-name="uniFB56" unicode="&#x67e;" horiz-adv-x="1832" arabic-form="isolated" 
d="M922 186q137 0 207 6q429 40 444 144q9 69 -5 202q-13 132 -39 214l157 39q50 -203 50 -349q-1 -144 -36 -220q-103 -222 -792 -222q-340 0 -509 71q-273 113 -298 396q-12 133 31 285l142 -38q-21 -141 -18 -207q12 -259 339 -306q110 -16 327 -15zM1158.66 -167.381
l88.8057 -89.876q28.8887 -27.8184 1.07031 -55.6367l-93.0859 -92.0156q-29.958 -29.959 -58.8467 -1.07031l-93.0859 93.0859q-27.8184 27.8184 3.20996 58.8467l86.666 87.7354q32.0986 32.0986 65.2666 -1.06934zM837.674 -167.381l88.8047 -89.876
q28.8887 -27.8184 1.07031 -55.6367l-93.085 -92.0156q-29.959 -29.959 -58.8477 -1.07031l-93.085 93.0859q-27.8184 27.8184 3.20996 58.8467l86.665 87.7354q32.0986 32.0986 65.2676 -1.06934zM998.165 -403.84l88.8057 -88.8047q28.8887 -28.8887 1.07031 -55.6377
l-93.0859 -93.085q-29.958 -29.959 -58.8467 -1.07031l-93.085 93.0859q-27.8193 27.8184 3.20898 59.916l86.666 86.666q32.0986 32.0986 65.2666 -1.07031z" />
    <glyph glyph-name="uniFB57" unicode="&#x67e;" horiz-adv-x="2132" arabic-form="final" 
d="M1113.66 -167.381l88.8057 -89.876q28.8887 -27.8184 1.07031 -55.6367l-93.0859 -92.0156q-29.958 -29.959 -58.8467 -1.07031l-93.0859 93.0859q-27.8184 27.8184 3.20996 58.8467l86.666 87.7354q32.0986 32.0986 65.2666 -1.06934zM792.674 -167.381l88.8047 -89.876
q28.8887 -27.8184 1.07031 -55.6367l-93.085 -92.0156q-29.959 -29.959 -58.8477 -1.07031l-93.085 93.0859q-27.8184 27.8184 3.20996 58.8467l86.665 87.7354q32.0986 32.0986 65.2676 -1.06934zM953.165 -403.84l88.8057 -88.8047q28.8887 -28.8887 1.07031 -55.6377
l-93.0859 -93.085q-29.958 -29.959 -58.8467 -1.07031l-93.085 93.0859q-27.8193 27.8184 3.20898 59.916l86.666 86.666q32.0986 32.0986 65.2666 -1.07031zM2139 185q48 0 48 -77v-34q0 -74 -48 -74l-63 1q-235 2 -338 219q-52 -61 -190 -125q-200 -95 -641 -95
q-340 0 -509 71q-273 113 -298 396q-12 133 31 285l142 -38q-21 -141 -18 -207q12 -259 339 -306q103 -15 327 -15q412 0 582 80q198 94 226 310h121q14 -179 41 -253q49 -135 208 -137z" />
    <glyph glyph-name="uniFB58" unicode="&#x67e;" horiz-adv-x="680" arabic-form="initial" 
d="M491.657 -167.381l88.8057 -89.876q28.8887 -27.8184 1.07031 -55.6367l-93.0859 -92.0156q-29.958 -29.959 -58.8467 -1.07031l-93.0859 93.0859q-27.8184 27.8184 3.20996 58.8467l86.666 87.7354q32.0986 32.0986 65.2666 -1.06934zM170.674 -167.381l88.8047 -89.876
q28.8887 -27.8184 1.07031 -55.6367l-93.085 -92.0156q-29.959 -29.959 -58.8477 -1.07031l-93.085 93.0859q-27.8184 27.8184 3.20996 58.8467l86.665 87.7354q32.0986 32.0986 65.2676 -1.06934zM331.165 -403.84l88.8057 -88.8047q28.8887 -28.8887 1.07031 -55.6377
l-93.0859 -93.085q-29.958 -29.959 -58.8467 -1.07031l-93.085 93.0859q-27.8193 27.8184 3.20898 59.916l86.666 86.666q32.0986 32.0986 65.2666 -1.07031zM441 80q-94 -80 -356 -80h-87q-50 0 -50 74v34q0 77 48 77h93q93 0 120 4q116 16 146 88q21 50 21 137
q0 154 -39 314l151 34q53 -154 53 -336q0 -258 -100 -346z" />
    <glyph glyph-name="uniFB59" unicode="&#x67e;" horiz-adv-x="756" arabic-form="medial" 
d="M750 0h-43q-156 0 -276 130q-117 -130 -302 -130h-135q-46 0 -46 74v34q0 77 46 77h139q213 0 217 182l5 225l154 26l9 -251q6 -182 192 -182h40q48 0 48 -77v-34q0 -74 -48 -74zM492.657 -167.381l88.8057 -89.876q28.8887 -27.8184 1.07031 -55.6367l-93.0859 -92.0156
q-29.958 -29.959 -58.8467 -1.07031l-93.0859 93.0859q-27.8184 27.8184 3.20996 58.8467l86.666 87.7354q32.0986 32.0986 65.2666 -1.06934zM171.674 -167.381l88.8047 -89.876q28.8887 -27.8184 1.07031 -55.6367l-93.085 -92.0156q-29.959 -29.959 -58.8477 -1.07031
l-93.085 93.0859q-27.8184 27.8184 3.20996 58.8467l86.665 87.7354q32.0986 32.0986 65.2676 -1.06934zM332.165 -403.84l88.8057 -88.8047q28.8887 -28.8887 1.07031 -55.6377l-93.0859 -93.085q-29.958 -29.959 -58.8467 -1.07031l-93.085 93.0859
q-27.8193 27.8184 3.20898 59.916l86.666 86.666q32.0986 32.0986 65.2666 -1.07031z" />
    <glyph glyph-name="uniFB7A" unicode="&#x686;" horiz-adv-x="1280" arabic-form="isolated" 
d="M120 625q172 253 370 249q32 0 71 -10q39 -11 196 -88q158 -76 239 -105q81 -28 174 -40l-25 -176q-128 -10 -150 -12q-245 -30 -404 -121q-326 -188 -326 -462q0 -215 195 -293q116 -46 317 -47q197 0 374 50l44 -155q-208 -64 -416 -64q-259 0 -440 94
q-242 126 -243 412q0 189 103 342q154 232 486 329q96 28 185 35q-69 18 -199 79q-130 62 -165 62q-135 0 -271 -175zM984.657 160.619l88.8057 -89.876q28.8887 -27.8184 1.07031 -55.6367l-93.0859 -92.0156q-29.958 -29.959 -58.8467 -1.07031l-93.0859 93.0859
q-27.8184 27.8184 3.20996 58.8467l86.666 87.7354q32.0986 32.0986 65.2666 -1.06934zM663.674 160.619l88.8047 -89.876q28.8887 -27.8184 1.07031 -55.6367l-93.085 -92.0156q-29.959 -29.959 -58.8477 -1.07031l-93.085 93.0859q-27.8184 27.8184 3.20996 58.8467
l86.665 87.7354q32.0986 32.0986 65.2676 -1.06934zM824.165 -75.8398l88.8057 -88.8047q28.8887 -28.8887 1.07031 -55.6377l-93.0859 -93.085q-29.958 -29.959 -58.8467 -1.07031l-93.085 93.0859q-27.8193 27.8184 3.20898 59.916l86.666 86.666
q32.0986 32.0986 65.2666 -1.07031z" />
    <glyph glyph-name="uniFB7B" unicode="&#x686;" horiz-adv-x="1333" arabic-form="final" 
d="M856.238 72.5537l84.8086 -85.8301q27.5889 -26.5664 1.02246 -53.1328l-88.8955 -87.874q-28.6104 -28.6104 -56.1992 -1.02148l-88.8955 88.8955q-26.5664 26.5664 3.06543 56.1982l82.7646 83.7871q30.6543 30.6533 62.3291 -1.02246zM549.702 72.5537
l84.8086 -85.8301q27.5879 -26.5664 1.02148 -53.1328l-88.8955 -87.874q-28.6104 -28.6104 -56.1982 -1.02148l-88.8965 88.8955q-26.5664 26.5664 3.06543 56.1982l82.7656 83.7871q30.6533 30.6533 62.3291 -1.02246zM702.971 -153.262l84.8086 -84.8086
q27.5879 -27.5879 1.02148 -53.1328l-88.8955 -88.8955q-28.6104 -28.6104 -56.1982 -1.02148l-88.8965 88.8955q-26.5664 26.5664 3.06543 57.2197l82.7656 82.7656q30.6533 30.6533 62.3291 -1.02246zM864 421q-150 -29 -273 -99q-326 -188 -326 -462q0 -215 195 -293
q116 -46 317 -47q197 0 374 50l44 -155q-208 -64 -416 -64q-259 0 -440 94q-242 126 -243 412q0 189 103 342q154 232 486 329q96 28 185 35q-69 18 -199 79q-130 62 -165 62q-135 0 -271 -175l-115 96q172 253 370 249q32 0 71 -10q39 -11 196 -88q158 -76 239 -105
q81 -28 174 -40l-25 -176q-75 -8 -150 -15q4 -259 297 -255h48q48 1 48 -77v-34q0 -73 -48 -74l-43 -1q-418 -5 -433 422z" />
    <glyph glyph-name="uniFB7C" unicode="&#x686;" horiz-adv-x="1361" arabic-form="initial" 
d="M1265 525l-24 -147q-49 -10 -613 -283q-196 -95 -579 -95h-53q-48 0 -48 74v34q0 77 48 77h44q317 0 462 53q243 88 444 185q-82 9 -262 88q-197 87 -250 94q-10 1 -21 1q-111 0 -233 -161l-115 89q100 141 159 184q89 64 196 64q88 0 224 -60q41 -18 246 -115
q195 -93 375 -82zM846.657 -167.381l88.8057 -89.876q28.8887 -27.8184 1.07031 -55.6367l-93.0859 -92.0156q-29.958 -29.959 -58.8467 -1.07031l-93.0859 93.0859q-27.8184 27.8184 3.20996 58.8467l86.666 87.7354q32.0986 32.0986 65.2666 -1.06934zM525.674 -167.381
l88.8047 -89.876q28.8887 -27.8184 1.07031 -55.6367l-93.085 -92.0156q-29.959 -29.959 -58.8477 -1.07031l-93.085 93.0859q-27.8184 27.8184 3.20996 58.8467l86.665 87.7354q32.0986 32.0986 65.2676 -1.06934zM686.165 -403.84l88.8057 -88.8047
q28.8887 -28.8887 1.07031 -55.6377l-93.0859 -93.085q-29.958 -29.959 -58.8467 -1.07031l-93.085 93.0859q-27.8193 27.8184 3.20898 59.916l86.666 86.666q32.0986 32.0986 65.2666 -1.07031z" />
    <glyph glyph-name="uniFB7D" unicode="&#x686;" horiz-adv-x="1393" arabic-form="medial" 
d="M890 607q198 -93 375 -82l-24 -147q-88 -21 -240 -98q15 -91 290 -94l109 -1q48 0 48 -77v-34q0 -74 -48 -74h-132q-345 0 -412 212q-112 -61 -228 -117q-196 -95 -579 -95h-53q-48 0 -48 74v34q0 77 48 77h44q323 0 462 53q261 97 444 185q-82 9 -262 88
q-197 87 -250 94q-10 1 -21 1q-111 0 -233 -161l-115 89q100 141 159 184q89 64 196 64q97 0 224 -60q122 -57 246 -115zM850.657 -167.381l88.8057 -89.876q28.8887 -27.8184 1.07031 -55.6367l-93.0859 -92.0156q-29.958 -29.959 -58.8467 -1.07031l-93.0859 93.0859
q-27.8184 27.8184 3.20996 58.8467l86.666 87.7354q32.0986 32.0986 65.2666 -1.06934zM529.674 -167.381l88.8047 -89.876q28.8887 -27.8184 1.07031 -55.6367l-93.085 -92.0156q-29.959 -29.959 -58.8477 -1.07031l-93.085 93.0859q-27.8184 27.8184 3.20996 58.8467
l86.665 87.7354q32.0986 32.0986 65.2676 -1.06934zM690.165 -403.84l88.8057 -88.8047q28.8887 -28.8887 1.07031 -55.6377l-93.0859 -93.085q-29.958 -29.959 -58.8467 -1.07031l-93.085 93.0859q-27.8193 27.8184 3.20898 59.916l86.666 86.666
q32.0986 32.0986 65.2666 -1.07031z" />
    <glyph glyph-name="uniFB8A" unicode="&#x698;" horiz-adv-x="867" arabic-form="isolated" 
d="M745.728 1054.08l88.8057 -88.8057q27.8184 -27.8184 0 -55.6377l-92.0156 -93.085q-29.959 -29.958 -59.917 0l-93.0859 93.085q-27.8184 27.8193 3.20996 58.8477l86.666 86.666q33.168 32.0977 66.3369 -1.07031zM424.743 1054.08l88.8057 -88.8057
q27.8184 -27.8184 0 -55.6377l-92.0156 -93.085q-29.958 -29.958 -59.917 0l-93.085 93.085q-27.8184 27.8193 3.20996 58.8477l86.665 86.666q33.1689 32.0977 66.3369 -1.07031zM585.235 1308.73l88.8057 -88.8057q27.8184 -27.8184 0 -55.6377l-93.0859 -93.085
q-28.8887 -29.959 -58.8467 0l-93.085 93.085q-27.8193 27.8193 3.20898 58.8477l86.666 86.665q33.168 32.0986 66.3369 -1.06934zM627 -309q-181 -224 -543 -225h-3l-55 136q548 38 579 472q8 108 -65 381l150 87q81 -231 81 -427q-1 -248 -144 -424z" />
    <glyph glyph-name="uniFB8B" unicode="&#x698;" horiz-adv-x="966" arabic-form="final" 
d="M753.728 1003.08l88.8057 -88.8057q27.8184 -27.8184 0 -55.6377l-92.0156 -93.085q-29.959 -29.958 -59.917 0l-93.0859 93.085q-27.8184 27.8193 3.20996 58.8477l86.666 86.666q33.168 32.0977 66.3369 -1.07031zM432.743 1003.08l88.8057 -88.8057
q27.8184 -27.8184 0 -55.6377l-92.0156 -93.085q-29.958 -29.958 -59.917 0l-93.085 93.085q-27.8184 27.8193 3.20996 58.8477l86.665 86.666q33.1689 32.0977 66.3369 -1.07031zM593.235 1257.73l88.8057 -88.8057q27.8184 -27.8184 0 -55.6377l-93.0859 -93.085
q-28.8887 -29.959 -58.8467 0l-93.085 93.085q-27.8193 27.8193 3.20898 58.8477l86.666 86.665q33.168 32.0986 66.3369 -1.06934zM540 455l150 87q27 -116 68 -280q20 -77 175 -77h40q48 0 48 -77v-34q0 -74 -48 -74h-35q-127 0 -175 50q-79 -582 -679 -584h-3l-55 136
q538 38 579 472q9 103 -65 381z" />
    <glyph glyph-name="uniFB8E" unicode="&#x6a9;" horiz-adv-x="1967" arabic-form="isolated" 
d="M1916 1528l-3 -185l-657 -338l348 -385q140 -155 94 -344q-67 -276 -489 -276h-302q-340 0 -509 71q-273 113 -298 396q-12 133 31 285l142 -38q-21 -141 -18 -207q12 -260 339 -306q108 -15 267 -15h255h178q224 0 256 143q17 81 -64 171l-380 426q-5 82 12 153
q11 50 60 74z" />
    <glyph glyph-name="uniFB8F" unicode="&#x6a9;" horiz-adv-x="2117" arabic-form="final" 
d="M1916 1528v-185l-657 -337l650 -722q85 -95 185 -98l30 -1q48 -1 48 -77v-34q0 -75 -48 -74l-41 1q-182 5 -388 272q-32 -272 -483 -272l-305 -1q-340 -1 -509 71q-273 116 -298 396q-12 133 31 285l142 -38q-21 -141 -18 -207q12 -256 339 -306q108 -16 259 -16l444 1
q223 1 256 144q18 80 -64 171l-383 425q-5 82 12 153q11 50 60 74z" />
    <glyph glyph-name="uniFB90" unicode="&#x6a9;" horiz-adv-x="926" arabic-form="initial" 
d="M-4 185l259 1q226 0 256 143q17 82 -64 171l-383 425q-4 82 12 153q11 50 60 75l738 374v-184l-657 -338l348 -385q133 -147 94 -334q-60 -286 -438 -286h-225q-48 0 -48 74v34q0 77 48 77z" />
    <glyph glyph-name="uniFB91" unicode="&#x6a9;" horiz-adv-x="1090" arabic-form="medial" 
d="M874 1527v-184l-657 -338l650 -721q87 -97 185 -98l45 -1q48 0 48 -77v-34q0 -75 -48 -74l-49 1q-190 2 -395 272q-34 -273 -430 -273h-227q-48 0 -48 74v34q0 77 48 77l259 1q224 0 256 143q18 80 -64 171l-383 425q-4 82 12 153q11 50 60 75z" />
    <glyph glyph-name="uniFB92" unicode="&#x6af;" horiz-adv-x="1967" arabic-form="isolated" 
d="M1905 1679.06l-719.004 -371.271v131.604l719.004 370.201v-130.533zM1916 1528l-3 -185l-657 -338l348 -385q140 -155 94 -344q-67 -276 -489 -276h-302q-340 0 -509 71q-273 113 -298 396q-12 133 31 285l142 -38q-21 -141 -18 -207q12 -260 339 -306q108 -15 267 -15
h255h178q224 0 256 143q17 81 -64 171l-380 426q-5 82 12 153q11 50 60 74z" />
    <glyph glyph-name="uniFB93" unicode="&#x6af;" horiz-adv-x="2117" arabic-form="final" 
d="M1905 1679.06l-719.004 -371.271v131.604l719.004 370.201v-130.533zM1916 1528v-185l-657 -337l650 -722q85 -95 185 -98l30 -1q48 -1 48 -77v-34q0 -75 -48 -74l-41 1q-182 5 -388 272q-32 -272 -483 -272l-305 -1q-340 -1 -509 71q-273 116 -298 396q-12 133 31 285
l142 -38q-21 -141 -18 -207q12 -256 339 -306q108 -16 259 -16l444 1q223 1 256 144q18 80 -64 171l-383 425q-5 82 12 153q11 50 60 74z" />
    <glyph glyph-name="uniFB94" unicode="&#x6af;" horiz-adv-x="922" arabic-form="initial" 
d="M-4 185l259 1q226 0 256 143q17 82 -64 171l-383 425q-4 82 12 153q11 50 60 75l738 374v-184l-657 -338l348 -385q133 -147 94 -334q-60 -286 -438 -286h-225q-48 0 -48 74v34q0 77 48 77zM865.004 1679.06l-719.004 -371.271v131.604l719.004 370.201v-130.533z" />
    <glyph glyph-name="uniFB95" unicode="&#x6af;" horiz-adv-x="1090" arabic-form="medial" 
d="M865.004 1679.06l-719.004 -371.271v131.604l719.004 370.201v-130.533zM874 1527v-184l-657 -338l650 -721q87 -97 185 -98l45 -1q48 0 48 -77v-34q0 -75 -48 -74l-49 1q-190 2 -395 272q-34 -273 -430 -273h-227q-48 0 -48 74v34q0 77 48 77l259 1q224 0 256 143
q18 80 -64 171l-383 425q-4 82 12 153q11 50 60 75z" />
    <glyph glyph-name="uniFB9E" unicode="&#x6ba;" horiz-adv-x="1403" arabic-form="isolated" 
d="M1243 -129q-137 -264 -554 -265q-259 0 -413 117q-178 137 -177 419q0 207 92 416l149 -55q-80 -195 -80 -344q0 -380 432 -380q461 1 461 398q0 141 -107 358l137 119q53 -104 84 -202q43 -138 44 -269q0 -180 -68 -312z" />
    <glyph glyph-name="uniFB9F" unicode="&#x6ba;" horiz-adv-x="1467" arabic-form="final" 
d="M1287 287q46 -100 154 -101l33 -1q48 0 48 -77v-34q0 -75 -48 -74l-32 1q-105 1 -141 50q-3 -567 -611 -569q-259 0 -413 117q-178 137 -177 419q0 207 92 416l149 -55q-80 -195 -80 -344q0 -380 432 -380q461 1 461 398q0 141 -107 358l137 119q27 -76 103 -243z" />
    <glyph glyph-name="uniFBA5.fina" unicode="&#x6c0;" horiz-adv-x="1144" arabic-form="final" 
d="M655 1612q112 22 207 -34l5 -3v-5v-112v-16l-15 7l-20 10q-62 31 -124 24q-19 -2 -34.5 -6.5t-26.5 -11t-19 -15.5t-12 -20t-6 -25q-6 -74 100 -106q32 -10 168 22l13 2v-12v-116v-8l-8 -2l-389 -87l-12 -3v13v113v8l7 2l70 16q-75 58 -75 150q0 103 72 167
q14 12 29.5 21t33 16t36.5 11zM1151 185q48 0 48 -77v-34q0 -74 -48 -74h-48q-296 0 -346 237q-522 -82 -638 139q-20 38 -22 89q-10 279 586 394q0 13 -14 118l157 38l68 -597q26 -232 210 -232zM739 412q-16 166 -35 285q-426 -79 -441 -197q-11 -84 80 -102
q132 -27 396 14z" />
    <glyph glyph-name="uniFBAC" unicode="&#x6be;" horiz-adv-x="1220" arabic-form="initial" 
d="M-4 185l184 1q-75 88 -69 227q5 118 69 201q96 123 222 157l-39 21l81 140l331 -220q337 -224 354 -420q9 -105 -36 -186q-73 -131 -235 -141q-193 -11 -461 100q-193 -65 -367 -65h-34q-48 0 -48 74v34q0 77 48 77zM753 536q2 -215 -184 -363q377 -109 408 65
q23 122 -224 298zM594 418q65 145 -16 202q-37 25 -89 25q-20 0 -40 -6q-66 -20 -115 -82q-53 -67 -65 -143q-22 -138 129 -186q133 53 196 190z" />
    <glyph glyph-name="uniFBAD" unicode="&#x6be;" horiz-adv-x="994" arabic-form="medial" 
d="M-4 185l236 1q-10 289 48 421q82 184 242 183q246 0 246 -306q0 -135 -45 -236q-50 -113 -125 -175q-88 -72 -205 -73q15 -202 140 -331q125 525 423 518l45 -2q48 -1 48 -77v-34q0 -74 -48 -74h-47q-228 0 -321 -474l-101 -56q-236 156 -298 530h-238q-48 0 -48 74v34
q0 77 48 77zM382 186l38 2q97 5 146 80q47 71 48 224q0 73 -22 107q-23 35 -67 35q-102 0 -128 -169q-25 -156 -15 -279z" />
    <glyph glyph-name="uniFBE8" unicode="&#x649;" horiz-adv-x="640" arabic-form="initial" 
d="M441 80q-94 -80 -356 -80h-87q-50 0 -50 74v34q0 77 48 77h93q93 0 120 4q116 16 146 88q21 50 21 137q0 154 -39 314l151 34q53 -154 53 -336q0 -258 -100 -346z" />
    <glyph glyph-name="uniFBE9" unicode="&#x649;" horiz-adv-x="744" arabic-form="medial" 
d="M750 0h-43q-156 0 -276 130q-117 -130 -302 -130h-135q-46 0 -46 74v34q0 77 46 77h139q213 0 217 182l5 225l154 26l9 -251q6 -182 192 -182h40q48 0 48 -77v-34q0 -74 -48 -74z" />
    <glyph glyph-name="uniFBFC" unicode="&#x6cc;" horiz-adv-x="1470" arabic-form="isolated" 
d="M1045 150l55 1q107 0 168 -25q105 -43 105 -179q1 -130 -79 -230q-176 -221 -586 -222q-195 0 -324 56q-285 125 -287 480q-1 200 126 470l137 -60q-93 -211 -97 -388q-9 -385 453 -382q304 2 448 141q55 52 57 95q3 69 -82 69l-111 1q-255 1 -256 202q-1 134 102 282
q50 71 114 122q144 116 323 120l58 1l-60 -192h-14q-92 0 -184 -61q-104 -71 -152 -168q-18 -36 -23 -73q-10 -63 109 -60z" />
    <glyph glyph-name="uniFBFD" unicode="&#x6cc;" horiz-adv-x="1481" arabic-form="final" 
d="M1488 185q48 0 48 -77v-34q0 -74 -48 -74l-125 1l-182 -1q-115 0 -115 -43q0 -36 75 -37h62q184 -1 185 -166q0 -151 -139 -248q-184 -129 -511 -130q-311 0 -472 135q-168 142 -169 381q-1 211 116 460l147 -60q-93 -212 -97 -388q-4 -175 143 -275q115 -78 340 -77
q201 1 335 53q153 59 159 132q3 32 -62 34l-68 2q-216 8 -217 183q-1 231 286 230z" />
    <glyph glyph-name="uniFBFE" unicode="&#x6cc;" horiz-adv-x="680" arabic-form="initial" 
d="M441 80q-94 -80 -356 -80h-87q-50 0 -50 74v34q0 77 48 77h93q93 0 120 4q116 16 146 88q21 50 21 137q0 154 -39 314l151 34q53 -154 53 -336q0 -258 -100 -346zM492.657 -209.011l88.8057 -88.8057q27.8184 -27.8184 1.07031 -55.6367l-93.0859 -93.0859
q-29.958 -29.958 -59.917 0l-93.085 92.0156q-27.8184 28.8887 4.2793 59.917l86.666 86.666q32.0986 32.0977 65.2666 -1.07031zM171.674 -209.011l88.8047 -88.8057q27.8193 -27.8184 1.07031 -55.6367l-93.085 -93.0859q-29.959 -29.958 -59.917 0l-93.0859 92.0156
q-27.8184 28.8887 4.28027 59.917l86.665 86.666q32.0986 32.0977 65.2676 -1.07031z" />
    <glyph glyph-name="uniFBFF" unicode="&#x6cc;" horiz-adv-x="744" arabic-form="medial" 
d="M750 0h-43q-156 0 -276 130q-117 -130 -302 -130h-135q-46 0 -46 74v34q0 77 46 77h139q213 0 217 182l5 225l154 26l9 -251q6 -182 192 -182h40q48 0 48 -77v-34q0 -74 -48 -74zM497.657 -209.011l88.8057 -88.8057q27.8184 -27.8184 1.07031 -55.6367
l-93.0859 -93.0859q-29.958 -29.958 -59.917 0l-93.085 92.0156q-27.8184 28.8887 4.2793 59.917l86.666 86.666q32.0986 32.0977 65.2666 -1.07031zM176.674 -209.011l88.8047 -88.8057q27.8193 -27.8184 1.07031 -55.6367l-93.085 -93.0859q-29.959 -29.958 -59.917 0
l-93.0859 92.0156q-27.8184 28.8887 4.28027 59.917l86.665 86.666q32.0986 32.0977 65.2676 -1.07031z" />
    <glyph glyph-name="uniFDFC" unicode="&#xfdfc;" horiz-adv-x="3104" arabic-form="isolated" 
d="M663 -315q428 0 420 457l-24 1273l172 71v-1080q0 -2 -2 -304q4 -589 -569 -590q-236 0 -381 111q-190 147 -189 425q0 184 102 416l149 -55q-80 -195 -80 -344q0 -153 90 -263q95 -116 312 -117zM1878 185q48 0 48 -77v-34q0 -74 -48 -74h-40q-204 0 -290 133
q-61 94 -67 298l-29 979l173 76v-1041q-1 -260 212 -260h41zM2175.66 -120.011l88.8057 -88.8057q27.8184 -27.8184 1.07031 -55.6367l-93.0859 -93.0859q-29.958 -29.958 -59.917 0l-93.085 92.0156q-27.8184 28.8887 4.2793 59.917l86.666 86.666
q32.0986 32.0977 65.2666 -1.07031zM1854.67 -120.011l88.8047 -88.8057q27.8193 -27.8184 1.07031 -55.6367l-93.085 -93.0859q-29.959 -29.958 -59.917 0l-93.0859 92.0156q-27.8184 28.8887 4.28027 59.917l86.665 86.666q32.0986 32.0977 65.2676 -1.07031zM2317 80
q-94 -80 -356 -80h-87q-50 0 -50 74v34q0 77 48 77h93q93 0 120 4q116 16 146 88q21 50 21 137q0 154 -39 314l151 34q53 -154 53 -336q0 -258 -100 -346zM2685 -459q-181 -224 -543 -225h-3l-55 136q548 38 579 472q8 108 -65 381l150 87q81 -231 81 -427
q-1 -248 -144 -424z" />
    <glyph glyph-name="uniFE71" unicode="&#xfe71;" horiz-adv-x="680" arabic-form="medial" 
d="M687 0h-271q-48 0 -48 74v34q0 77 48 77h271q48 0 48 -77v-34q0 -74 -48 -74zM467 0h-271q-48 0 -48 74v34q0 77 48 77h271q48 0 48 -77v-34q0 -74 -48 -74zM267 0h-271q-48 0 -48 74v34q0 77 48 77h271q48 0 48 -77v-34q0 -74 -48 -74zM107 1153v109l480 197v-110z
M107 1414v109l480 197v-110z" />
    <glyph glyph-name="uniFE77" unicode="&#xfe77;" horiz-adv-x="680" arabic-form="medial" 
d="M687 0h-271q-48 0 -48 74v34q0 77 48 77h271q48 0 48 -77v-34q0 -74 -48 -74zM467 0h-271q-48 0 -48 74v34q0 77 48 77h271q48 0 48 -77v-34q0 -74 -48 -74zM267 0h-271q-48 0 -48 74v34q0 77 48 77h271q48 0 48 -77v-34q0 -74 -48 -74zM74 1427v110l481 196v-109z" />
    <glyph glyph-name="uniFE79" unicode="&#xfe79;" horiz-adv-x="680" arabic-form="medial" 
d="M687 0h-271q-48 0 -48 74v34q0 77 48 77h271q48 0 48 -77v-34q0 -74 -48 -74zM467 0h-271q-48 0 -48 74v34q0 77 48 77h271q48 0 48 -77v-34q0 -74 -48 -74zM267 0h-271q-48 0 -48 74v34q0 77 48 77h271q48 0 48 -77v-34q0 -74 -48 -74zM605 1562q-77 0 -126 8
q-50 -70 -121 -114q-113 -71 -241 -76v85q189 29 267 131q-95 21 -136 80q-26 36 -26 84q0 77 64 125q44 32 96 32q67 0 113 -45t46 -124q0 -32 -14 -78l-6 -20l21 -1q37 -3 63 -3v-84zM433 1664l3 7q21 45 22 83q-1 38 -25 59q-24 19 -52 19q-29 0 -50 -16q-23 -20 -24 -51
q-1 -50 61 -79q30 -14 65 -22z" />
    <glyph glyph-name="uniFE7B" unicode="&#xfe7b;" horiz-adv-x="680" arabic-form="medial" 
d="M687 0h-271q-48 0 -48 74v34q0 77 48 77h271q48 0 48 -77v-34q0 -74 -48 -74zM467 0h-271q-48 0 -48 74v34q0 77 48 77h271q48 0 48 -77v-34q0 -74 -48 -74zM267 0h-271q-48 0 -48 74v34q0 77 48 77h271q48 0 48 -77v-34q0 -74 -48 -74zM124 -357v109l480 197v-109z" />
    <glyph glyph-name="uniFE7D" unicode="&#xfe7d;" horiz-adv-x="680" arabic-form="medial" 
d="M687 0h-271q-48 0 -48 74v34q0 77 48 77h271q48 0 48 -77v-34q0 -74 -48 -74zM467 0h-271q-48 0 -48 74v34q0 77 48 77h271q48 0 48 -77v-34q0 -74 -48 -74zM267 0h-271q-48 0 -48 74v34q0 77 48 77h271q48 0 48 -77v-34q0 -74 -48 -74zM342 1607q-25 -135 -157 -135
q-150 1 -149 178q0 35 15 134h71q-12 -85 -12 -112q0 -88 76 -88q106 0 111 118q1 38 1 83v53h71q2 -34 2 -80q0 -114 106 -114q81 0 82 110q0 84 -11 143h76q14 -76 14 -135q0 -225 -159 -225q-104 0 -137 70z" />
    <glyph glyph-name="uniFE7F" unicode="&#xfe7f;" horiz-adv-x="680" arabic-form="medial" 
d="M687 0h-271q-48 0 -48 74v34q0 77 48 77h271q48 0 48 -77v-34q0 -74 -48 -74zM467 0h-271q-48 0 -48 74v34q0 77 48 77h271q48 0 48 -77v-34q0 -74 -48 -74zM267 0h-271q-48 0 -48 74v34q0 77 48 77h271q48 0 48 -77v-34q0 -74 -48 -74zM447 1545q0 46 -32.5 78.5
t-79.5 32.5t-79.5 -32t-32.5 -79q0 -48 32.5 -80.5t79.5 -32.5t79.5 32.5t32.5 80.5zM516 1544.5q0 -75.5 -52.5 -128.5t-127.5 -53q-26 0 -48.5 6t-42.5 17.5t-38 29.5q-26 26 -39 58.5t-13 70.5q0 75 52.5 127.5t128 52.5t128 -52.5t52.5 -128z" />
    <glyph glyph-name="uniFE80" unicode="&#x621;" horiz-adv-x="778" arabic-form="isolated" 
d="M91 -26v145l211 104q-210 62 -207 268q3 172 142 257q140 85 357 37v-175q-164 45 -253.5 -0.5t-88.5 -127.5q0 -126 183 -158q38 -7 78 -5t174 62v-192z" />
    <glyph glyph-name="uniFE81" unicode="&#x622;" horiz-adv-x="560" arabic-form="isolated" 
d="M215 1273.75l173 67.4971v-1336.45h-130zM61 1405l-92 91q108 179 254 152l134 -26q77 -14 195 57l65 -104q-100 -113 -269 -85l-126 22q-102 17 -161 -107z" />
    <glyph glyph-name="uniFE82" unicode="&#x622;" horiz-adv-x="557" arabic-form="final" 
d="M564 185q48 0 48 -77v-34q0 -74 -48 -74h-40q-204 0 -290 133q-61 94 -67 298l-29 979l173 76v-1041q-1 -260 212 -260h41zM50 1524l-92 91q108 179 254 152l134 -26q77 -14 195 57l65 -104q-100 -113 -269 -85l-126 22q-102 17 -161 -107z" />
    <glyph glyph-name="uniFE83" unicode="&#x623;" horiz-adv-x="448" arabic-form="isolated" 
d="M151 1273.75l173 67.4971v-1336.45h-130zM192.489 1850.83q100.796 19.7998 186.292 -30.5986l4.5 -2.7002v-4.49902v-100.796v-14.3994l-13.5 6.2998l-17.999 8.99902q-55.7979 27.8994 -111.596 21.5996q-17.0986 -1.7998 -31.0488 -5.85059
q-13.9492 -4.0498 -23.8486 -9.89941t-17.0996 -13.9492q-7.19922 -8.09961 -10.7988 -17.999q-3.60059 -9.89941 -5.40039 -22.499q-5.39941 -66.5977 89.9961 -95.3965q28.7988 -8.99902 151.194 19.7998l11.6992 1.7998v-10.7998v-104.396v-7.2002l-7.19922 -1.7998
l-350.086 -78.2969l-10.7998 -2.7002v11.7002v101.695v7.2002l6.2998 1.7998l62.998 14.3994q-67.498 52.1973 -67.498 134.994q0 92.6963 64.7979 150.294q12.5996 10.7998 26.5488 18.8994t29.6992 14.3994q15.749 6.2998 32.8486 9.89941z" />
    <glyph glyph-name="uniFE84" unicode="&#x623;" horiz-adv-x="557" arabic-form="final" 
d="M564 185q48 0 48 -77v-34q0 -74 -48 -74h-40q-204 0 -290 133q-61 94 -67 298l-29 979l173 76v-1041q-1 -260 212 -260h41zM226.489 2000.83q100.796 19.7998 186.292 -30.5986l4.5 -2.7002v-4.49902v-100.796v-14.3994l-13.5 6.2998l-17.999 8.99902
q-55.7979 27.8994 -111.596 21.5996q-17.0986 -1.7998 -31.0488 -5.85059q-13.9492 -4.0498 -23.8486 -9.89941t-17.0996 -13.9492q-7.19922 -8.09961 -10.7988 -17.999q-3.60059 -9.89941 -5.40039 -22.499q-5.39941 -66.5977 89.9961 -95.3965
q28.7988 -8.99902 151.194 19.7998l11.6992 1.7998v-10.7998v-104.396v-7.2002l-7.19922 -1.7998l-350.086 -78.2969l-10.7998 -2.7002v11.7002v101.695v7.2002l6.2998 1.7998l62.998 14.3994q-67.498 52.1973 -67.498 134.994q0 92.6963 64.7979 150.294
q12.5996 10.7998 26.5488 18.8994t29.6992 14.3994q15.749 6.2998 32.8486 9.89941z" />
    <glyph glyph-name="uniFE85" unicode="&#x624;" horiz-adv-x="891" arabic-form="isolated" 
d="M409.489 1329.83q100.796 19.7998 186.292 -30.5986l4.5 -2.7002v-4.49902v-100.796v-14.3994l-13.5 6.2998l-17.999 8.99902q-55.7979 27.8994 -111.596 21.5996q-17.0986 -1.7998 -31.0488 -5.85059q-13.9492 -4.0498 -23.8486 -9.89941t-17.0996 -13.9492
q-7.19922 -8.09961 -10.7988 -17.999q-3.60059 -9.89941 -5.40039 -22.499q-5.39941 -66.5977 89.9961 -95.3965q28.7988 -8.99902 151.194 19.7998l11.6992 1.7998v-10.7998v-104.396v-7.2002l-7.19922 -1.7998l-350.086 -78.2969l-10.7998 -2.7002v11.7002v101.695v7.2002
l6.2998 1.7998l62.998 14.3994q-67.498 52.1973 -67.498 134.994q0 92.6963 64.7979 150.294q12.5996 10.7998 26.5488 18.8994t29.6992 14.3994q15.749 6.2998 32.8486 9.89941zM441 548q-135 -4 -180 -183q-53 -205 178 -204q121 0 191 54q0 57 -4 94q-28 244 -185 239z
M727 534q64 -132 63 -352q-1 -314 -127 -477q-185 -239 -560 -242h-2l-55 139q523 31 576 438q-90 -49 -208 -49q-95 1 -160 31q-157 72 -155 254q1 116 51 226q97 217 293 218q194 1 284 -186z" />
    <glyph glyph-name="uniFE86" unicode="&#x624;" horiz-adv-x="905" arabic-form="final" 
d="M912 185q48 0 48 -77v-34q0 -74 -48 -74h-136q-29 -192 -157 -340q-168 -196 -519 -197h-2l-52 140q494 30 576 398h-176q-202 0 -281 104q-54 70 -53 174q1 157 75 280q94 158 258 159q188 0 280 -190q54 -111 61 -342zM436 546q-78 -1 -127 -92q-42 -80 -42 -145
q0 -60 34 -91q37 -34 113 -39q73 -6 217 1q0 365 -195 366zM428.489 1354.83q100.796 19.7998 186.292 -30.5986l4.5 -2.7002v-4.49902v-100.796v-14.3994l-13.5 6.2998l-17.999 8.99902q-55.7979 27.8994 -111.596 21.5996q-17.0986 -1.7998 -31.0488 -5.85059
q-13.9492 -4.0498 -23.8486 -9.89941t-17.0996 -13.9492q-7.19922 -8.09961 -10.7988 -17.999q-3.60059 -9.89941 -5.40039 -22.499q-5.39941 -66.5977 89.9961 -95.3965q28.7988 -8.99902 151.194 19.7998l11.6992 1.7998v-10.7998v-104.396v-7.2002l-7.19922 -1.7998
l-350.086 -78.2969l-10.7998 -2.7002v11.7002v101.695v7.2002l6.2998 1.7998l62.998 14.3994q-67.498 52.1973 -67.498 134.994q0 92.6963 64.7979 150.294q12.5996 10.7998 26.5488 18.8994t29.6992 14.3994q15.749 6.2998 32.8486 9.89941z" />
    <glyph glyph-name="uniFE87" unicode="&#x625;" horiz-adv-x="448" arabic-form="isolated" 
d="M205.489 -95.1738q100.796 19.7998 186.292 -30.5986l4.5 -2.7002v-4.49902v-100.796v-14.3994l-13.5 6.2998l-17.999 8.99902q-55.7979 27.8994 -111.596 21.5996q-17.0986 -1.7998 -31.0488 -5.85059q-13.9492 -4.0498 -23.8486 -9.89941t-17.0996 -13.9492
q-7.19922 -8.09961 -10.7988 -17.999q-3.60059 -9.89941 -5.40039 -22.499q-5.39941 -66.5977 89.9961 -95.3965q28.7988 -8.99902 151.194 19.7998l11.6992 1.7998v-10.7998v-104.396v-7.2002l-7.19922 -1.7998l-350.086 -78.2969l-10.7998 -2.7002v11.7002v101.695v7.2002
l6.2998 1.7998l62.998 14.3994q-67.498 52.1973 -67.498 134.994q0 92.6963 64.7979 150.294q12.5996 10.7998 26.5488 18.8994t29.6992 14.3994q15.749 6.2998 32.8486 9.89941zM138 1412l173 75v-1485h-130z" />
    <glyph glyph-name="uniFE88" unicode="&#x625;" horiz-adv-x="557" arabic-form="final" 
d="M564 185q48 0 48 -77v-34q0 -74 -48 -74h-40q-204 0 -290 133q-61 94 -67 298l-29 979l173 76v-1041q-1 -260 212 -260h41zM353.489 -95.1738q100.796 19.7998 186.292 -30.5986l4.5 -2.7002v-4.49902v-100.796v-14.3994l-13.5 6.2998l-17.999 8.99902
q-55.7979 27.8994 -111.596 21.5996q-17.0986 -1.7998 -31.0488 -5.85059q-13.9492 -4.0498 -23.8486 -9.89941t-17.0996 -13.9492q-7.19922 -8.09961 -10.7988 -17.999q-3.60059 -9.89941 -5.40039 -22.499q-5.39941 -66.5977 89.9961 -95.3965
q28.7988 -8.99902 151.194 19.7998l11.6992 1.7998v-10.7998v-104.396v-7.2002l-7.19922 -1.7998l-350.086 -78.2969l-10.7998 -2.7002v11.7002v101.695v7.2002l6.2998 1.7998l62.998 14.3994q-67.498 52.1973 -67.498 134.994q0 92.6963 64.7979 150.294
q12.5996 10.7998 26.5488 18.8994t29.6992 14.3994q15.749 6.2998 32.8486 9.89941z" />
    <glyph glyph-name="uniFE89" unicode="&#x626;" horiz-adv-x="1470" arabic-form="isolated" 
d="M542.489 1170.83q100.796 19.7998 186.292 -30.5986l4.5 -2.7002v-4.49902v-100.796v-14.3994l-13.5 6.2998l-17.999 8.99902q-55.7979 27.8994 -111.596 21.5996q-17.0986 -1.7998 -31.0488 -5.85059q-13.9492 -4.0498 -23.8486 -9.89941t-17.0996 -13.9492
q-7.19922 -8.09961 -10.7988 -17.999q-3.60059 -9.89941 -5.40039 -22.499q-5.39941 -66.5977 89.9961 -95.3965q28.7988 -8.99902 151.194 19.7998l11.6992 1.7998v-10.7998v-104.396v-7.2002l-7.19922 -1.7998l-350.086 -78.2969l-10.7998 -2.7002v11.7002v101.695v7.2002
l6.2998 1.7998l62.998 14.3994q-67.498 52.1973 -67.498 134.994q0 92.6963 64.7979 150.294q12.5996 10.7998 26.5488 18.8994t29.6992 14.3994q15.749 6.2998 32.8486 9.89941zM1045 150l55 1q107 0 168 -25q105 -43 105 -179q1 -130 -79 -230q-176 -221 -586 -222
q-195 0 -324 56q-285 125 -287 480q-1 200 126 470l137 -60q-93 -211 -97 -388q-9 -385 453 -382q304 2 448 141q55 52 57 95q3 69 -82 69l-111 1q-255 1 -256 202q-1 134 102 282q50 71 114 122q144 116 323 120l58 1l-60 -192h-14q-92 0 -184 -61q-104 -71 -152 -168
q-18 -36 -23 -73q-10 -63 109 -60z" />
    <glyph glyph-name="uniFE8A" unicode="&#x626;" horiz-adv-x="1481" arabic-form="final" 
d="M1488 185q48 0 48 -77v-34q0 -74 -48 -74l-125 1l-182 -1q-115 0 -115 -43q0 -36 75 -37h62q184 -1 185 -166q0 -151 -139 -248q-184 -129 -511 -130q-311 0 -472 135q-168 142 -169 381q-1 211 116 460l147 -60q-93 -212 -97 -388q-4 -175 143 -275q115 -78 340 -77
q201 1 335 53q153 59 159 132q3 32 -62 34l-68 2q-216 8 -217 183q-1 231 286 230zM651.489 848.826q100.796 19.7998 186.292 -30.5986l4.5 -2.7002v-4.49902v-100.796v-14.3994l-13.5 6.2998l-17.999 8.99902q-55.7979 27.8994 -111.596 21.5996
q-17.0986 -1.7998 -31.0488 -5.85059q-13.9492 -4.0498 -23.8486 -9.89941t-17.0996 -13.9492q-7.19922 -8.09961 -10.7988 -17.999q-3.60059 -9.89941 -5.40039 -22.499q-5.39941 -66.5977 89.9961 -95.3965q28.7988 -8.99902 151.194 19.7998l11.6992 1.7998v-10.7998
v-104.396v-7.2002l-7.19922 -1.7998l-350.086 -78.2969l-10.7998 -2.7002v11.7002v101.695v7.2002l6.2998 1.7998l62.998 14.3994q-67.498 52.1973 -67.498 134.994q0 92.6963 64.7979 150.294q12.5996 10.7998 26.5488 18.8994t29.6992 14.3994
q15.749 6.2998 32.8486 9.89941z" />
    <glyph glyph-name="uniFE8B" unicode="&#x626;" horiz-adv-x="640" arabic-form="initial" 
d="M441 80q-94 -80 -356 -80h-87q-50 0 -50 74v34q0 77 48 77h93q93 0 120 4q116 16 146 88q21 50 21 137q0 154 -39 314l151 34q53 -154 53 -336q0 -258 -100 -346zM280.489 1352.83q100.796 19.7998 186.292 -30.5986l4.5 -2.7002v-4.49902v-100.796v-14.3994
l-13.5 6.2998l-17.999 8.99902q-55.7979 27.8994 -111.596 21.5996q-17.0986 -1.7998 -31.0488 -5.85059q-13.9492 -4.0498 -23.8486 -9.89941t-17.0996 -13.9492q-7.19922 -8.09961 -10.7988 -17.999q-3.60059 -9.89941 -5.40039 -22.499
q-5.39941 -66.5977 89.9961 -95.3965q28.7988 -8.99902 151.194 19.7998l11.6992 1.7998v-10.7998v-104.396v-7.2002l-7.19922 -1.7998l-350.086 -78.2969l-10.7998 -2.7002v11.7002v101.695v7.2002l6.2998 1.7998l62.998 14.3994q-67.498 52.1973 -67.498 134.994
q0 92.6963 64.7979 150.294q12.5996 10.7998 26.5488 18.8994t29.6992 14.3994q15.749 6.2998 32.8486 9.89941z" />
    <glyph glyph-name="uniFE8C" unicode="&#x626;" horiz-adv-x="744" arabic-form="medial" 
d="M750 0h-43q-156 0 -276 130q-117 -130 -302 -130h-135q-46 0 -46 74v34q0 77 46 77h139q213 0 217 182l5 225l154 26l9 -251q6 -182 192 -182h40q48 0 48 -77v-34q0 -74 -48 -74zM308.489 1232.83q100.796 19.7998 186.292 -30.5986l4.5 -2.7002v-4.49902v-100.796
v-14.3994l-13.5 6.2998l-17.999 8.99902q-55.7979 27.8994 -111.596 21.5996q-17.0986 -1.7998 -31.0488 -5.85059q-13.9492 -4.0498 -23.8486 -9.89941t-17.0996 -13.9492q-7.19922 -8.09961 -10.7988 -17.999q-3.60059 -9.89941 -5.40039 -22.499
q-5.39941 -66.5977 89.9961 -95.3965q28.7988 -8.99902 151.194 19.7998l11.6992 1.7998v-10.7998v-104.396v-7.2002l-7.19922 -1.7998l-350.086 -78.2969l-10.7998 -2.7002v11.7002v101.695v7.2002l6.2998 1.7998l62.998 14.3994q-67.498 52.1973 -67.498 134.994
q0 92.6963 64.7979 150.294q12.5996 10.7998 26.5488 18.8994t29.6992 14.3994q15.749 6.2998 32.8486 9.89941z" />
    <glyph glyph-name="uniFE8D" unicode="&#x627;" horiz-adv-x="448" arabic-form="isolated" 
d="M138 1412l173 75v-1485h-130z" />
    <glyph glyph-name="uniFE8E" unicode="&#x627;" horiz-adv-x="557" arabic-form="final" 
d="M564 185q48 0 48 -77v-34q0 -74 -48 -74h-40q-204 0 -290 133q-61 94 -67 298l-29 979l173 76v-1041q-1 -260 212 -260h41z" />
    <glyph glyph-name="uniFE8F" unicode="&#x628;" horiz-adv-x="1832" arabic-form="isolated" 
d="M921 186q137 0 207 6q429 40 444 144q9 69 -5 202q-13 132 -39 214l157 39q50 -203 50 -349q-1 -144 -36 -220q-103 -222 -792 -222q-340 0 -509 71q-273 113 -298 396q-12 133 31 285l142 -38q-21 -141 -18 -207q12 -259 339 -306q110 -16 327 -15zM979.904 -209.011
l88.8047 -88.8057q28.8887 -27.8184 1.07031 -55.6367l-93.085 -93.0859q-29.959 -29.958 -58.8477 0l-93.085 92.0156q-27.8184 28.8887 3.20996 59.917l86.665 86.666q32.0986 32.0977 65.2676 -1.07031z" />
    <glyph glyph-name="uniFE90" unicode="&#x628;" horiz-adv-x="2132" arabic-form="final" 
d="M2139 185q48 0 48 -77v-34q0 -74 -48 -74l-63 1q-235 2 -338 219q-52 -61 -190 -125q-200 -95 -641 -95q-340 0 -509 71q-273 113 -298 396q-12 133 31 285l142 -38q-21 -141 -18 -207q12 -259 339 -306q103 -15 327 -15q412 0 582 80q198 94 226 310h121
q14 -179 41 -253q49 -135 208 -137zM969.904 -209.011l88.8047 -88.8057q28.8887 -27.8184 1.07031 -55.6367l-93.085 -93.0859q-29.959 -29.958 -58.8477 0l-93.085 92.0156q-27.8184 28.8887 3.20996 59.917l86.665 86.666q32.0986 32.0977 65.2676 -1.07031z" />
    <glyph glyph-name="uniFE91" unicode="&#x628;" horiz-adv-x="640" arabic-form="initial" 
d="M441 80q-94 -80 -356 -80h-87q-50 0 -50 74v34q0 77 48 77h93q93 0 120 4q116 16 146 88q21 50 21 137q0 154 -39 314l151 34q53 -154 53 -336q0 -258 -100 -346zM264.904 -209.011l88.8047 -88.8057q28.8887 -27.8184 1.07031 -55.6367l-93.085 -93.0859
q-29.959 -29.958 -58.8477 0l-93.085 92.0156q-27.8184 28.8887 3.20996 59.917l86.665 86.666q32.0986 32.0977 65.2676 -1.07031z" />
    <glyph glyph-name="uniFE92" unicode="&#x628;" horiz-adv-x="738" arabic-form="medial" 
d="M750 0h-43q-156 0 -276 130q-117 -130 -302 -130h-135q-46 0 -46 74v34q0 77 46 77h139q213 0 217 182l5 225l154 26l9 -251q6 -182 192 -182h40q48 0 48 -77v-34q0 -74 -48 -74zM251.904 -209.011l88.8047 -88.8057q28.8887 -27.8184 1.07031 -55.6367l-93.085 -93.0859
q-29.959 -29.958 -58.8477 0l-93.085 92.0156q-27.8184 28.8887 3.20996 59.917l86.665 86.666q32.0986 32.0977 65.2676 -1.07031z" />
    <glyph glyph-name="uniFE93" unicode="&#x629;" horiz-adv-x="915" arabic-form="isolated" 
d="M449 651q-191 -174 -190 -330q1 -140 199 -140q203 0 204 131q2 157 -213 339zM459 4q-161 0 -257 75q-102 79 -103 238q-2 195 230 444l-36 31l100 141q426 -338 429 -616q2 -159 -116 -249q-85 -65 -247 -64zM639.657 1401.99l88.8057 -88.8057
q27.8184 -27.8184 1.07031 -55.6367l-93.0859 -93.0859q-29.958 -29.958 -59.917 0l-93.085 92.0156q-27.8184 28.8887 4.2793 59.917l86.666 86.666q32.0986 32.0977 65.2666 -1.07031zM318.674 1401.99l88.8047 -88.8057q27.8193 -27.8184 1.07031 -55.6367
l-93.085 -93.0859q-29.959 -29.958 -59.917 0l-93.0859 92.0156q-27.8184 28.8887 4.28027 59.917l86.665 86.666q32.0986 32.0977 65.2676 -1.07031z" />
    <glyph glyph-name="uniFE94" unicode="&#x629;" horiz-adv-x="1144" arabic-form="final" 
d="M1151 185q48 0 48 -77v-34q0 -74 -48 -74h-48q-296 0 -346 237q-522 -82 -638 139q-20 38 -22 89q-10 279 586 394q0 13 -14 118l157 38l68 -597q26 -232 210 -232zM739 412q-16 166 -35 285q-426 -79 -441 -197q-11 -84 80 -102q132 -27 396 14zM884.657 1419.99
l88.8057 -88.8057q27.8184 -27.8184 1.07031 -55.6367l-93.0859 -93.0859q-29.958 -29.958 -59.917 0l-93.085 92.0156q-27.8184 28.8887 4.2793 59.917l86.666 86.666q32.0986 32.0977 65.2666 -1.07031zM563.674 1419.99l88.8047 -88.8057
q27.8193 -27.8184 1.07031 -55.6367l-93.085 -93.0859q-29.959 -29.958 -59.917 0l-93.0859 92.0156q-27.8184 28.8887 4.28027 59.917l86.665 86.666q32.0986 32.0977 65.2676 -1.07031z" />
    <glyph glyph-name="uniFE95" unicode="&#x62a;" horiz-adv-x="1832" arabic-form="isolated" 
d="M921 186q137 0 207 6q429 40 444 144q9 69 -5 202q-13 132 -39 214l157 39q50 -203 50 -349q-1 -144 -36 -220q-103 -222 -792 -222q-340 0 -509 71q-273 113 -298 396q-12 133 31 285l142 -38q-21 -141 -18 -207q12 -259 339 -306q110 -16 327 -15zM1088.66 1106.99
l88.8057 -88.8057q27.8184 -27.8184 1.07031 -55.6367l-93.0859 -93.0859q-29.958 -29.958 -59.917 0l-93.085 92.0156q-27.8184 28.8887 4.2793 59.917l86.666 86.666q32.0986 32.0977 65.2666 -1.07031zM767.674 1106.99l88.8047 -88.8057
q27.8193 -27.8184 1.07031 -55.6367l-93.085 -93.0859q-29.959 -29.958 -59.917 0l-93.0859 92.0156q-27.8184 28.8887 4.28027 59.917l86.665 86.666q32.0986 32.0977 65.2676 -1.07031z" />
    <glyph glyph-name="uniFE96" unicode="&#x62a;" horiz-adv-x="2132" arabic-form="final" 
d="M2139 185q48 0 48 -77v-34q0 -74 -48 -74l-63 1q-235 2 -338 219q-52 -61 -190 -125q-200 -95 -641 -95q-340 0 -509 71q-273 113 -298 396q-12 133 31 285l142 -38q-21 -141 -18 -207q12 -259 339 -306q103 -15 327 -15q412 0 582 80q198 94 226 310h121
q14 -179 41 -253q49 -135 208 -137zM1163.66 1070.99l88.8057 -88.8057q27.8184 -27.8184 1.07031 -55.6367l-93.0859 -93.0859q-29.958 -29.958 -59.917 0l-93.085 92.0156q-27.8184 28.8887 4.2793 59.917l86.666 86.666q32.0986 32.0977 65.2666 -1.07031z
M842.674 1070.99l88.8047 -88.8057q27.8193 -27.8184 1.07031 -55.6367l-93.085 -93.0859q-29.959 -29.958 -59.917 0l-93.0859 92.0156q-27.8184 28.8887 4.28027 59.917l86.665 86.666q32.0986 32.0977 65.2676 -1.07031z" />
    <glyph glyph-name="uniFE97" unicode="&#x62a;" horiz-adv-x="650" arabic-form="initial" 
d="M441 80q-94 -80 -356 -80h-87q-50 0 -50 74v34q0 77 48 77h93q93 0 120 4q116 16 146 88q21 50 21 137q0 154 -39 314l151 34q53 -154 53 -336q0 -258 -100 -346zM491.657 1205.99l88.8057 -88.8057q27.8184 -27.8184 1.07031 -55.6367l-93.0859 -93.0859
q-29.958 -29.958 -59.917 0l-93.085 92.0156q-27.8184 28.8887 4.2793 59.917l86.666 86.666q32.0986 32.0977 65.2666 -1.07031zM170.674 1205.99l88.8047 -88.8057q27.8193 -27.8184 1.07031 -55.6367l-93.085 -93.0859q-29.959 -29.958 -59.917 0l-93.0859 92.0156
q-27.8184 28.8887 4.28027 59.917l86.665 86.666q32.0986 32.0977 65.2676 -1.07031z" />
    <glyph glyph-name="uniFE98" unicode="&#x62a;" horiz-adv-x="744" arabic-form="medial" 
d="M750 0h-43q-156 0 -276 130q-117 -130 -302 -130h-135q-46 0 -46 74v34q0 77 46 77h139q213 0 217 182l5 225l154 26l9 -251q6 -182 192 -182h40q48 0 48 -77v-34q0 -74 -48 -74zM504.657 1076.99l88.8057 -88.8057q27.8184 -27.8184 1.07031 -55.6367l-93.0859 -93.0859
q-29.958 -29.958 -59.917 0l-93.085 92.0156q-27.8184 28.8887 4.2793 59.917l86.666 86.666q32.0986 32.0977 65.2666 -1.07031zM183.674 1076.99l88.8047 -88.8057q27.8193 -27.8184 1.07031 -55.6367l-93.085 -93.0859q-29.959 -29.958 -59.917 0l-93.0859 92.0156
q-27.8184 28.8887 4.28027 59.917l86.665 86.666q32.0986 32.0977 65.2676 -1.07031z" />
    <glyph glyph-name="uniFE99" unicode="&#x62b;" horiz-adv-x="1832" arabic-form="isolated" 
d="M921 186q137 0 207 6q429 40 444 144q9 69 -5 202q-13 132 -39 214l157 39q50 -203 50 -349q-1 -144 -36 -220q-103 -222 -792 -222q-340 0 -509 71q-273 113 -298 396q-12 133 31 285l142 -38q-21 -141 -18 -207q12 -259 339 -306q110 -16 327 -15zM1097.73 1039.08
l88.8057 -88.8057q27.8184 -27.8184 0 -55.6377l-92.0156 -93.085q-29.959 -29.958 -59.917 0l-93.0859 93.085q-27.8184 27.8193 3.20996 58.8477l86.666 86.666q33.168 32.0977 66.3369 -1.07031zM776.743 1039.08l88.8057 -88.8057q27.8184 -27.8184 0 -55.6377
l-92.0156 -93.085q-29.958 -29.958 -59.917 0l-93.085 93.085q-27.8184 27.8193 3.20996 58.8477l86.665 86.666q33.1689 32.0977 66.3369 -1.07031zM937.235 1293.73l88.8057 -88.8057q27.8184 -27.8184 0 -55.6377l-93.0859 -93.085q-28.8887 -29.959 -58.8467 0
l-93.085 93.085q-27.8193 27.8193 3.20898 58.8477l86.666 86.665q33.168 32.0986 66.3369 -1.06934z" />
    <glyph glyph-name="uniFE9A" unicode="&#x62b;" horiz-adv-x="2132" arabic-form="final" 
d="M2139 185q48 0 48 -77v-34q0 -74 -48 -74l-63 1q-235 2 -338 219q-52 -61 -190 -125q-200 -95 -641 -95q-340 0 -509 71q-273 113 -298 396q-12 133 31 285l142 -38q-21 -141 -18 -207q12 -259 339 -306q103 -15 327 -15q412 0 582 80q198 94 226 310h121
q14 -179 41 -253q49 -135 208 -137zM1137.73 978.08l88.8057 -88.8057q27.8184 -27.8184 0 -55.6377l-92.0156 -93.085q-29.959 -29.958 -59.917 0l-93.0859 93.085q-27.8184 27.8193 3.20996 58.8477l86.666 86.666q33.168 32.0977 66.3369 -1.07031zM816.743 978.08
l88.8057 -88.8057q27.8184 -27.8184 0 -55.6377l-92.0156 -93.085q-29.958 -29.958 -59.917 0l-93.085 93.085q-27.8184 27.8193 3.20996 58.8477l86.665 86.666q33.1689 32.0977 66.3369 -1.07031zM977.235 1232.73l88.8057 -88.8057q27.8184 -27.8184 0 -55.6377
l-93.0859 -93.085q-28.8887 -29.959 -58.8467 0l-93.085 93.085q-27.8193 27.8193 3.20898 58.8477l86.666 86.665q33.168 32.0986 66.3369 -1.06934z" />
    <glyph glyph-name="uniFE9B" unicode="&#x62b;" horiz-adv-x="649" arabic-form="initial" 
d="M441 80q-94 -80 -356 -80h-87q-50 0 -50 74v34q0 77 48 77h93q93 0 120 4q116 16 146 88q21 50 21 137q0 154 -39 314l151 34q53 -154 53 -336q0 -258 -100 -346zM491.728 1207.08l88.8057 -88.8057q27.8184 -27.8184 0 -55.6377l-92.0156 -93.085
q-29.959 -29.958 -59.917 0l-93.0859 93.085q-27.8184 27.8193 3.20996 58.8477l86.666 86.666q33.168 32.0977 66.3369 -1.07031zM170.743 1207.08l88.8057 -88.8057q27.8184 -27.8184 0 -55.6377l-92.0156 -93.085q-29.958 -29.958 -59.917 0l-93.085 93.085
q-27.8184 27.8193 3.20996 58.8477l86.665 86.666q33.1689 32.0977 66.3369 -1.07031zM331.235 1461.73l88.8057 -88.8057q27.8184 -27.8184 0 -55.6377l-93.0859 -93.085q-28.8887 -29.959 -58.8467 0l-93.085 93.085q-27.8193 27.8193 3.20898 58.8477l86.666 86.665
q33.168 32.0986 66.3369 -1.06934z" />
    <glyph glyph-name="uniFE9C" unicode="&#x62b;" horiz-adv-x="744" arabic-form="medial" 
d="M750 0h-43q-156 0 -276 130q-117 -130 -302 -130h-135q-46 0 -46 74v34q0 77 46 77h139q213 0 217 182l5 225l154 26l9 -251q6 -182 192 -182h40q48 0 48 -77v-34q0 -74 -48 -74zM503.728 1070.08l88.8057 -88.8057q27.8184 -27.8184 0 -55.6377l-92.0156 -93.085
q-29.959 -29.958 -59.917 0l-93.0859 93.085q-27.8184 27.8193 3.20996 58.8477l86.666 86.666q33.168 32.0977 66.3369 -1.07031zM182.743 1070.08l88.8057 -88.8057q27.8184 -27.8184 0 -55.6377l-92.0156 -93.085q-29.958 -29.958 -59.917 0l-93.085 93.085
q-27.8184 27.8193 3.20996 58.8477l86.665 86.666q33.1689 32.0977 66.3369 -1.07031zM343.235 1324.73l88.8057 -88.8057q27.8184 -27.8184 0 -55.6377l-93.0859 -93.085q-28.8887 -29.959 -58.8467 0l-93.085 93.085q-27.8193 27.8193 3.20898 58.8477l86.666 86.665
q33.168 32.0986 66.3369 -1.06934z" />
    <glyph glyph-name="uniFE9D" unicode="&#x62c;" horiz-adv-x="1280" arabic-form="isolated" 
d="M120 625q172 253 370 249q32 0 71 -10q39 -11 196 -88q158 -76 239 -105q81 -28 174 -40l-25 -176q-128 -10 -150 -12q-245 -30 -404 -121q-326 -188 -326 -462q0 -215 195 -293q116 -46 317 -47q197 0 374 50l44 -155q-208 -64 -416 -64q-259 0 -440 94
q-242 126 -243 412q0 189 103 342q154 232 486 329q96 28 185 35q-69 18 -199 79q-130 62 -165 62q-135 0 -271 -175zM797.904 81.9893l88.8047 -88.8057q28.8887 -27.8184 1.07031 -55.6367l-93.085 -93.0859q-29.959 -29.958 -58.8477 0l-93.085 92.0156
q-27.8184 28.8887 3.20996 59.917l86.665 86.666q32.0986 32.0977 65.2676 -1.07031z" />
    <glyph glyph-name="uniFE9E" unicode="&#x62c;" horiz-adv-x="1333" arabic-form="final" 
d="M864 421q-150 -29 -273 -99q-326 -188 -326 -462q0 -215 195 -293q116 -46 317 -47q197 0 374 50l44 -155q-208 -64 -416 -64q-259 0 -440 94q-242 126 -243 412q0 189 103 342q154 232 486 329q96 28 185 35q-69 18 -199 79q-130 62 -165 62q-135 0 -271 -175l-115 96
q172 253 370 249q32 0 71 -10q39 -11 196 -88q158 -76 239 -105q81 -28 174 -40l-25 -176q-75 -8 -150 -15q4 -259 297 -255h48q48 1 48 -77v-34q0 -73 -48 -74l-43 -1q-418 -5 -433 422zM712.904 33.9893l88.8047 -88.8057q28.8887 -27.8184 1.07031 -55.6367
l-93.085 -93.0859q-29.959 -29.958 -58.8477 0l-93.085 92.0156q-27.8184 28.8887 3.20996 59.917l86.665 86.666q32.0986 32.0977 65.2676 -1.07031z" />
    <glyph glyph-name="uniFE9F" unicode="&#x62c;" horiz-adv-x="1361" arabic-form="initial" 
d="M1265 525l-24 -147q-49 -10 -613 -283q-196 -95 -579 -95h-53q-48 0 -48 74v34q0 77 48 77h44q317 0 462 53q243 88 444 185q-82 9 -262 88q-197 87 -250 94q-10 1 -21 1q-111 0 -233 -161l-115 89q100 141 159 184q89 64 196 64q88 0 224 -60q41 -18 246 -115
q195 -93 375 -82zM713.904 -209.011l88.8047 -88.8057q28.8887 -27.8184 1.07031 -55.6367l-93.085 -93.0859q-29.959 -29.958 -58.8477 0l-93.085 92.0156q-27.8184 28.8887 3.20996 59.917l86.665 86.666q32.0986 32.0977 65.2676 -1.07031z" />
    <glyph glyph-name="uniFEA0" unicode="&#x62c;" horiz-adv-x="1393" arabic-form="medial" 
d="M890 607q198 -93 375 -82l-24 -147q-88 -21 -240 -98q15 -91 290 -94l109 -1q48 0 48 -77v-34q0 -74 -48 -74h-132q-345 0 -412 212q-112 -61 -228 -117q-196 -95 -579 -95h-53q-48 0 -48 74v34q0 77 48 77h44q323 0 462 53q261 97 444 185q-82 9 -262 88
q-197 87 -250 94q-10 1 -21 1q-111 0 -233 -161l-115 89q100 141 159 184q89 64 196 64q97 0 224 -60q122 -57 246 -115zM675.904 -209.011l88.8047 -88.8057q28.8887 -27.8184 1.07031 -55.6367l-93.085 -93.0859q-29.959 -29.958 -58.8477 0l-93.085 92.0156
q-27.8184 28.8887 3.20996 59.917l86.665 86.666q32.0986 32.0977 65.2676 -1.07031z" />
    <glyph glyph-name="uniFEA1" unicode="&#x62d;" horiz-adv-x="1280" arabic-form="isolated" 
d="M120 625q172 253 370 249q32 0 71 -10q39 -11 196 -88q158 -76 239 -105q81 -28 174 -40l-25 -176q-128 -10 -150 -12q-245 -30 -404 -121q-326 -188 -326 -462q0 -215 195 -293q116 -46 317 -47q197 0 374 50l44 -155q-208 -64 -416 -64q-259 0 -440 94
q-242 126 -243 412q0 189 103 342q154 232 486 329q96 28 185 35q-69 18 -199 79q-130 62 -165 62q-135 0 -271 -175z" />
    <glyph glyph-name="uniFEA2" unicode="&#x62d;" horiz-adv-x="1333" arabic-form="final" 
d="M864 421q-150 -29 -273 -99q-326 -188 -326 -462q0 -215 195 -293q116 -46 317 -47q197 0 374 50l44 -155q-208 -64 -416 -64q-259 0 -440 94q-242 126 -243 412q0 189 103 342q154 232 486 329q96 28 185 35q-69 18 -199 79q-130 62 -165 62q-135 0 -271 -175l-115 96
q172 253 370 249q32 0 71 -10q39 -11 196 -88q158 -76 239 -105q81 -28 174 -40l-25 -176q-75 -8 -150 -15q4 -259 297 -255h48q48 1 48 -77v-34q0 -73 -48 -74l-43 -1q-418 -5 -433 422z" />
    <glyph glyph-name="uniFEA3" unicode="&#x62d;" horiz-adv-x="1361" arabic-form="initial" 
d="M1265 525l-24 -147q-49 -10 -613 -283q-196 -95 -579 -95h-53q-48 0 -48 74v34q0 77 48 77h44q317 0 462 53q243 88 444 185q-82 9 -262 88q-197 87 -250 94q-10 1 -21 1q-111 0 -233 -161l-115 89q100 141 159 184q89 64 196 64q88 0 224 -60q41 -18 246 -115
q195 -93 375 -82z" />
    <glyph glyph-name="uniFEA4" unicode="&#x62d;" horiz-adv-x="1393" arabic-form="medial" 
d="M890 607q198 -93 375 -82l-24 -147q-88 -21 -240 -98q15 -91 290 -94l109 -1q48 0 48 -77v-34q0 -74 -48 -74h-132q-345 0 -412 212q-112 -61 -228 -117q-196 -95 -579 -95h-53q-48 0 -48 74v34q0 77 48 77h44q323 0 462 53q261 97 444 185q-82 9 -262 88
q-197 87 -250 94q-10 1 -21 1q-111 0 -233 -161l-115 89q100 141 159 184q89 64 196 64q97 0 224 -60q122 -57 246 -115z" />
    <glyph glyph-name="uniFEA5" unicode="&#x62e;" horiz-adv-x="1280" arabic-form="isolated" 
d="M646.904 1304.99l88.8047 -88.8057q28.8887 -27.8184 1.07031 -55.6367l-93.085 -93.0859q-29.959 -29.958 -58.8477 0l-93.085 92.0156q-27.8184 28.8887 3.20996 59.917l86.665 86.666q32.0986 32.0977 65.2676 -1.07031zM120 625q172 253 370 249q32 0 71 -10
q39 -11 196 -88q158 -76 239 -105q81 -28 174 -40l-25 -176q-128 -10 -150 -12q-245 -30 -404 -121q-326 -188 -326 -462q0 -215 195 -293q116 -46 317 -47q197 0 374 50l44 -155q-208 -64 -416 -64q-259 0 -440 94q-242 126 -243 412q0 189 103 342q154 232 486 329
q96 28 185 35q-69 18 -199 79q-130 62 -165 62q-135 0 -271 -175z" />
    <glyph glyph-name="uniFEA6" unicode="&#x62e;" horiz-adv-x="1333" arabic-form="final" 
d="M864 421q-150 -29 -273 -99q-326 -188 -326 -462q0 -215 195 -293q116 -46 317 -47q197 0 374 50l44 -155q-208 -64 -416 -64q-259 0 -440 94q-242 126 -243 412q0 189 103 342q154 232 486 329q96 28 185 35q-69 18 -199 79q-130 62 -165 62q-135 0 -271 -175l-115 96
q172 253 370 249q32 0 71 -10q39 -11 196 -88q158 -76 239 -105q81 -28 174 -40l-25 -176q-75 -8 -150 -15q4 -259 297 -255h48q48 1 48 -77v-34q0 -73 -48 -74l-43 -1q-418 -5 -433 422zM646.904 1304.99l88.8047 -88.8057q28.8887 -27.8184 1.07031 -55.6367
l-93.085 -93.0859q-29.959 -29.958 -58.8477 0l-93.085 92.0156q-27.8184 28.8887 3.20996 59.917l86.665 86.666q32.0986 32.0977 65.2676 -1.07031z" />
    <glyph glyph-name="uniFEA7" unicode="&#x62e;" horiz-adv-x="1361" arabic-form="initial" 
d="M608.904 1221.99l88.8047 -88.8057q28.8887 -27.8184 1.07031 -55.6367l-93.085 -93.0859q-29.959 -29.958 -58.8477 0l-93.085 92.0156q-27.8184 28.8887 3.20996 59.917l86.665 86.666q32.0986 32.0977 65.2676 -1.07031zM1265 525l-24 -147q-49 -10 -613 -283
q-196 -95 -579 -95h-53q-48 0 -48 74v34q0 77 48 77h44q317 0 462 53q243 88 444 185q-82 9 -262 88q-197 87 -250 94q-10 1 -21 1q-111 0 -233 -161l-115 89q100 141 159 184q89 64 196 64q88 0 224 -60q41 -18 246 -115q195 -93 375 -82z" />
    <glyph glyph-name="uniFEA8" unicode="&#x62e;" horiz-adv-x="1393" arabic-form="medial" 
d="M890 607q198 -93 375 -82l-24 -147q-88 -21 -240 -98q15 -91 290 -94l109 -1q48 0 48 -77v-34q0 -74 -48 -74h-132q-345 0 -412 212q-112 -61 -228 -117q-196 -95 -579 -95h-53q-48 0 -48 74v34q0 77 48 77h44q323 0 462 53q261 97 444 185q-82 9 -262 88
q-197 87 -250 94q-10 1 -21 1q-111 0 -233 -161l-115 89q100 141 159 184q89 64 196 64q97 0 224 -60q122 -57 246 -115zM608.904 1221.99l88.8047 -88.8057q28.8887 -27.8184 1.07031 -55.6367l-93.085 -93.0859q-29.959 -29.958 -58.8477 0l-93.085 92.0156
q-27.8184 28.8887 3.20996 59.917l86.665 86.666q32.0986 32.0977 65.2676 -1.07031z" />
    <glyph glyph-name="uniFEA9" unicode="&#x62f;" horiz-adv-x="992" arabic-form="isolated" 
d="M98 200q113 -38 264 -37q236 0 332 71q49 36 49 82q0 101 -116 252q-95 122 -253 243l95 145q198 -148 305 -298q126 -176 126 -341q0 -161 -149 -251q-140 -84 -402 -83q-134 0 -252 42z" />
    <glyph glyph-name="uniFEAA" unicode="&#x62f;" horiz-adv-x="1162" arabic-form="final" 
d="M1169 185q48 -1 48 -77v-34q0 -74 -48 -74h-31q-161 0 -265 137q-122 -159 -467 -159q-148 0 -310 56v188q130 -56 301 -56q243 0 326 83q21 21 21 49t-16 60l-248 506l149 96l261 -560q98 -209 251 -214z" />
    <glyph glyph-name="uniFEAB" unicode="&#x630;" horiz-adv-x="992" arabic-form="isolated" 
d="M98 200q113 -38 264 -37q236 0 332 71q49 36 49 82q0 101 -116 252q-95 122 -253 243l95 145q198 -148 305 -298q126 -176 126 -341q0 -161 -149 -251q-140 -84 -402 -83q-134 0 -252 42zM453.904 1431.99l88.8047 -88.8057q28.8887 -27.8184 1.07031 -55.6367
l-93.085 -93.0859q-29.959 -29.958 -58.8477 0l-93.085 92.0156q-27.8184 28.8887 3.20996 59.917l86.665 86.666q32.0986 32.0977 65.2676 -1.07031z" />
    <glyph glyph-name="uniFEAC" unicode="&#x630;" horiz-adv-x="1162" arabic-form="final" 
d="M1169 185q48 -1 48 -77v-34q0 -74 -48 -74h-31q-161 0 -265 137q-122 -159 -467 -159q-148 0 -310 56v188q130 -56 301 -56q243 0 326 83q21 21 21 49t-16 60l-248 506l149 96l261 -560q98 -209 251 -214zM556.904 1432.99l88.8047 -88.8057
q28.8887 -27.8184 1.07031 -55.6367l-93.085 -93.0859q-29.959 -29.958 -58.8477 0l-93.085 92.0156q-27.8184 28.8887 3.20996 59.917l86.665 86.666q32.0986 32.0977 65.2676 -1.07031z" />
    <glyph glyph-name="uniFEAD" unicode="&#x631;" horiz-adv-x="867" arabic-form="isolated" 
d="M627 -309q-181 -224 -543 -225h-3l-55 136q548 38 579 472q8 108 -65 381l150 87q81 -231 81 -427q-1 -248 -144 -424z" />
    <glyph glyph-name="uniFEAE" unicode="&#x631;" horiz-adv-x="966" arabic-form="final" 
d="M540 455l150 87q27 -116 68 -280q20 -77 175 -77h40q48 0 48 -77v-34q0 -74 -48 -74h-35q-127 0 -175 50q-79 -582 -679 -584h-3l-55 136q538 38 579 472q9 103 -65 381z" />
    <glyph glyph-name="uniFEAF" unicode="&#x632;" horiz-adv-x="867" arabic-form="isolated" 
d="M627 -309q-181 -224 -543 -225h-3l-55 136q548 38 579 472q8 108 -65 381l150 87q81 -231 81 -427q-1 -248 -144 -424zM577.904 1060.99l88.8047 -88.8057q28.8887 -27.8184 1.07031 -55.6367l-93.085 -93.0859q-29.959 -29.958 -58.8477 0l-93.085 92.0156
q-27.8184 28.8887 3.20996 59.917l86.665 86.666q32.0986 32.0977 65.2676 -1.07031z" />
    <glyph glyph-name="uniFEB0" unicode="&#x632;" horiz-adv-x="966" arabic-form="final" 
d="M577.904 1060.99l88.8047 -88.8057q28.8887 -27.8184 1.07031 -55.6367l-93.085 -93.0859q-29.959 -29.958 -58.8477 0l-93.085 92.0156q-27.8184 28.8887 3.20996 59.917l86.665 86.666q32.0986 32.0977 65.2676 -1.07031zM541 455l150 87q27 -116 68 -280
q20 -77 175 -77h40q48 0 48 -77v-34q0 -74 -48 -74h-35q-127 0 -175 50q-79 -582 -679 -584h-3l-55 136q538 38 579 472q9 103 -65 381z" />
    <glyph glyph-name="uniFEB1" unicode="&#x633;" horiz-adv-x="2384" arabic-form="isolated" 
d="M1457 0q-72 0 -156 51q-3 -567 -611 -569q-259 0 -413 117q-178 137 -177 419q0 207 92 416l149 -55q-80 -195 -80 -344q0 -380 432 -380q461 1 461 398q0 141 -107 358l137 119q1 -1 103 -243q45 -106 174 -106q154 1 172 191l19 191h118l26 -192q26 -195 183 -194
q92 1 128 71q42 82 17 243q-12 80 -39 198l157 50q42 -119 52 -273q31 -462 -313 -466q-186 -2 -270 148q-77 -149 -254 -148z" />
    <glyph glyph-name="uniFEB2" unicode="&#x633;" horiz-adv-x="2555" arabic-form="final" 
d="M1711 149q-79 -149 -235 -149q-91 0 -175 51q-3 -567 -611 -569q-259 0 -413 117q-178 137 -177 419q0 207 92 416l149 -55q-80 -195 -80 -344q0 -380 432 -380q461 1 461 398q0 141 -107 358l137 119q1 -1 103 -243q45 -106 185 -106q142 1 161 192l19 191h118l25 -192
q25 -189 189 -190q152 0 169 191l19 211h118l25 -212q22 -181 200 -185l47 -1q48 -1 48 -77v-34q0 -74 -49 -74h-52q-209 0 -279 137q-75 -135 -245 -135q-202 0 -274 146z" />
    <glyph glyph-name="uniFEB3" unicode="&#x633;" horiz-adv-x="1612" arabic-form="initial" 
d="M-4 185h87q219 0 237 191l17 187h118l25 -187q26 -194 203 -194q153 -1 172 191l19 190h118l25 -191q27 -196 184 -194q91 1 127 71q43 82 18 243q-13 80 -40 198l157 50q42 -119 53 -274q29 -463 -313 -465q-187 -2 -271 147q-77 -148 -253 -148q-205 1 -290 137
q-101 -137 -308 -137h-85q-48 0 -48 74v34q0 77 48 77z" />
    <glyph glyph-name="uniFEB4" unicode="&#x633;" horiz-adv-x="1776" arabic-form="medial" 
d="M1537 371q22 -181 200 -185l46 -1q48 -1 48 -77v-34q0 -74 -48 -74h-52q-209 0 -279 137q-75 -135 -246 -135q-201 0 -274 146q-86 -147 -250 -147q-209 1 -293 136q-101 -137 -308 -137h-85q-48 0 -48 74v34q0 77 48 77h87q219 0 237 191l17 187h118l25 -187
q26 -194 203 -194q153 -1 172 191l19 190h118l25 -192q25 -189 189 -189q152 -1 169 191l19 210h118z" />
    <glyph glyph-name="uniFEB5" unicode="&#x634;" horiz-adv-x="2384" arabic-form="isolated" 
d="M1863.73 1073.08l88.8057 -88.8057q27.8184 -27.8184 0 -55.6377l-92.0156 -93.085q-29.959 -29.958 -59.917 0l-93.0859 93.085q-27.8184 27.8193 3.20996 58.8477l86.666 86.666q33.168 32.0977 66.3369 -1.07031zM1542.74 1073.08l88.8057 -88.8057
q27.8184 -27.8184 0 -55.6377l-92.0156 -93.085q-29.958 -29.958 -59.917 0l-93.085 93.085q-27.8184 27.8193 3.20996 58.8477l86.665 86.666q33.1689 32.0977 66.3369 -1.07031zM1703.24 1327.73l88.8057 -88.8057q27.8184 -27.8184 0 -55.6377l-93.0859 -93.085
q-28.8887 -29.959 -58.8467 0l-93.085 93.085q-27.8193 27.8193 3.20898 58.8477l86.666 86.665q33.168 32.0986 66.3369 -1.06934zM1457 0q-72 0 -156 51q-3 -567 -611 -569q-259 0 -413 117q-178 137 -177 419q0 207 92 416l149 -55q-80 -195 -80 -344q0 -380 432 -380
q461 1 461 398q0 141 -107 358l137 119q1 -1 103 -243q45 -106 174 -106q154 1 172 191l19 191h118l26 -192q26 -195 183 -194q92 1 128 71q42 82 17 243q-12 80 -39 198l157 50q42 -119 52 -273q31 -462 -313 -466q-186 -2 -270 148q-77 -149 -254 -148z" />
    <glyph glyph-name="uniFEB6" unicode="&#x634;" horiz-adv-x="2555" arabic-form="final" 
d="M1863.73 1073.08l88.8057 -88.8057q27.8184 -27.8184 0 -55.6377l-92.0156 -93.085q-29.959 -29.958 -59.917 0l-93.0859 93.085q-27.8184 27.8193 3.20996 58.8477l86.666 86.666q33.168 32.0977 66.3369 -1.07031zM1542.74 1073.08l88.8057 -88.8057
q27.8184 -27.8184 0 -55.6377l-92.0156 -93.085q-29.958 -29.958 -59.917 0l-93.085 93.085q-27.8184 27.8193 3.20996 58.8477l86.665 86.666q33.1689 32.0977 66.3369 -1.07031zM1703.24 1327.73l88.8057 -88.8057q27.8184 -27.8184 0 -55.6377l-93.0859 -93.085
q-28.8887 -29.959 -58.8467 0l-93.085 93.085q-27.8193 27.8193 3.20898 58.8477l86.666 86.665q33.168 32.0986 66.3369 -1.06934zM1711 149q-79 -149 -235 -149q-91 0 -175 51q-3 -567 -611 -569q-259 0 -413 117q-178 137 -177 419q0 207 92 416l149 -55
q-80 -195 -80 -344q0 -380 432 -380q461 1 461 398q0 141 -107 358l137 119q1 -1 103 -243q45 -106 185 -106q142 1 161 192l19 191h118l25 -192q25 -189 189 -190q152 0 169 191l19 211h118l25 -212q22 -181 200 -185l47 -1q48 -1 48 -77v-34q0 -74 -49 -74h-52
q-209 0 -279 137q-75 -135 -245 -135q-202 0 -274 146z" />
    <glyph glyph-name="uniFEB7" unicode="&#x634;" horiz-adv-x="1612" arabic-form="initial" 
d="M1083.73 1073.08l88.8057 -88.8057q27.8184 -27.8184 0 -55.6377l-92.0156 -93.085q-29.959 -29.958 -59.917 0l-93.0859 93.085q-27.8184 27.8193 3.20996 58.8477l86.666 86.666q33.168 32.0977 66.3369 -1.07031zM762.743 1073.08l88.8057 -88.8057
q27.8184 -27.8184 0 -55.6377l-92.0156 -93.085q-29.958 -29.958 -59.917 0l-93.085 93.085q-27.8184 27.8193 3.20996 58.8477l86.665 86.666q33.1689 32.0977 66.3369 -1.07031zM923.235 1327.73l88.8057 -88.8057q27.8184 -27.8184 0 -55.6377l-93.0859 -93.085
q-28.8887 -29.959 -58.8467 0l-93.085 93.085q-27.8193 27.8193 3.20898 58.8477l86.666 86.665q33.168 32.0986 66.3369 -1.06934zM-4 185h87q219 0 237 191l17 187h118l25 -187q26 -194 203 -194q153 -1 172 191l19 190h118l25 -191q27 -196 184 -194q91 1 127 71
q43 82 18 243q-13 80 -40 198l157 50q42 -119 53 -274q29 -463 -313 -465q-187 -2 -271 147q-77 -148 -253 -148q-205 1 -290 137q-101 -137 -308 -137h-85q-48 0 -48 74v34q0 77 48 77z" />
    <glyph glyph-name="uniFEB8" unicode="&#x634;" horiz-adv-x="1776" arabic-form="medial" 
d="M1083.73 1073.08l88.8057 -88.8057q27.8184 -27.8184 0 -55.6377l-92.0156 -93.085q-29.959 -29.958 -59.917 0l-93.0859 93.085q-27.8184 27.8193 3.20996 58.8477l86.666 86.666q33.168 32.0977 66.3369 -1.07031zM762.743 1073.08l88.8057 -88.8057
q27.8184 -27.8184 0 -55.6377l-92.0156 -93.085q-29.958 -29.958 -59.917 0l-93.085 93.085q-27.8184 27.8193 3.20996 58.8477l86.665 86.666q33.1689 32.0977 66.3369 -1.07031zM923.235 1327.73l88.8057 -88.8057q27.8184 -27.8184 0 -55.6377l-93.0859 -93.085
q-28.8887 -29.959 -58.8467 0l-93.085 93.085q-27.8193 27.8193 3.20898 58.8477l86.666 86.665q33.168 32.0986 66.3369 -1.06934zM1537 371q22 -181 200 -185l46 -1q48 -1 48 -77v-34q0 -74 -48 -74h-52q-209 0 -279 137q-75 -135 -246 -135q-201 0 -274 146
q-86 -147 -250 -147q-209 1 -293 136q-101 -137 -308 -137h-85q-48 0 -48 74v34q0 77 48 77h87q219 0 237 191l17 187h118l25 -187q26 -194 203 -194q153 -1 172 191l19 190h118l25 -192q25 -189 189 -189q152 -1 169 191l19 210h118z" />
    <glyph glyph-name="uniFEB9" unicode="&#x635;" horiz-adv-x="2514" arabic-form="isolated" 
d="M1287 287q25 -55 78 -60q368 531 704 530q153 0 247 -88q100 -92 102 -246q1 -187 -161 -309q-152 -116 -528 -115l-196 1q-143 1 -232 51q-3 -567 -611 -569q-259 0 -413 117q-178 137 -177 419q0 207 92 416l149 -55q-80 -195 -80 -344q0 -380 432 -380q461 1 461 398
q0 141 -107 358l137 119q26 -72 103 -243zM1529 187h183q271 0 390 46q149 59 138 195q-4 53 -32 86q-49 64 -144 64q-126 0 -263 -106q-116 -90 -272 -285z" />
    <glyph glyph-name="uniFEBA" unicode="&#x635;" horiz-adv-x="2610" arabic-form="final" 
d="M1727 -1l-194 1q-136 1 -232 51q-3 -567 -611 -569q-259 0 -413 117q-178 137 -177 419q0 207 92 416l149 -55q-80 -195 -80 -344q0 -380 432 -380q461 1 461 398q0 141 -107 358l137 119q19 -50 103 -243q24 -54 78 -62q366 532 702 532q152 0 247 -88q102 -95 101 -246
q0 -132 -71 -238h228h45q48 -1 48 -78v-34q0 -74 -49 -74h-56q-286 0 -359 82q-152 -83 -474 -82zM1527 185h183q266 0 390 48q150 59 138 195q-5 51 -32 86q-49 63 -144 64q-127 0 -263 -106q-112 -87 -272 -287z" />
    <glyph glyph-name="uniFEBB" unicode="&#x635;" horiz-adv-x="1690" arabic-form="initial" 
d="M-4 185h53q203 0 207 184l6 223l153 26l7 -250q4 -121 122 -142q364 532 702 532q153 0 247 -88q100 -92 102 -246q1 -193 -161 -310q-158 -114 -528 -114h-152q-282 0 -414 133q-100 -133 -292 -133h-52q-48 0 -48 74v34q0 77 48 77zM706 186h183q269 0 390 48
q149 58 138 195q-4 49 -32 86q-48 63 -144 63q-126 1 -263 -106q-111 -86 -272 -286z" />
    <glyph glyph-name="uniFEBC" unicode="&#x635;" horiz-adv-x="1789" arabic-form="medial" 
d="M-4 185h53q203 0 207 184l6 223l153 26l7 -250q4 -121 122 -142q365 532 702 532q153 0 247 -88q101 -93 102 -246q0 -132 -72 -238h228l45 -1q48 0 48 -77v-34q0 -74 -48 -74h-57q-285 0 -359 82q-152 -82 -474 -82h-153q-281 0 -413 133q-100 -133 -292 -133h-52
q-48 0 -48 74v34q0 77 48 77zM706 186h183q269 0 390 48q149 58 138 195q-4 49 -32 86q-48 63 -144 63q-126 1 -263 -106q-111 -86 -272 -286z" />
    <glyph glyph-name="uniFEBD" unicode="&#x636;" horiz-adv-x="2514" arabic-form="isolated" 
d="M1922.9 1243.99l88.8047 -88.8057q28.8887 -27.8184 1.07031 -55.6367l-93.085 -93.0859q-29.959 -29.958 -58.8477 0l-93.085 92.0156q-27.8184 28.8887 3.20996 59.917l86.665 86.666q32.0986 32.0977 65.2676 -1.07031zM1287 287q25 -55 78 -60q368 531 704 530
q153 0 247 -88q100 -92 102 -246q1 -187 -161 -309q-152 -116 -528 -115l-196 1q-143 1 -232 51q-3 -567 -611 -569q-259 0 -413 117q-178 137 -177 419q0 207 92 416l149 -55q-80 -195 -80 -344q0 -380 432 -380q461 1 461 398q0 141 -107 358l137 119q26 -72 103 -243z
M1529 187h183q271 0 390 46q149 59 138 195q-4 53 -32 86q-49 64 -144 64q-126 0 -263 -106q-116 -90 -272 -285z" />
    <glyph glyph-name="uniFEBE" unicode="&#x636;" horiz-adv-x="2610" arabic-form="final" 
d="M1922.9 1243.99l88.8047 -88.8057q28.8887 -27.8184 1.07031 -55.6367l-93.085 -93.0859q-29.959 -29.958 -58.8477 0l-93.085 92.0156q-27.8184 28.8887 3.20996 59.917l86.665 86.666q32.0986 32.0977 65.2676 -1.07031zM1727 -1l-194 1q-136 1 -232 51
q-3 -567 -611 -569q-259 0 -413 117q-178 137 -177 419q0 207 92 416l149 -55q-80 -195 -80 -344q0 -380 432 -380q461 1 461 398q0 141 -107 358l137 119q19 -50 103 -243q24 -54 78 -62q366 532 702 532q152 0 247 -88q102 -95 101 -246q0 -132 -71 -238h228h45
q48 -1 48 -78v-34q0 -74 -49 -74h-56q-286 0 -359 82q-152 -83 -474 -82zM1527 185h183q266 0 390 48q150 59 138 195q-5 51 -32 86q-49 63 -144 64q-127 0 -263 -106q-112 -87 -272 -287z" />
    <glyph glyph-name="uniFEBF" unicode="&#x636;" horiz-adv-x="1690" arabic-form="initial" 
d="M-4 185h53q203 0 207 184l6 223l153 26l7 -250q4 -121 122 -142q364 532 702 532q153 0 247 -88q100 -92 102 -246q1 -193 -161 -310q-158 -114 -528 -114h-152q-282 0 -414 133q-100 -133 -292 -133h-52q-48 0 -48 74v34q0 77 48 77zM706 186h183q269 0 390 48
q149 58 138 195q-4 49 -32 86q-48 63 -144 63q-126 1 -263 -106q-111 -86 -272 -286zM1102.9 1243.99l88.8047 -88.8057q28.8887 -27.8184 1.07031 -55.6367l-93.085 -93.0859q-29.959 -29.958 -58.8477 0l-93.085 92.0156q-27.8184 28.8887 3.20996 59.917l86.665 86.666
q32.0986 32.0977 65.2676 -1.07031z" />
    <glyph glyph-name="uniFEC0" unicode="&#x636;" horiz-adv-x="1789" arabic-form="medial" 
d="M1102.9 1243.99l88.8047 -88.8057q28.8887 -27.8184 1.07031 -55.6367l-93.085 -93.0859q-29.959 -29.958 -58.8477 0l-93.085 92.0156q-27.8184 28.8887 3.20996 59.917l86.665 86.666q32.0986 32.0977 65.2676 -1.07031zM-4 185h53q203 0 207 184l6 223l153 26l7 -250
q4 -121 122 -142q365 532 702 532q153 0 247 -88q101 -93 102 -246q0 -132 -72 -238h228l45 -1q48 0 48 -77v-34q0 -74 -48 -74h-57q-285 0 -359 82q-152 -82 -474 -82h-153q-281 0 -413 133q-100 -133 -292 -133h-52q-48 0 -48 74v34q0 77 48 77zM706 186h183q269 0 390 48
q149 58 138 195q-4 49 -32 86q-48 63 -144 63q-126 1 -263 -106q-111 -86 -272 -286z" />
    <glyph glyph-name="uniFEC1" unicode="&#x637;" horiz-adv-x="1574" arabic-form="isolated" 
d="M589 186h183q269 0 390 48q149 58 138 195q-4 49 -32 86q-48 63 -144 63q-126 1 -263 -106q-111 -86 -272 -286zM436 256q365 502 693 502q151 0 247 -88q100 -92 102 -246q1 -195 -161 -310q-162 -114 -528 -114h-106q-445 0 -615 32l-1 153h227l-33 1233l175 69v-1231z
" />
    <glyph glyph-name="uniFEC2" unicode="&#x637;" horiz-adv-x="1672" arabic-form="final" 
d="M1263 82q-152 -82 -474 -82h-106q-445 0 -615 32l-1 153h227l-33 1233l175 69v-1231q365 502 693 502q151 0 247 -88q101 -93 102 -246q0 -126 -72 -238h228l45 -1q48 0 48 -77v-34q0 -74 -48 -74h-57q-285 0 -359 82zM589 186h183q266 0 390 48q149 58 138 195
q-4 49 -32 86q-48 63 -144 63q-126 1 -263 -106q-111 -86 -272 -286z" />
    <glyph glyph-name="uniFEC3" unicode="&#x637;" horiz-adv-x="1472" arabic-form="initial" 
d="M-4 185h194l-33 1233l175 69v-1231q364 502 693 502q151 0 247 -88q100 -92 101 -246q2 -195 -160 -310q-163 -114 -528 -114h-689q-48 0 -48 74v34q0 77 48 77zM485 186h183q269 0 390 48q150 60 138 195q-5 52 -32 86q-48 63 -144 63q-126 1 -263 -106
q-112 -86 -272 -286z" />
    <glyph glyph-name="uniFEC4" unicode="&#x637;" horiz-adv-x="1568" arabic-form="medial" 
d="M1159 82q-150 -82 -474 -82h-689q-48 0 -48 74v34q0 77 48 77h194l-33 1233l175 69v-1231q364 502 693 502q151 0 247 -88q101 -93 101 -246q1 -129 -71 -238h228l45 -1q48 0 48 -77v-34q0 -74 -49 -74h-56q-285 0 -359 82zM485 186h183q269 0 390 48q150 60 138 195
q-5 52 -32 86q-48 63 -144 63q-126 1 -263 -106q-112 -86 -272 -286z" />
    <glyph glyph-name="uniFEC5" unicode="&#x638;" horiz-adv-x="1574" arabic-form="isolated" 
d="M993.904 1249.99l88.8047 -88.8057q28.8887 -27.8184 1.07031 -55.6367l-93.085 -93.0859q-29.959 -29.958 -58.8477 0l-93.085 92.0156q-27.8184 28.8887 3.20996 59.917l86.665 86.666q32.0986 32.0977 65.2676 -1.07031zM589 186h183q269 0 390 48q149 58 138 195
q-4 49 -32 86q-48 63 -144 63q-126 1 -263 -106q-111 -86 -272 -286zM436 256q365 502 693 502q151 0 247 -88q100 -92 102 -246q1 -195 -161 -310q-162 -114 -528 -114h-106q-445 0 -615 32l-1 153h227l-33 1233l175 69v-1231z" />
    <glyph glyph-name="uniFEC6" unicode="&#x638;" horiz-adv-x="1672" arabic-form="final" 
d="M1263 82q-152 -82 -474 -82h-106q-445 0 -615 32l-1 153h227l-33 1233l175 69v-1231q365 502 693 502q151 0 247 -88q101 -93 102 -246q0 -126 -72 -238h228l45 -1q48 0 48 -77v-34q0 -74 -48 -74h-57q-285 0 -359 82zM589 186h183q266 0 390 48q149 58 138 195
q-4 49 -32 86q-48 63 -144 63q-126 1 -263 -106q-111 -86 -272 -286zM993.904 1249.99l88.8047 -88.8057q28.8887 -27.8184 1.07031 -55.6367l-93.085 -93.0859q-29.959 -29.958 -58.8477 0l-93.085 92.0156q-27.8184 28.8887 3.20996 59.917l86.665 86.666
q32.0986 32.0977 65.2676 -1.07031z" />
    <glyph glyph-name="uniFEC7" unicode="&#x638;" horiz-adv-x="1472" arabic-form="initial" 
d="M-4 185h194l-33 1233l175 69v-1231q364 502 693 502q151 0 247 -88q100 -92 101 -246q2 -195 -160 -310q-163 -114 -528 -114h-689q-48 0 -48 74v34q0 77 48 77zM485 186h183q269 0 390 48q150 60 138 195q-5 52 -32 86q-48 63 -144 63q-126 1 -263 -106
q-112 -86 -272 -286zM891.904 1250.99l88.8047 -88.8057q28.8887 -27.8184 1.07031 -55.6367l-93.085 -93.0859q-29.959 -29.958 -58.8477 0l-93.085 92.0156q-27.8184 28.8887 3.20996 59.917l86.665 86.666q32.0986 32.0977 65.2676 -1.07031z" />
    <glyph glyph-name="uniFEC8" unicode="&#x638;" horiz-adv-x="1568" arabic-form="medial" 
d="M891.904 1250.99l88.8047 -88.8057q28.8887 -27.8184 1.07031 -55.6367l-93.085 -93.0859q-29.959 -29.958 -58.8477 0l-93.085 92.0156q-27.8184 28.8887 3.20996 59.917l86.665 86.666q32.0986 32.0977 65.2676 -1.07031zM1159 82q-150 -82 -474 -82h-689q-48 0 -48 74
v34q0 77 48 77h194l-33 1233l175 69v-1231q364 502 693 502q151 0 247 -88q101 -93 101 -246q1 -129 -71 -238h228l45 -1q48 0 48 -77v-34q0 -74 -49 -74h-56q-285 0 -359 82zM485 186h183q269 0 390 48q150 60 138 195q-5 52 -32 86q-48 63 -144 63q-126 1 -263 -106
q-112 -86 -272 -286z" />
    <glyph glyph-name="uniFEC9" unicode="&#x639;" horiz-adv-x="1370" arabic-form="isolated" 
d="M430 811q-70 -102 20 -209q65 -77 150 -112q17 -8 181 19q21 3 225 36v-167q-252 -18 -460 -125q-281 -144 -280 -402q1 -146 114 -236q114 -92 398 -93q190 0 322 38l44 -156q-166 -51 -364 -51q-408 0 -572 188q-112 128 -110 307q1 201 99 340q102 145 244 211
q-203 111 -202 314q0 120 59 210q105 160 299 160q209 0 331 -168l-92 -114q-98 100 -218 103q-123 3 -188 -93z" />
    <glyph glyph-name="uniFECA" unicode="&#x639;" horiz-adv-x="1218" arabic-form="final" 
d="M1225 185q48 0 48 -77v-34q0 -74 -48 -74l-54 1q-364 3 -602 238l-11 -2q-288 -156 -293 -377q-3 -153 114 -247q114 -92 398 -93q146 0 293 42l44 -156q-181 -55 -335 -55q-228 0 -390 68q-293 123 -293 438q1 277 361 491q-287 198 -280 334q11 226 445 227
q429 0 430 -236q0 -173 -334 -350q170 -135 455 -137zM889 649q0 96 -267 96q-257 -1 -255 -69q2 -77 235 -241q116 51 212 127q75 58 75 87z" />
    <glyph glyph-name="uniFECB" unicode="&#x639;" horiz-adv-x="974" arabic-form="initial" 
d="M-4 185l254 1q-125 110 -124 285q0 120 59 210q106 160 309 160q209 0 331 -168l-92 -114q-100 102 -218 103q-139 0 -198 -93q-25 -40 -25 -105q0 -43 19 -91q36 -91 146 -156q17 -10 52 -10q46 0 124 17l245 54v-168q-428 -110 -781 -110h-101q-48 0 -48 74v34
q0 77 48 77z" />
    <glyph glyph-name="uniFECC" unicode="&#x639;" horiz-adv-x="1079" arabic-form="medial" 
d="M-4 185h87q247 0 344 54q-314 138 -315 320q0 19 5 39q34 152 263 186q87 13 177 13q87 0 165 -10q201 -24 258 -135q20 -40 20 -81q1 -173 -292 -333q118 -53 314 -53h71q48 0 48 -77v-34q0 -74 -48 -74l-76 1q-263 1 -448 142q-186 -143 -492 -143h-81q-48 0 -48 74v34
q0 77 48 77zM840 535q-1 96 -285 96q-284 -1 -284 -84q-1 -49 200 -159q51 -28 101 -52q94 40 196 114q71 52 72 85z" />
    <glyph glyph-name="uniFECD" unicode="&#x63a;" horiz-adv-x="1227" arabic-form="isolated" 
d="M430 811q-70 -102 20 -209q65 -77 150 -112q17 -8 181 19q21 3 225 36v-167q-252 -18 -460 -125q-281 -144 -280 -402q1 -146 114 -236q114 -92 398 -93q190 0 322 38l44 -156q-166 -51 -364 -51q-408 0 -572 188q-112 128 -110 307q1 201 99 340q102 145 244 211
q-203 111 -202 314q0 120 59 210q105 160 299 160q209 0 331 -168l-92 -114q-98 100 -218 103q-123 3 -188 -93zM623.904 1515.99l88.8047 -88.8057q28.8887 -27.8184 1.07031 -55.6367l-93.085 -93.0859q-29.959 -29.958 -58.8477 0l-93.085 92.0156
q-27.8184 28.8887 3.20996 59.917l86.665 86.666q32.0986 32.0977 65.2676 -1.07031z" />
    <glyph glyph-name="uniFECE" unicode="&#x63a;" horiz-adv-x="1218" arabic-form="final" 
d="M1225 185q48 0 48 -77v-34q0 -74 -48 -74l-54 1q-364 3 -602 238l-11 -2q-288 -156 -293 -377q-3 -153 114 -247q114 -92 398 -93q146 0 293 42l44 -156q-181 -55 -335 -55q-228 0 -390 68q-293 123 -293 438q1 277 361 491q-287 198 -280 334q11 226 445 227
q429 0 430 -236q0 -173 -334 -350q170 -135 455 -137zM889 649q0 96 -267 96q-257 -1 -255 -69q2 -77 235 -241q116 51 212 127q75 58 75 87zM624.904 1381.99l88.8047 -88.8057q28.8887 -27.8184 1.07031 -55.6367l-93.085 -93.0859q-29.959 -29.958 -58.8477 0
l-93.085 92.0156q-27.8184 28.8887 3.20996 59.917l86.665 86.666q32.0986 32.0977 65.2676 -1.07031z" />
    <glyph glyph-name="uniFECF" unicode="&#x63a;" horiz-adv-x="974" arabic-form="initial" 
d="M-4 185l254 1q-125 110 -124 285q0 120 59 210q106 160 309 160q209 0 331 -168l-92 -114q-100 102 -218 103q-139 0 -198 -93q-25 -40 -25 -105q0 -43 19 -91q36 -91 146 -156q17 -10 52 -10q46 0 124 17l245 54v-168q-428 -110 -781 -110h-101q-48 0 -48 74v34
q0 77 48 77zM522.904 1331.99l88.8047 -88.8057q28.8887 -27.8184 1.07031 -55.6367l-93.085 -93.0859q-29.959 -29.958 -58.8477 0l-93.085 92.0156q-27.8184 28.8887 3.20996 59.917l86.665 86.666q32.0986 32.0977 65.2676 -1.07031z" />
    <glyph glyph-name="uniFED0" unicode="&#x63a;" horiz-adv-x="1079" arabic-form="medial" 
d="M-4 185h87q247 0 344 54q-314 138 -315 320q0 19 5 39q34 152 263 186q87 13 177 13q87 0 165 -10q201 -24 258 -135q20 -40 20 -81q1 -173 -292 -333q118 -53 314 -53h71q48 0 48 -77v-34q0 -74 -48 -74l-76 1q-263 1 -448 142q-186 -143 -492 -143h-81q-48 0 -48 74v34
q0 77 48 77zM840 535q-1 96 -285 96q-284 -1 -284 -84q-1 -49 200 -159q51 -28 101 -52q94 40 196 114q71 52 72 85zM588.904 1295.99l88.8047 -88.8057q28.8887 -27.8184 1.07031 -55.6367l-93.085 -93.0859q-29.959 -29.958 -58.8477 0l-93.085 92.0156
q-27.8184 28.8887 3.20996 59.917l86.665 86.666q32.0986 32.0977 65.2676 -1.07031z" />
    <glyph glyph-name="uniFED1" unicode="&#x641;" horiz-adv-x="1857" arabic-form="isolated" 
d="M921 186q353 0 484 40q168 51 192 196q-69 -49 -217 -49q-159 1 -239 112q-53 73 -52 180q1 132 54 237q93 186 274 186q169 0 253 -144q92 -155 90 -390q-1 -134 -26 -219q-64 -212 -286 -283q-161 -52 -541 -52q-340 0 -509 71q-273 113 -298 396q-12 133 31 285
l142 -38q-21 -141 -18 -207q12 -259 339 -306q103 -15 327 -15zM1399 546q123 -1 201 57q7 26 -11 123q-35 190 -163 190q-137 0 -178 -172q-9 -39 -10 -71q1 -126 161 -127zM1440.9 1506.99l88.8047 -88.8057q28.8887 -27.8184 1.07031 -55.6367l-93.085 -93.0859
q-29.959 -29.958 -58.8477 0l-93.085 92.0156q-27.8184 28.8887 3.20996 59.917l86.665 86.666q32.0986 32.0977 65.2676 -1.07031z" />
    <glyph glyph-name="uniFED2" unicode="&#x641;" horiz-adv-x="1992" arabic-form="final" 
d="M921 186q107 -1 201 5q55 3 214 23q-99 65 -141 163q-27 62 -27 129q0 48 14 99q21 81 86 150q106 113 252 113q156 0 259 -115q57 -62 77 -149q10 -46 10 -89q0 -64 -23 -121q-43 -108 -158 -182q39 -27 223 -27h141q48 0 48 -77v-34q0 -74 -48 -74h-137
q-246 0 -396 113q-217 -113 -609 -113q-340 0 -509 71q-273 113 -298 396q-12 133 31 285l142 -38q-21 -141 -18 -207q12 -259 339 -306q103 -15 327 -15zM1331 504q0 -77 54 -131q86 -88 131 -88q46 0 133 88q54 55 54 134q0 78 -55 133q-65 65 -131 65q-67 0 -132 -65
q-54 -54 -54 -136zM1539.9 1323.99l88.8047 -88.8057q28.8887 -27.8184 1.07031 -55.6367l-93.085 -93.0859q-29.959 -29.958 -58.8477 0l-93.085 92.0156q-27.8184 28.8887 3.20996 59.917l86.665 86.666q32.0986 32.0977 65.2676 -1.07031z" />
    <glyph glyph-name="uniFED3" unicode="&#x641;" horiz-adv-x="874" arabic-form="initial" 
d="M433 1071q169 0 254 -144q89 -151 90 -390q1 -359 -179 -473q-101 -64 -344 -64h-258q-48 0 -48 74v34q0 77 48 77h264q212 0 267 45q83 64 87 178q-73 -52 -218 -51q-157 0 -239 112q-53 72 -52 179q2 133 55 238q93 186 273 185zM415 529q123 -1 202 57q6 26 -12 123
q-35 190 -163 190q-136 1 -178 -172q-9 -39 -10 -71q1 -126 161 -127zM463.904 1507.99l88.8047 -88.8057q28.8887 -27.8184 1.07031 -55.6367l-93.085 -93.0859q-29.959 -29.958 -58.8477 0l-93.085 92.0156q-27.8184 28.8887 3.20996 59.917l86.665 86.666
q32.0986 32.0977 65.2676 -1.07031z" />
    <glyph glyph-name="uniFED4" unicode="&#x641;" horiz-adv-x="1070" arabic-form="medial" 
d="M-4 185h124q197 0 244 29q-99 65 -141 163q-27 62 -27 129q0 48 14 99q21 81 86 150q106 113 252 113q156 0 259 -115q57 -62 77 -149q10 -46 10 -89q0 -64 -23 -121q-43 -108 -158 -182q56 -27 223 -27h141q48 0 48 -77v-34q0 -74 -48 -74h-137q-246 0 -396 113
q-132 -113 -405 -113h-143q-48 0 -48 74v34q0 77 48 77zM359 504q0 -77 54 -131q86 -88 131.5 -88t132.5 88q54 55 54 134q0 78 -55 133q-65 65 -131 65q-67 0 -132 -65q-54 -54 -54 -136zM571.904 1316.99l88.8047 -88.8057q28.8887 -27.8184 1.07031 -55.6367
l-93.085 -93.0859q-29.959 -29.958 -58.8477 0l-93.085 92.0156q-27.8184 28.8887 3.20996 59.917l86.665 86.666q32.0986 32.0977 65.2676 -1.07031z" />
    <glyph glyph-name="uniFED5" unicode="&#x642;" horiz-adv-x="1427" arabic-form="isolated" 
d="M690 -464q-259 0 -413 117q-178 137 -177 419q0 207 93 416l148 -55q-80 -195 -80 -344q0 -380 432 -380q455 1 479 381q-99 -52 -212 -52q-158 0 -240 112q-53 74 -52 180q1 132 54 237q93 186 274 185q166 0 253 -145q80 -135 80 -394q0 -676 -639 -677zM828 409
q-10 -40 -10 -71q0 -128 161 -128q114 0 194 58q0 61 -10 123q-26 190 -163 190q-130 0 -172 -172zM1168.66 1189.99l88.8057 -88.8057q27.8184 -27.8184 1.07031 -55.6367l-93.0859 -93.0859q-29.958 -29.958 -59.917 0l-93.085 92.0156q-27.8184 28.8887 4.2793 59.917
l86.666 86.666q32.0986 32.0977 65.2666 -1.07031zM847.674 1189.99l88.8047 -88.8057q27.8193 -27.8184 1.07031 -55.6367l-93.085 -93.0859q-29.959 -29.958 -59.917 0l-93.0859 92.0156q-27.8184 28.8887 4.28027 59.917l86.665 86.666q32.0986 32.0977 65.2676 -1.07031
z" />
    <glyph glyph-name="uniFED6" unicode="&#x642;" horiz-adv-x="1456" arabic-form="final" 
d="M693 -345q441 -1 482 348q-33 -1 -184 -1q-200 0 -281 104q-64 83 -51 218q20 194 146 318q80 78 186 77q189 -2 279 -190q54 -111 61 -343l132 -1q48 0 48 -77v-34q0 -75 -48 -74l-140 2q-32 -515 -633 -520q-258 0 -413 117q-178 137 -177 419q0 207 92 416l149 -55
q-80 -195 -80 -344q0 -378 432 -380zM981 547q-81 -1 -134 -101q-28 -52 -34 -114q-7 -76 33 -113q38 -33 114 -39q72 -6 216 1q0 367 -195 366zM1170.66 1155.99l88.8057 -88.8057q27.8184 -27.8184 1.07031 -55.6367l-93.0859 -93.0859q-29.958 -29.958 -59.917 0
l-93.085 92.0156q-27.8184 28.8887 4.2793 59.917l86.666 86.666q32.0986 32.0977 65.2666 -1.07031zM849.674 1155.99l88.8047 -88.8057q27.8193 -27.8184 1.07031 -55.6367l-93.085 -93.0859q-29.959 -29.958 -59.917 0l-93.0859 92.0156q-27.8184 28.8887 4.28027 59.917
l86.665 86.666q32.0986 32.0977 65.2676 -1.07031z" />
    <glyph glyph-name="uniFED7" unicode="&#x642;" horiz-adv-x="874" arabic-form="initial" 
d="M433 1071q169 0 254 -144q89 -151 90 -390q1 -359 -179 -473q-101 -64 -344 -64h-258q-48 0 -48 74v34q0 77 48 77h264q212 0 267 45q83 64 87 178q-73 -52 -218 -51q-157 0 -239 112q-53 72 -52 179q2 133 55 238q93 186 273 185zM415 529q123 -1 202 57q6 26 -12 123
q-35 190 -163 190q-136 1 -178 -172q-9 -39 -10 -71q1 -126 161 -127zM611.657 1507.99l88.8057 -88.8057q27.8184 -27.8184 1.07031 -55.6367l-93.0859 -93.0859q-29.958 -29.958 -59.917 0l-93.085 92.0156q-27.8184 28.8887 4.2793 59.917l86.666 86.666
q32.0986 32.0977 65.2666 -1.07031zM290.674 1507.99l88.8047 -88.8057q27.8193 -27.8184 1.07031 -55.6367l-93.085 -93.0859q-29.959 -29.958 -59.917 0l-93.0859 92.0156q-27.8184 28.8887 4.28027 59.917l86.665 86.666q32.0986 32.0977 65.2676 -1.07031z" />
    <glyph glyph-name="uniFED8" unicode="&#x642;" horiz-adv-x="1070" arabic-form="medial" 
d="M-4 185h124q197 0 244 29q-99 65 -141 163q-27 62 -27 129q0 48 14 99q21 81 86 150q106 113 252 113q156 0 259 -115q57 -62 77 -149q10 -46 10 -89q0 -64 -23 -121q-43 -108 -158 -182q56 -27 223 -27h141q48 0 48 -77v-34q0 -74 -48 -74h-137q-246 0 -396 113
q-132 -113 -405 -113h-143q-48 0 -48 74v34q0 77 48 77zM359 504q0 -77 54 -131q86 -88 131.5 -88t132.5 88q54 55 54 134q0 78 -55 133q-65 65 -131 65q-67 0 -132 -65q-54 -54 -54 -136zM723.657 1318.99l88.8057 -88.8057q27.8184 -27.8184 1.07031 -55.6367
l-93.0859 -93.0859q-29.958 -29.958 -59.917 0l-93.085 92.0156q-27.8184 28.8887 4.2793 59.917l86.666 86.666q32.0986 32.0977 65.2666 -1.07031zM402.674 1318.99l88.8047 -88.8057q27.8193 -27.8184 1.07031 -55.6367l-93.085 -93.0859q-29.959 -29.958 -59.917 0
l-93.0859 92.0156q-27.8184 28.8887 4.28027 59.917l86.665 86.666q32.0986 32.0977 65.2676 -1.07031z" />
    <glyph glyph-name="uniFED9" unicode="&#x643;" horiz-adv-x="1876" arabic-form="isolated" 
d="M733 785q68 -9 127 -9q66 0 106 16q78 31 78 77q-1 24 -21 39t-67 23q-70 11 -106 51t-34 94q2 103 91 148q84 43 206 50l17 1v-93l-15 -1q-75 -5 -112 -19q-91 -34 -91 -82q0 -42 42 -57q24 -9 70 -15q116 -18 116 -131q0 -98 -113 -162q-108 -62 -299 -30l-13 2v100z
M1598 466l-37 953l177 68v-1053q0 -23 -3 -59q-16 -229 -325 -326q-152 -47 -497 -48q-346 -1 -515 70q-273 116 -296 392q-12 143 29 289l142 -38q-23 -147 -20 -207q14 -280 388 -312q168 -14 554 3q413 17 403 268z" />
    <glyph glyph-name="uniFEDA" unicode="&#x643;" horiz-adv-x="1956" arabic-form="final" 
d="M1963 0l-39 1q-187 2 -313 127q-121 -73 -288 -101q-162 -26 -410 -26q-352 0 -501 64q-148 62 -225 162q-74 97 -86 239q-11 140 30 286l142 -38q-23 -147 -21 -207q14 -259 341 -306q81 -12 286 -13q212 0 323 5q406 18 396 273l-38 954l179 68v-1054q-3 -96 -27 -167
q60 -78 225 -81l26 -1q48 0 48 -77v-34q0 -75 -48 -74zM733 785q68 -9 127 -9q66 0 106 16q78 31 78 77q-1 24 -21 39t-67 23q-70 11 -106 51t-34 94q2 103 91 148q84 43 206 50l17 1v-93l-15 -1q-75 -5 -112 -19q-91 -34 -91 -82q0 -42 42 -57q24 -9 70 -15
q116 -18 116 -131q0 -98 -113 -162q-108 -62 -299 -30l-13 2v100z" />
    <glyph glyph-name="uniFEDB" unicode="&#x643;" horiz-adv-x="926" arabic-form="initial" 
d="M-4 185l259 1q226 0 256 143q17 82 -64 171l-383 425q-4 82 12 153q11 50 60 75l738 374v-184l-657 -338l348 -385q133 -147 94 -334q-60 -286 -438 -286h-225q-48 0 -48 74v34q0 77 48 77z" />
    <glyph glyph-name="uniFEDC" unicode="&#x643;" horiz-adv-x="1090" arabic-form="medial" 
d="M874 1527v-184l-657 -338l650 -721q87 -97 185 -98l45 -1q48 0 48 -77v-34q0 -75 -48 -74l-49 1q-190 2 -395 272q-34 -273 -430 -273h-227q-48 0 -48 74v34q0 77 48 77l259 1q224 0 256 143q18 80 -64 171l-383 425q-4 82 12 153q11 50 60 75z" />
    <glyph glyph-name="uniFEDD" unicode="&#x644;" horiz-adv-x="1369" arabic-form="isolated" 
d="M663 -315q428 0 420 457l-24 1273l172 71v-1080q0 -2 -2 -304q4 -589 -569 -590q-236 0 -381 111q-190 147 -189 425q0 184 102 416l149 -55q-80 -195 -80 -344q0 -153 90 -263q95 -116 312 -117z" />
    <glyph glyph-name="uniFEDE" unicode="&#x644;" horiz-adv-x="1500" arabic-form="final" 
d="M1083 142l-24 1273l172 71v-1071q0 -227 224 -229l52 -1q48 0 48 -77v-34q0 -75 -48 -74l-38 1q-178 2 -244 66q-5 -553 -565 -555q-236 0 -381 111q-190 147 -189 425q0 184 102 416l149 -55q-80 -195 -80 -344q0 -153 90 -263q95 -116 312 -117q428 0 420 457z" />
    <glyph glyph-name="uniFEDF" unicode="&#x644;" horiz-adv-x="561" arabic-form="initial" 
d="M-4 185h42q250 0 241 295l-30 931l174 76v-1021q0 -246 -99 -356q-100 -110 -277 -110h-51q-48 0 -48 74v34q0 77 48 77z" />
    <glyph glyph-name="uniFEE0" unicode="&#x644;" horiz-adv-x="668" arabic-form="medial" 
d="M-4 185h93q200 0 193 242l-31 985l172 74v-1058q0 -243 209 -243h43q48 0 48 -77v-34q0 -74 -48 -74h-42q-167 0 -275 114q-103 -114 -271 -114h-91q-48 0 -48 74v34q0 77 48 77z" />
    <glyph glyph-name="uniFEE1" unicode="&#x645;" horiz-adv-x="1180" arabic-form="isolated" 
d="M481 207q0 -9 103 -14t141 -5q135 0 166 20q21 14 38 50q64 138 -226 257q-72 30 -130 7q-50 -20 -70 -83q-15 -48 -22 -171v-61zM826 7q-47 -1 -107 0q-184 6 -306 6q-190 0 -177 -278l24 -481l-165 -94v624q0 199 81 300q51 67 150 84q-16 341 108 457q102 96 202 95
q66 0 136 -34q381 -181 317 -416q-29 -107 -68 -170q-53 -88 -195 -93z" />
    <glyph glyph-name="uniFEE2" unicode="&#x645;" horiz-adv-x="1187" arabic-form="final" 
d="M1194 185q48 1 48 -77v-34q0 -75 -48 -74l-29 1q-141 3 -214 80q-46 -164 -222 -164q-76 0 -143 29q-212 90 -236 417q-125 -45 -111 -339l29 -615l-172 -86v763q0 292 187 427q190 137 412 140q211 3 278 -174q30 -80 30 -237q40 -58 167 -57h24zM485 417q4 -73 22 -137
q55 -200 221 -199q122 0 122 168q0 52 -11 120q-19 116 -128 119q-129 3 -226 -71z" />
    <glyph glyph-name="uniFEE3" unicode="&#x645;" horiz-adv-x="968" arabic-form="initial" 
d="M-4 185h61q75 0 107 66q96 195 148 283q97 159 237 160q180 2 279 -236q43 -105 42 -209q0 -82 -25 -141q-31 -73 -93 -114q-65 -43 -165 -42q-169 2 -318 142q-59 -94 -228 -94h-45q-48 0 -48 74v34q0 77 48 77zM331 245q147 -131 254 -131q72 1 106 58q51 83 -23 239
q-44 91 -115 100q-67 9 -124 -83q-56 -89 -98 -183z" />
    <glyph glyph-name="uniFEE4" unicode="&#x645;" horiz-adv-x="1067" arabic-form="medial" 
d="M331 245q147 -131 254 -131q72 1 106 58q51 83 -23 239q-44 91 -115 100q-67 9 -124 -83q-56 -89 -98 -183zM825 78q-21 -49 -73 -84q-65 -42 -165 -42q-169 2 -318 142q-59 -94 -228 -94h-45q-48 0 -48 74v34q0 77 48 77h61q75 0 107 66q96 195 148 283q95 159 237 160
q183 2 279 -236q31 -77 41 -170q10 -102 178 -102l27 -1q48 0 48 -77v-34q0 -74 -48 -74h-30q-145 1 -219 78z" />
    <glyph glyph-name="uniFEE5" unicode="&#x646;" horiz-adv-x="1403" arabic-form="isolated" 
d="M1244 -183q-137 -264 -554 -265q-259 0 -413 117q-178 137 -177 419q0 207 92 416l149 -55q-80 -195 -80 -344q0 -380 432 -380q461 1 461 398q0 141 -107 358l137 119q53 -104 84 -202q43 -138 44 -269q0 -180 -68 -312zM734.904 810.989l88.8047 -88.8057
q28.8887 -27.8184 1.07031 -55.6367l-93.085 -93.0859q-29.959 -29.958 -58.8477 0l-93.085 92.0156q-27.8184 28.8887 3.20996 59.917l86.665 86.666q32.0986 32.0977 65.2676 -1.07031z" />
    <glyph glyph-name="uniFEE6" unicode="&#x646;" horiz-adv-x="1467" arabic-form="final" 
d="M1287 287q46 -100 154 -101l33 -1q48 0 48 -77v-34q0 -75 -48 -74l-32 1q-105 1 -141 50q-3 -567 -611 -569q-259 0 -413 117q-178 137 -177 419q0 207 92 416l149 -55q-80 -195 -80 -344q0 -380 432 -380q461 1 461 398q0 141 -107 358l137 119q27 -76 103 -243z
M712.904 689.989l88.8047 -88.8057q28.8887 -27.8184 1.07031 -55.6367l-93.085 -93.0859q-29.959 -29.958 -58.8477 0l-93.085 92.0156q-27.8184 28.8887 3.20996 59.917l86.665 86.666q32.0986 32.0977 65.2676 -1.07031z" />
    <glyph glyph-name="uniFEE7" unicode="&#x646;" horiz-adv-x="640" arabic-form="initial" 
d="M315.904 1204.99l88.8047 -88.8057q28.8887 -27.8184 1.07031 -55.6367l-93.085 -93.0859q-29.959 -29.958 -58.8477 0l-93.085 92.0156q-27.8184 28.8887 3.20996 59.917l86.665 86.666q32.0986 32.0977 65.2676 -1.07031zM441 80q-94 -80 -356 -80h-87q-50 0 -50 74v34
q0 77 48 77h93q93 0 120 4q116 16 146 88q21 50 21 137q0 154 -39 314l151 34q53 -154 53 -336q0 -258 -100 -346z" />
    <glyph glyph-name="uniFEE8" unicode="&#x646;" horiz-adv-x="744" arabic-form="medial" 
d="M750 0h-43q-156 0 -276 130q-117 -130 -302 -130h-135q-46 0 -46 74v34q0 77 46 77h139q213 0 217 182l5 225l154 26l9 -251q6 -182 192 -182h40q48 0 48 -77v-34q0 -74 -48 -74zM402.904 1077.99l88.8047 -88.8057q28.8887 -27.8184 1.07031 -55.6367l-93.085 -93.0859
q-29.959 -29.958 -58.8477 0l-93.085 92.0156q-27.8184 28.8887 3.20996 59.917l86.665 86.666q32.0986 32.0977 65.2676 -1.07031z" />
    <glyph glyph-name="uniFEE9" unicode="&#x647;" horiz-adv-x="915" arabic-form="isolated" 
d="M449 651q-191 -174 -190 -330q1 -140 199 -140q203 0 204 131q2 157 -213 339zM459 4q-161 0 -257 75q-102 79 -103 238q-2 195 230 444l-36 31l100 141q426 -338 429 -616q2 -159 -116 -249q-85 -65 -247 -64z" />
    <glyph glyph-name="uniFEEA" unicode="&#x647;" horiz-adv-x="1144" arabic-form="final" 
d="M1151 185q48 0 48 -77v-34q0 -74 -48 -74h-48q-296 0 -346 237q-522 -82 -638 139q-20 38 -22 89q-10 279 586 394q0 13 -14 118l157 38l68 -597q26 -232 210 -232zM739 412q-16 166 -35 285q-426 -79 -441 -197q-11 -84 80 -102q132 -27 396 14z" />
    <glyph glyph-name="uniFEEB" unicode="&#x647;" horiz-adv-x="1220" arabic-form="initial" 
d="M-4 185l184 1q-75 88 -69 227q5 118 69 201q96 123 222 157l-39 21l81 140l331 -220q337 -224 354 -420q9 -105 -36 -186q-73 -131 -235 -141q-193 -11 -461 100q-193 -65 -367 -65h-34q-48 0 -48 74v34q0 77 48 77zM753 536q2 -215 -184 -363q377 -109 408 65
q23 122 -224 298zM594 418q65 145 -16 202q-37 25 -89 25q-20 0 -40 -6q-66 -20 -115 -82q-53 -67 -65 -143q-22 -138 129 -186q133 53 196 190z" />
    <glyph glyph-name="uniFEEC" unicode="&#x647;" horiz-adv-x="994" arabic-form="medial" 
d="M-4 185l236 1q-10 289 48 421q82 184 242 183q246 0 246 -306q0 -135 -45 -236q-50 -113 -125 -175q-88 -72 -205 -73q15 -202 140 -331q125 525 423 518l45 -2q48 -1 48 -77v-34q0 -74 -48 -74h-47q-228 0 -321 -474l-101 -56q-236 156 -298 530h-238q-48 0 -48 74v34
q0 77 48 77zM382 186l38 2q97 5 146 80q47 71 48 224q0 73 -22 107q-23 35 -67 35q-102 0 -128 -169q-25 -156 -15 -279z" />
    <glyph glyph-name="uniFEED" unicode="&#x648;" horiz-adv-x="891" arabic-form="isolated" 
d="M441 548q-135 -4 -180 -183q-53 -205 178 -204q121 0 191 54q0 57 -4 94q-28 244 -185 239zM727 534q64 -132 63 -352q-1 -314 -127 -477q-185 -239 -560 -242h-2l-55 139q523 31 576 438q-90 -49 -208 -49q-95 1 -160 31q-157 72 -155 254q1 116 51 226q97 217 293 218
q194 1 284 -186z" />
    <glyph glyph-name="uniFEEE" unicode="&#x648;" horiz-adv-x="905" arabic-form="final" 
d="M912 185q48 0 48 -77v-34q0 -74 -48 -74h-136q-29 -192 -157 -340q-168 -196 -519 -197h-2l-52 140q494 30 576 398h-176q-202 0 -281 104q-54 70 -53 174q1 157 75 280q94 158 258 159q188 0 280 -190q54 -111 61 -342zM436 546q-78 -1 -127 -92q-42 -80 -42 -145
q0 -60 34 -91q37 -34 113 -39q73 -6 217 1q0 365 -195 366z" />
    <glyph glyph-name="uniFEEF" unicode="&#x649;" horiz-adv-x="1470" arabic-form="isolated" 
d="M1045 150l55 1q107 0 168 -25q105 -43 105 -179q1 -130 -79 -230q-176 -221 -586 -222q-195 0 -324 56q-285 125 -287 480q-1 200 126 470l137 -60q-93 -211 -97 -388q-9 -385 453 -382q304 2 448 141q55 52 57 95q3 69 -82 69l-111 1q-255 1 -256 202q-1 134 102 282
q50 71 114 122q144 116 323 120l58 1l-60 -192h-14q-92 0 -184 -61q-104 -71 -152 -168q-18 -36 -23 -73q-10 -63 109 -60z" />
    <glyph glyph-name="uniFEF0" unicode="&#x649;" horiz-adv-x="1481" arabic-form="final" 
d="M1488 185q48 0 48 -77v-34q0 -74 -48 -74l-125 1l-182 -1q-115 0 -115 -43q0 -36 75 -37h62q184 -1 185 -166q0 -151 -139 -248q-184 -129 -511 -130q-311 0 -472 135q-168 142 -169 381q-1 211 116 460l147 -60q-93 -212 -97 -388q-4 -175 143 -275q115 -78 340 -77
q201 1 335 53q153 59 159 132q3 32 -62 34l-68 2q-216 8 -217 183q-1 231 286 230z" />
    <glyph glyph-name="uniFEF1" unicode="&#x64a;" horiz-adv-x="1470" arabic-form="isolated" 
d="M1045 150l55 1q107 0 168 -25q105 -43 105 -179q1 -130 -79 -230q-176 -221 -586 -222q-195 0 -324 56q-285 125 -287 480q-1 200 126 470l137 -60q-93 -211 -97 -388q-9 -385 453 -382q304 2 448 141q55 52 57 95q3 69 -82 69l-111 1q-255 1 -256 202q-1 134 102 282
q50 71 114 122q144 116 323 120l58 1l-60 -192h-14q-92 0 -184 -61q-104 -71 -152 -168q-18 -36 -23 -73q-10 -63 109 -60zM890.657 -624.011l88.8057 -88.8057q27.8184 -27.8184 1.07031 -55.6367l-93.0859 -93.0859q-29.958 -29.958 -59.917 0l-93.085 92.0156
q-27.8184 28.8887 4.2793 59.917l86.666 86.666q32.0986 32.0977 65.2666 -1.07031zM569.674 -624.011l88.8047 -88.8057q27.8193 -27.8184 1.07031 -55.6367l-93.085 -93.0859q-29.959 -29.958 -59.917 0l-93.0859 92.0156q-27.8184 28.8887 4.28027 59.917l86.665 86.666
q32.0986 32.0977 65.2676 -1.07031z" />
    <glyph glyph-name="uniFEF2" unicode="&#x64a;" horiz-adv-x="1481" arabic-form="final" 
d="M911.657 -743.011l88.8057 -88.8057q27.8184 -27.8184 1.07031 -55.6367l-93.0859 -93.0859q-29.958 -29.958 -59.917 0l-93.085 92.0156q-27.8184 28.8887 4.2793 59.917l86.666 86.666q32.0986 32.0977 65.2666 -1.07031zM590.674 -743.011l88.8047 -88.8057
q27.8193 -27.8184 1.07031 -55.6367l-93.085 -93.0859q-29.959 -29.958 -59.917 0l-93.0859 92.0156q-27.8184 28.8887 4.28027 59.917l86.665 86.666q32.0986 32.0977 65.2676 -1.07031zM1488 185q48 0 48 -77v-34q0 -74 -48 -74l-125 1l-182 -1q-115 0 -115 -43
q0 -36 75 -37h62q184 -1 185 -166q0 -151 -139 -248q-184 -129 -511 -130q-311 0 -472 135q-168 142 -169 381q-1 211 116 460l147 -60q-93 -212 -97 -388q-4 -175 143 -275q115 -78 340 -77q201 1 335 53q153 59 159 132q3 32 -62 34l-68 2q-216 8 -217 183q-1 231 286 230
z" />
    <glyph glyph-name="uniFEF3" unicode="&#x64a;" horiz-adv-x="680" arabic-form="initial" 
d="M441 80q-94 -80 -356 -80h-87q-50 0 -50 74v34q0 77 48 77h93q93 0 120 4q116 16 146 88q21 50 21 137q0 154 -39 314l151 34q53 -154 53 -336q0 -258 -100 -346zM492.657 -209.011l88.8057 -88.8057q27.8184 -27.8184 1.07031 -55.6367l-93.0859 -93.0859
q-29.958 -29.958 -59.917 0l-93.085 92.0156q-27.8184 28.8887 4.2793 59.917l86.666 86.666q32.0986 32.0977 65.2666 -1.07031zM171.674 -209.011l88.8047 -88.8057q27.8193 -27.8184 1.07031 -55.6367l-93.085 -93.0859q-29.959 -29.958 -59.917 0l-93.0859 92.0156
q-27.8184 28.8887 4.28027 59.917l86.665 86.666q32.0986 32.0977 65.2676 -1.07031z" />
    <glyph glyph-name="uniFEF4" unicode="&#x64a;" horiz-adv-x="744" arabic-form="medial" 
d="M750 0h-43q-156 0 -276 130q-117 -130 -302 -130h-135q-46 0 -46 74v34q0 77 46 77h139q213 0 217 182l5 225l154 26l9 -251q6 -182 192 -182h40q48 0 48 -77v-34q0 -74 -48 -74zM497.657 -209.011l88.8057 -88.8057q27.8184 -27.8184 1.07031 -55.6367
l-93.0859 -93.0859q-29.958 -29.958 -59.917 0l-93.085 92.0156q-27.8184 28.8887 4.2793 59.917l86.666 86.666q32.0986 32.0977 65.2666 -1.07031zM176.674 -209.011l88.8047 -88.8057q27.8193 -27.8184 1.07031 -55.6367l-93.085 -93.0859q-29.959 -29.958 -59.917 0
l-93.0859 92.0156q-27.8184 28.8887 4.28027 59.917l86.665 86.666q32.0986 32.0977 65.2676 -1.07031z" />
    <glyph glyph-name=".notdef" horiz-adv-x="1229" 
d="M193 1462h841v-1462h-841v1462zM297 104h633v1254h-633v-1254z" />
    <glyph glyph-name=".null" horiz-adv-x="0" 
 />
    <glyph glyph-name="nonmarkingreturn" unicode="&#xd;" horiz-adv-x="1044" 
 />
    <glyph glyph-name="space" unicode=" " horiz-adv-x="570" 
 />
    <glyph glyph-name="exclam" unicode="!" horiz-adv-x="559" 
d="M153 130.5q0 52.5 38 90.5t89 37q52 1 90 -37t38 -90.5t-38 -90.5t-90 -37q-51 -1 -89 37t-38 90.5zM179 1490h201l-21 -1076h-158z" />
    <glyph glyph-name="quotedbl" unicode="&#x22;" horiz-adv-x="821" 
d="M319 1462l-40 -528h-105l-41 528h186zM688 1462l-41 -528h-104l-41 528h186z" />
    <glyph glyph-name="numbersign" unicode="#" horiz-adv-x="1323" 
d="M981 899l-66 -340h283v-129h-307l-84 -430h-137l84 430h-303l-82 -430h-136l80 430h-262v129h287l68 340h-277v127h299l82 436h139l-82 -436h305l84 436h134l-84 -436h264v-127h-289zM475 559h303l66 340h-303z" />
    <glyph glyph-name="dollar" unicode="$" 
d="M1036 449q0 -136 -102 -224.5t-285 -111.5v-232h-129v223q-112 0 -217 17.5t-172 48.5v156q83 -37 191.5 -60.5t197.5 -23.5v440q-205 65 -287.5 151t-82.5 222q0 131 101.5 215t268.5 102v182h129v-180q184 -5 355 -74l-52 -131q-149 59 -303 70v-434q157 -50 235 -97.5
t115 -109t37 -149.5zM866 436q0 72 -44.5 116.5t-172.5 88.5v-389q217 30 217 184zM319 1057q0 -76 45 -122t156 -87v387q-99 -16 -150 -62.5t-51 -115.5z" />
    <glyph glyph-name="percent" unicode="%" horiz-adv-x="1686" 
d="M242 1026q0 -170 37 -255t120 -85q164 0 164 340q0 338 -164 338q-83 0 -120 -84t-37 -254zM700 1026q0 -228 -76.5 -344.5t-224.5 -116.5q-140 0 -217.5 119t-77.5 342q0 227 74.5 342t220.5 115q145 0 223 -119t78 -338zM1122 440q0 -171 37 -255.5t121 -84.5t124 83.5
t40 256.5q0 171 -40 253.5t-124 82.5t-121 -82.5t-37 -253.5zM1581 440q0 -227 -76.5 -343.5t-224.5 -116.5q-142 0 -218.5 119t-76.5 341q0 227 74.5 342t220.5 115q142 0 221.5 -117.5t79.5 -339.5zM1323 1462l-811 -1462h-147l811 1462h147z" />
    <glyph glyph-name="ampersand" unicode="&#x26;" horiz-adv-x="1495" 
d="M414 1171q0 -69 36 -131.5t123 -150.5q129 75 179.5 138.5t50.5 146.5q0 77 -51.5 125.5t-137.5 48.5q-89 0 -144.5 -48t-55.5 -129zM569 129q241 0 400 154l-437 424q-111 -68 -157 -112.5t-68 -95.5t-22 -116q0 -117 77.5 -185.5t206.5 -68.5zM113 379q0 130 69.5 230
t249.5 202q-85 95 -115.5 144t-48.5 102t-18 110q0 150 98 234t273 84q162 0 255 -83.5t93 -232.5q0 -107 -68 -197.5t-225 -183.5l407 -391q56 62 89.5 145.5t56.5 182.5h168q-68 -286 -205 -434l299 -291h-229l-185 178q-118 -106 -240 -152t-272 -46q-215 0 -333.5 106
t-118.5 293z" />
    <glyph glyph-name="quotesingle" unicode="'" horiz-adv-x="453" 
d="M319 1462l-40 -528h-105l-41 528h186z" />
    <glyph glyph-name="parenleft" unicode="(" horiz-adv-x="606" 
d="M82 561q0 265 77.5 496t223.5 405h162q-144 -193 -216.5 -424t-72.5 -475q0 -240 74 -469t213 -418h-160q-147 170 -224 397t-77 488z" />
    <glyph glyph-name="parenright" unicode=")" horiz-adv-x="606" 
d="M524 561q0 -263 -77.5 -490t-223.5 -395h-160q139 188 213 417.5t74 469.5q0 244 -72.5 475t-216.5 424h162q147 -175 224 -406.5t77 -494.5z" />
    <glyph glyph-name="asterisk" unicode="*" horiz-adv-x="1130" 
d="M657 1556l-43 -395l398 111l26 -182l-381 -31l248 -326l-172 -94l-176 362l-160 -362l-176 94l242 326l-377 31l29 182l391 -111l-43 395h194z" />
    <glyph glyph-name="plus" unicode="+" 
d="M653 791h412v-138h-412v-426h-139v426h-410v138h410v428h139v-428z" />
    <glyph glyph-name="comma" unicode="," horiz-adv-x="502" 
d="M350 238l15 -23q-26 -100 -75 -232.5t-102 -246.5h-125q27 104 59.5 257t45.5 245h182z" />
    <glyph glyph-name="hyphen" unicode="-" horiz-adv-x="659" 
d="M84 473v152h491v-152h-491z" />
    <glyph glyph-name="period" unicode="." horiz-adv-x="561" 
d="M153 130.5q0 52.5 38 90.5t89 37q52 1 90 -37t38 -90.5t-38 -90.5t-90 -37q-51 -1 -89 37t-38 90.5z" />
    <glyph glyph-name="slash" unicode="/" horiz-adv-x="752" 
d="M731 1462l-545 -1462h-166l545 1462h166z" />
    <glyph glyph-name="zero" unicode="0" horiz-adv-x="866" 
d="M332 551q0 -42 29.5 -72t71.5 -30t71.5 30t29.5 72t-29.5 71.5t-71.5 29.5t-71.5 -29.5t-29.5 -71.5zM170 553.5q0 109.5 77.5 187t185.5 77.5t185.5 -77.5t77.5 -187t-77.5 -187t-185.5 -77.5t-185.5 77.5t-77.5 187z" />
    <glyph glyph-name="one" unicode="1" horiz-adv-x="746" 
d="M468 738q42 -305 43 -729h-163v3q0 409 -52 716q-63 375 -181 631l154 74q154 -358 199 -695z" />
    <glyph glyph-name="two" unicode="2" horiz-adv-x="1106" 
d="M269 1433l98 -271q43 -119 231 -119q138 0 207 157q29 67 51 232l143 -39q-14 -189 -70 -310q-103 -222 -329 -221q-81 0 -159 26q69 -383 70 -879h-163v3q0 409 -52 716q-63 375 -181 631z" />
    <glyph glyph-name="three" unicode="3" horiz-adv-x="1305" 
d="M441 888q68 -358 70 -879h-163v3q0 407 -52 716q-63 375 -181 631l154 74l100 -278q42 -117 170 -117q53 0 84 32q53 56 53 311v3l129 -1q10 -184 17 -244q12 -100 129 -100q134 1 105 385l142 -2q38 -556 -248 -553q-135 1 -204 101q-63 -103 -195 -104q-53 0 -110 22z
" />
    <glyph glyph-name="four" unicode="4" horiz-adv-x="1108" 
d="M388 1109q0 103 83 201q103 121 300 120q108 0 167 -39v-152q-98 20 -146 20q-104 0 -178 -42q-91 -51 -101 -154q-16 -154 250 -156q104 0 236 47l3 -161q-136 -37 -248 -36q-186 0 -306 96q61 -324 63 -844h-163v3q0 412 -52 716q-63 375 -181 631l154 74z" />
    <glyph glyph-name="five" unicode="5" horiz-adv-x="1294" 
d="M886 188q144 -2 144 193q-1 308 -402 730q-365 -423 -364 -730q0 -193 168 -193q140 -1 154 192l4 61h125l7 -62q20 -189 164 -191zM652 158q-54 -148 -225 -149q-330 -1 -330 342q1 374 406 868l-48 42l107 149q639 -531 638 -1065q-1 -337 -298 -336q-195 1 -250 149z
" />
    <glyph glyph-name="six" unicode="6" horiz-adv-x="1008" 
d="M591 1424q79 0 178 -32v-165q-220 66 -333 -14q-94 -67 -94 -166t75 -155q138 -100 248 -52q264 116 276 120l10 -180q-400 -127 -712 -771l-141 64q164 367 394 612q-304 66 -316 322q-9 189 116 309q112 107 299 108z" />
    <glyph glyph-name="seven" unicode="7" horiz-adv-x="1220" 
d="M526 9q-80 651 -421 1337l161 87q243 -499 349 -1076q109 569 339 1076l160 -87q-318 -687 -419 -1337h-169z" />
    <glyph glyph-name="eight" unicode="8" horiz-adv-x="1220" 
d="M526 1433h169q100 -650 419 -1337l-160 -87q-230 507 -339 1076q-106 -577 -349 -1076l-161 87q341 686 421 1337z" />
    <glyph glyph-name="nine" unicode="9" horiz-adv-x="1209" 
d="M880 0q-64 195 -101 688q-319 -23 -495 69q-180 94 -180 303q0 166 116 281q114 115 278 115q397 3 423 -430q15 -245 33 -467q22 -285 82 -510zM761 862l-6 100q-17 318 -246 316q-93 -1 -157 -52q-70 -55 -70 -160q0 -121 119 -178q110 -52 360 -26z" />
    <glyph glyph-name="colon" unicode=":" horiz-adv-x="561" 
d="M153 810.5q0 52.5 38 90.5t89 37q52 1 90 -37t38 -90.5t-38 -90.5t-90 -37q-51 -1 -89 37t-38 90.5zM153 130.5q0 52.5 38 90.5t89 37q52 1 90 -37t38 -90.5t-38 -90.5t-90 -37q-51 -1 -89 37t-38 90.5z" />
    <glyph glyph-name="semicolon" unicode=";" horiz-adv-x="545" 
d="M350 238l15 -23q-26 -100 -75 -232.5t-102 -246.5h-125q27 104 59.5 257t45.5 245h182zM147 989q0 135 119 135q123 0 123 -135q0 -65 -33 -100t-90 -35q-58 0 -88.5 35t-30.5 100z" />
    <glyph glyph-name="less" unicode="&#x3c;" 
d="M1065 242l-961 422v98l961 479v-149l-782 -371l782 -328v-151z" />
    <glyph glyph-name="equal" unicode="=" 
d="M119 858v137h930v-137h-930zM119 449v137h930v-137h-930z" />
    <glyph glyph-name="greater" unicode="&#x3e;" 
d="M104 393l783 326l-783 373v149l961 -479v-98l-961 -422v151z" />
    <glyph glyph-name="question" unicode="?" horiz-adv-x="879" 
d="M289 403v54q0 117 36 192.5t134 159.5q136 115 171.5 173t35.5 140q0 102 -65.5 157.5t-188.5 55.5q-79 0 -154 -18.5t-172 -67.5l-59 135q189 99 395 99q191 0 297 -94t106 -265q0 -73 -19.5 -128.5t-57.5 -105t-164 -159.5q-101 -86 -133.5 -143t-32.5 -152v-33h-129z
M240 106q0 136 120 136q58 0 89.5 -35t31.5 -101q0 -64 -32 -99.5t-89 -35.5q-52 0 -86 31.5t-34 103.5z" />
    <glyph glyph-name="at" unicode="@" horiz-adv-x="1841" 
d="M1720 729q0 -142 -44 -260t-124 -183t-184 -65q-86 0 -145 52t-70 133h-8q-40 -87 -114.5 -136t-176.5 -49q-150 0 -234.5 102.5t-84.5 278.5q0 204 118 331.5t310 127.5q68 0 154 -12.5t155 -34.5l-25 -470v-22q0 -178 133 -178q91 0 148 107.5t57 279.5q0 181 -74 317
t-210.5 209.5t-313.5 73.5q-223 0 -388 -92.5t-252 -264t-87 -396.5q0 -305 161 -469t464 -164q210 0 436 86v-133q-192 -84 -436 -84q-363 0 -563.5 199.5t-200.5 557.5q0 260 107 463t305 314.5t454 111.5q215 0 382.5 -90.5t259 -257t91.5 -383.5zM686 598
q0 -254 195 -254q207 0 225 313l14 261q-72 20 -157 20q-130 0 -203.5 -90t-73.5 -250z" />
    <glyph glyph-name="A" unicode="A" horiz-adv-x="1296" 
d="M1120 0l-182 465h-586l-180 -465h-172l578 1468h143l575 -1468h-176zM885 618l-170 453q-33 86 -68 211q-22 -96 -63 -211l-172 -453h473z" />
    <glyph glyph-name="B" unicode="B" horiz-adv-x="1327" 
d="M201 1462h413q291 0 421 -87t130 -275q0 -130 -72.5 -214.5t-211.5 -109.5v-10q333 -57 333 -350q0 -196 -132.5 -306t-370.5 -110h-510v1462zM371 836h280q180 0 259 56.5t79 190.5q0 123 -88 177.5t-280 54.5h-250v-479zM371 692v-547h305q177 0 266.5 68.5t89.5 214.5
q0 136 -91.5 200t-278.5 64h-291z" />
    <glyph glyph-name="C" unicode="C" horiz-adv-x="1292" 
d="M827 1331q-241 0 -380.5 -160.5t-139.5 -439.5q0 -287 134.5 -443.5t383.5 -156.5q153 0 349 55v-149q-152 -57 -375 -57q-323 0 -498.5 196t-175.5 557q0 226 84.5 396t244 262t375.5 92q230 0 402 -84l-72 -146q-166 78 -332 78z" />
    <glyph glyph-name="D" unicode="D" horiz-adv-x="1493" 
d="M1368 745q0 -362 -196.5 -553.5t-565.5 -191.5h-405v1462h448q341 0 530 -189t189 -528zM1188 739q0 286 -143.5 431t-426.5 145h-247v-1168h207q304 0 457 149.5t153 442.5z" />
    <glyph glyph-name="E" unicode="E" horiz-adv-x="1139" 
d="M1016 0h-815v1462h815v-151h-645v-471h606v-150h-606v-538h645v-152z" />
    <glyph glyph-name="F" unicode="F" horiz-adv-x="1057" 
d="M371 0h-170v1462h815v-151h-645v-535h606v-151h-606v-625z" />
    <glyph glyph-name="G" unicode="G" horiz-adv-x="1491" 
d="M844 766h497v-711q-116 -37 -236 -56t-278 -19q-332 0 -517 197.5t-185 553.5q0 228 91.5 399.5t263.5 262t403 90.5q234 0 436 -86l-66 -150q-198 84 -381 84q-267 0 -417 -159t-150 -441q0 -296 144.5 -449t424.5 -153q152 0 297 35v450h-327v152z" />
    <glyph glyph-name="H" unicode="H" horiz-adv-x="1511" 
d="M1311 0h-170v688h-770v-688h-170v1462h170v-622h770v622h170v-1462z" />
    <glyph glyph-name="I" unicode="I" horiz-adv-x="571" 
d="M201 0v1462h170v-1462h-170z" />
    <glyph glyph-name="J" unicode="J" horiz-adv-x="547" 
d="M-12 -385q-94 0 -148 27v145q71 -20 148 -20q99 0 150.5 60t51.5 173v1462h170v-1448q0 -190 -96 -294.5t-276 -104.5z" />
    <glyph glyph-name="K" unicode="K" horiz-adv-x="1257" 
d="M1257 0h-200l-533 709l-153 -136v-573h-170v1462h170v-725l663 725h201l-588 -635z" />
    <glyph glyph-name="L" unicode="L" horiz-adv-x="1063" 
d="M201 0v1462h170v-1308h645v-154h-815z" />
    <glyph glyph-name="M" unicode="M" horiz-adv-x="1849" 
d="M848 0l-496 1296h-8q14 -154 14 -366v-930h-157v1462h256l463 -1206h8l467 1206h254v-1462h-170v942q0 162 14 352h-8l-500 -1294h-137z" />
    <glyph glyph-name="N" unicode="N" horiz-adv-x="1544" 
d="M1343 0h-194l-799 1227h-8q16 -216 16 -396v-831h-157v1462h192l797 -1222h8q-2 27 -9 173.5t-5 209.5v839h159v-1462z" />
    <glyph glyph-name="O" unicode="O" horiz-adv-x="1595" 
d="M1470 733q0 -351 -177.5 -552t-493.5 -201q-323 0 -498.5 197.5t-175.5 557.5q0 357 176 553.5t500 196.5q315 0 492 -200t177 -552zM305 733q0 -297 126.5 -450.5t367.5 -153.5q243 0 367 153t124 451q0 295 -123.5 447.5t-365.5 152.5q-243 0 -369.5 -153.5
t-126.5 -446.5z" />
    <glyph glyph-name="P" unicode="P" horiz-adv-x="1233" 
d="M1128 1036q0 -222 -151.5 -341.5t-433.5 -119.5h-172v-575h-170v1462h379q548 0 548 -426zM371 721h153q226 0 327 73t101 234q0 145 -95 216t-296 71h-190v-594z" />
    <glyph glyph-name="Q" unicode="Q" horiz-adv-x="1595" 
d="M1470 733q0 -281 -113 -467t-319 -252l348 -362h-247l-285 330l-55 -2q-323 0 -498.5 197.5t-175.5 557.5q0 357 176 553.5t500 196.5q315 0 492 -200t177 -552zM305 733q0 -297 126.5 -450.5t367.5 -153.5q243 0 367 153t124 451q0 295 -123.5 447.5t-365.5 152.5
q-243 0 -369.5 -153.5t-126.5 -446.5z" />
    <glyph glyph-name="R" unicode="R" horiz-adv-x="1266" 
d="M371 608v-608h-170v1462h401q269 0 397.5 -103t128.5 -310q0 -290 -294 -392l397 -657h-201l-354 608h-305zM371 754h233q180 0 264 71.5t84 214.5q0 145 -85.5 209t-274.5 64h-221v-559z" />
    <glyph glyph-name="S" unicode="S" horiz-adv-x="1124" 
d="M1026 389q0 -193 -140 -301t-380 -108q-260 0 -400 67v164q90 -38 196 -60t210 -22q170 0 256 64.5t86 179.5q0 76 -30.5 124.5t-102 89.5t-217.5 93q-204 73 -291.5 173t-87.5 261q0 169 127 269t336 100q218 0 401 -80l-53 -148q-181 76 -352 76q-135 0 -211 -58
t-76 -161q0 -76 28 -124.5t94.5 -89t203.5 -89.5q230 -82 316.5 -176t86.5 -244z" />
    <glyph glyph-name="T" unicode="T" horiz-adv-x="1133" 
d="M651 0h-170v1311h-463v151h1096v-151h-463v-1311z" />
    <glyph glyph-name="U" unicode="U" horiz-adv-x="1491" 
d="M1305 1462v-946q0 -250 -151 -393t-415 -143t-408.5 144t-144.5 396v942h170v-954q0 -183 100 -281t294 -98q185 0 285 98.5t100 282.5v952h170z" />
    <glyph glyph-name="V" unicode="V" horiz-adv-x="1219" 
d="M1036 1462h183l-527 -1462h-168l-524 1462h180l336 -946q58 -163 92 -317q36 162 94 323z" />
    <glyph glyph-name="W" unicode="W" horiz-adv-x="1896" 
d="M1477 0h-168l-295 979q-21 65 -47 164t-27 119q-22 -132 -70 -289l-286 -973h-168l-389 1462h180l231 -903q48 -190 70 -344q27 183 80 358l262 889h180l275 -897q48 -155 81 -350q19 142 72 346l230 901h180z" />
    <glyph glyph-name="X" unicode="X" horiz-adv-x="1182" 
d="M1174 0h-193l-393 643l-400 -643h-180l486 764l-453 698h188l363 -579l366 579h181l-453 -692z" />
    <glyph glyph-name="Y" unicode="Y" horiz-adv-x="1147" 
d="M573 731l390 731h184l-488 -895v-567h-172v559l-487 903h186z" />
    <glyph glyph-name="Z" unicode="Z" horiz-adv-x="1169" 
d="M1087 0h-1005v133l776 1176h-752v153h959v-133l-776 -1175h798v-154z" />
    <glyph glyph-name="bracketleft" unicode="[" horiz-adv-x="674" 
d="M623 -324h-457v1786h457v-141h-289v-1503h289v-142z" />
    <glyph glyph-name="backslash" unicode="\" horiz-adv-x="752" 
d="M186 1462l547 -1462h-166l-544 1462h163z" />
    <glyph glyph-name="bracketright" unicode="]" horiz-adv-x="674" 
d="M51 -182h289v1503h-289v141h457v-1786h-457v142z" />
    <glyph glyph-name="asciicircum" unicode="^" horiz-adv-x="1110" 
d="M49 551l434 922h99l477 -922h-152l-372 745l-334 -745h-152z" />
    <glyph glyph-name="underscore" unicode="_" horiz-adv-x="918" 
d="M922 -315h-926v131h926v-131z" />
    <glyph glyph-name="grave" unicode="`" horiz-adv-x="1182" 
d="M786 1241h-110q-65 52 -154 148t-129 159v21h203q32 -69 89 -159.5t101 -143.5v-25z" />
    <glyph glyph-name="a" unicode="a" horiz-adv-x="1139" 
d="M850 0l-33 156h-8q-82 -103 -163.5 -139.5t-203.5 -36.5q-163 0 -255.5 84t-92.5 239q0 332 531 348l186 6v68q0 129 -55.5 190.5t-177.5 61.5q-137 0 -310 -84l-51 127q81 44 177.5 69t193.5 25q196 0 290.5 -87t94.5 -279v-748h-123zM475 117q155 0 243.5 85t88.5 238
v99l-166 -7q-198 -7 -285.5 -61.5t-87.5 -169.5q0 -90 54.5 -137t152.5 -47z" />
    <glyph glyph-name="b" unicode="b" horiz-adv-x="1255" 
d="M686 1114q216 0 335.5 -147.5t119.5 -417.5t-120.5 -419.5t-334.5 -149.5q-107 0 -195.5 39.5t-148.5 121.5h-12l-35 -141h-119v1556h166v-378q0 -127 -8 -228h8q116 164 344 164zM662 975q-170 0 -245 -97.5t-75 -328.5t77 -330.5t247 -99.5q153 0 228 111.5t75 320.5
q0 214 -75 319t-232 105z" />
    <glyph glyph-name="c" unicode="c" horiz-adv-x="975" 
d="M614 -20q-238 0 -368.5 146.5t-130.5 414.5q0 275 132.5 425t377.5 150q79 0 158 -17t124 -40l-51 -141q-55 22 -120 36.5t-115 14.5q-334 0 -334 -426q0 -202 81.5 -310t241.5 -108q137 0 281 59v-147q-110 -57 -277 -57z" />
    <glyph glyph-name="d" unicode="d" horiz-adv-x="1255" 
d="M922 147h-9q-115 -167 -344 -167q-215 0 -334.5 147t-119.5 418t120 421t334 150q223 0 342 -162h13l-7 79l-4 77v446h166v-1556h-135zM590 119q170 0 246.5 92.5t76.5 298.5v35q0 233 -77.5 332.5t-247.5 99.5q-146 0 -223.5 -113.5t-77.5 -320.5q0 -210 77 -317
t226 -107z" />
    <glyph glyph-name="e" unicode="e" horiz-adv-x="1149" 
d="M639 -20q-243 0 -383.5 148t-140.5 411q0 265 130.5 421t350.5 156q206 0 326 -135.5t120 -357.5v-105h-755q5 -193 97.5 -293t260.5 -100q177 0 350 74v-148q-88 -38 -166.5 -54.5t-189.5 -16.5zM594 977q-132 0 -210.5 -86t-92.5 -238h573q0 157 -70 240.5t-200 83.5z
" />
    <glyph glyph-name="f" unicode="f" horiz-adv-x="694" 
d="M670 967h-279v-967h-166v967h-196v75l196 60v61q0 404 353 404q87 0 204 -35l-43 -133q-96 31 -164 31q-94 0 -139 -62.5t-45 -200.5v-71h279v-129z" />
    <glyph glyph-name="g" unicode="g" horiz-adv-x="1122" 
d="M1073 1096v-105l-203 -24q28 -35 50 -91.5t22 -127.5q0 -161 -110 -257t-302 -96q-49 0 -92 8q-106 -56 -106 -141q0 -45 37 -66.5t127 -21.5h194q178 0 273.5 -75t95.5 -218q0 -182 -146 -277.5t-426 -95.5q-215 0 -331.5 80t-116.5 226q0 100 64 173t180 99
q-42 19 -70.5 59t-28.5 93q0 60 32 105t101 87q-85 35 -138.5 119t-53.5 192q0 180 108 277.5t306 97.5q86 0 155 -20h379zM199 -184q0 -89 75 -135t215 -46q209 0 309.5 62.5t100.5 169.5q0 89 -55 123.5t-207 34.5h-199q-113 0 -176 -54t-63 -155zM289 745q0 -115 65 -174
t181 -59q243 0 243 236q0 247 -246 247q-117 0 -180 -63t-63 -187z" />
    <glyph glyph-name="h" unicode="h" horiz-adv-x="1257" 
d="M926 0v709q0 134 -61 200t-191 66q-173 0 -252.5 -94t-79.5 -308v-573h-166v1556h166v-471q0 -85 -8 -141h10q49 79 139.5 124.5t206.5 45.5q201 0 301.5 -95.5t100.5 -303.5v-715h-166z" />
    <glyph glyph-name="i" unicode="i" horiz-adv-x="518" 
d="M342 0h-166v1096h166v-1096zM162 1393q0 57 28 83.5t70 26.5q40 0 69 -27t29 -83t-29 -83.5t-69 -27.5q-42 0 -70 27.5t-28 83.5z" />
    <glyph glyph-name="j" unicode="j" horiz-adv-x="518" 
d="M43 -492q-95 0 -154 25v135q69 -20 136 -20q78 0 114.5 42.5t36.5 129.5v1276h166v-1264q0 -324 -299 -324zM162 1393q0 57 28 83.5t70 26.5q40 0 69 -27t29 -83t-29 -83.5t-69 -27.5q-42 0 -70 27.5t-28 83.5z" />
    <glyph glyph-name="k" unicode="k" horiz-adv-x="1075" 
d="M340 561q43 61 131 160l354 375h197l-444 -467l475 -629h-201l-387 518l-125 -108v-410h-164v1556h164v-825q0 -55 -8 -170h8z" />
    <glyph glyph-name="l" unicode="l" horiz-adv-x="518" 
d="M342 0h-166v1556h166v-1556z" />
    <glyph glyph-name="m" unicode="m" horiz-adv-x="1905" 
d="M1573 0v713q0 131 -56 196.5t-174 65.5q-155 0 -229 -89t-74 -274v-612h-166v713q0 131 -56 196.5t-175 65.5q-156 0 -228.5 -93.5t-72.5 -306.5v-575h-166v1096h135l27 -150h8q47 80 132.5 125t191.5 45q257 0 336 -186h8q49 86 142 136t212 50q186 0 278.5 -95.5
t92.5 -305.5v-715h-166z" />
    <glyph glyph-name="n" unicode="n" horiz-adv-x="1257" 
d="M926 0v709q0 134 -61 200t-191 66q-172 0 -252 -93t-80 -307v-575h-166v1096h135l27 -150h8q51 81 143 125.5t205 44.5q198 0 298 -95.5t100 -305.5v-715h-166z" />
    <glyph glyph-name="o" unicode="o" horiz-adv-x="1237" 
d="M1122 549q0 -268 -135 -418.5t-373 -150.5q-147 0 -261 69t-176 198t-62 302q0 268 134 417.5t372 149.5q230 0 365.5 -153t135.5 -414zM287 549q0 -210 84 -320t247 -110t247.5 109.5t84.5 320.5q0 209 -84.5 317.5t-249.5 108.5q-163 0 -246 -107t-83 -319z" />
    <glyph glyph-name="p" unicode="p" horiz-adv-x="1255" 
d="M686 -20q-107 0 -195.5 39.5t-148.5 121.5h-12q12 -96 12 -182v-451h-166v1588h135l23 -150h8q64 90 149 130t195 40q218 0 336.5 -149t118.5 -418q0 -270 -120.5 -419.5t-334.5 -149.5zM662 975q-168 0 -243 -93t-77 -296v-37q0 -231 77 -330.5t247 -99.5
q142 0 222.5 115t80.5 317q0 205 -80.5 314.5t-226.5 109.5z" />
    <glyph glyph-name="q" unicode="q" horiz-adv-x="1255" 
d="M590 119q166 0 242 89t81 300v37q0 230 -78 331t-247 101q-146 0 -223.5 -113.5t-77.5 -320.5t76.5 -315.5t226.5 -108.5zM565 -20q-212 0 -331 149t-119 416q0 269 120 420t334 151q225 0 346 -170h9l24 150h131v-1588h-166v469q0 100 11 170h-13q-115 -167 -346 -167z
" />
    <glyph glyph-name="r" unicode="r" horiz-adv-x="836" 
d="M676 1116q73 0 131 -12l-23 -154q-68 15 -120 15q-133 0 -227.5 -108t-94.5 -269v-588h-166v1096h137l19 -203h8q61 107 147 165t189 58z" />
    <glyph glyph-name="s" unicode="s" horiz-adv-x="977" 
d="M883 299q0 -153 -114 -236t-320 -83q-218 0 -340 69v154q79 -40 169.5 -63t174.5 -23q130 0 200 41.5t70 126.5q0 64 -55.5 109.5t-216.5 107.5q-153 57 -217.5 99.5t-96 96.5t-31.5 129q0 134 109 211.5t299 77.5q177 0 346 -72l-59 -135q-165 68 -299 68
q-118 0 -178 -37t-60 -102q0 -44 22.5 -75t72.5 -59t192 -81q195 -71 263.5 -143t68.5 -181z" />
    <glyph glyph-name="t" unicode="t" horiz-adv-x="723" 
d="M530 117q44 0 85 6.5t65 13.5v-127q-27 -13 -79.5 -21.5t-94.5 -8.5q-318 0 -318 335v652h-157v80l157 69l70 234h96v-254h318v-129h-318v-645q0 -99 47 -152t129 -53z" />
    <glyph glyph-name="u" unicode="u" horiz-adv-x="1257" 
d="M332 1096v-711q0 -134 61 -200t191 -66q172 0 251.5 94t79.5 307v576h166v-1096h-137l-24 147h-9q-51 -81 -141.5 -124t-206.5 -43q-200 0 -299.5 95t-99.5 304v717h168z" />
    <glyph glyph-name="v" unicode="v" horiz-adv-x="1026" 
d="M416 0l-416 1096h178l236 -650q80 -228 94 -296h8q11 53 69.5 219.5t262.5 726.5h178l-416 -1096h-194z" />
    <glyph glyph-name="w" unicode="w" horiz-adv-x="1593" 
d="M1071 0l-201 643q-19 59 -71 268h-8q-40 -175 -70 -270l-207 -641h-192l-299 1096h174q106 -413 161.5 -629t63.5 -291h8q11 57 35.5 147.5t42.5 143.5l201 629h180l196 -629q56 -172 76 -289h8q4 36 21.5 111t208.5 807h172l-303 -1096h-197z" />
    <glyph glyph-name="x" unicode="x" horiz-adv-x="1073" 
d="M440 561l-381 535h189l289 -420l288 420h187l-381 -535l401 -561h-188l-307 444l-310 -444h-188z" />
    <glyph glyph-name="y" unicode="y" horiz-adv-x="1032" 
d="M2 1096h178l240 -625q79 -214 98 -309h8q13 51 54.5 174.5t271.5 759.5h178l-471 -1248q-70 -185 -163.5 -262.5t-229.5 -77.5q-76 0 -150 17v133q55 -12 123 -12q171 0 244 192l61 156z" />
    <glyph glyph-name="z" unicode="z" horiz-adv-x="958" 
d="M877 0h-795v113l598 854h-561v129h743v-129l-590 -838h605v-129z" />
    <glyph glyph-name="braceleft" unicode="{" horiz-adv-x="776" 
d="M475 12q0 -102 58.5 -148t171.5 -48v-140q-190 2 -294 87t-104 239v303q0 104 -63 148.5t-183 44.5v141q130 2 188 48t58 142v306q0 155 108 241t290 86v-139q-230 -6 -230 -199v-295q0 -215 -223 -254v-12q223 -39 223 -254v-297z" />
    <glyph glyph-name="bar" unicode="|" horiz-adv-x="1128" 
d="M494 1556h141v-2052h-141v2052z" />
    <glyph glyph-name="braceright" unicode="}" horiz-adv-x="776" 
d="M522 575q-223 39 -223 254v295q0 193 -227 199v139q184 0 289.5 -87t105.5 -240v-306q0 -97 59 -142.5t189 -47.5v-141q-122 0 -185 -44.5t-63 -148.5v-303q0 -153 -102.5 -238.5t-292.5 -87.5v140q111 2 169 48t58 148v297q0 114 55 174t168 80v12z" />
    <glyph glyph-name="asciitilde" unicode="~" 
d="M338 713q-53 0 -116.5 -33.5t-117.5 -87.5v151q100 109 244 109q68 0 124.5 -14t145.5 -52q66 -28 115 -41.5t96 -13.5q54 0 118 32t118 89v-150q-102 -110 -244 -110q-72 0 -135 16.5t-135 48.5q-75 32 -120 44t-93 12z" />
    <glyph glyph-name="uni00A0" unicode="&#xa0;" horiz-adv-x="570" 
 />
    <glyph glyph-name="exclamdown" unicode="&#xa1;" horiz-adv-x="547" 
d="M219 684h105l51 -1057h-207zM393 983q0 -135 -121 -135q-60 0 -90 35.5t-30 99.5q0 63 31.5 99t88.5 36q51 0 86 -32t35 -103z" />
    <glyph glyph-name="cent" unicode="&#xa2;" 
d="M971 240q-105 -54 -252 -60v-200h-133v206q-203 32 -299.5 168.5t-96.5 386.5q0 508 396 570v172h135v-164q75 -3 146 -19.5t120 -39.5l-49 -140q-133 51 -242 51q-172 0 -253 -105.5t-81 -322.5q0 -212 79.5 -313.5t246.5 -101.5q141 0 283 59v-147z" />
    <glyph glyph-name="sterling" unicode="&#xa3;" 
d="M682 1481q190 0 360 -84l-61 -133q-154 77 -297 77q-123 0 -185.5 -62t-62.5 -202v-295h422v-127h-422v-221q0 -100 -32.5 -168t-106.5 -112h795v-154h-1029v141q205 47 205 291v223h-198v127h198v316q0 178 112 280.5t302 102.5z" />
    <glyph glyph-name="currency" unicode="&#xa4;" 
d="M184 723q0 122 74 229l-135 140l94 92l135 -133q104 73 234 73q127 0 229 -73l137 133l95 -92l-134 -138q74 -113 74 -231q0 -131 -74 -234l131 -135l-92 -92l-137 133q-102 -71 -229 -71q-134 0 -234 73l-135 -133l-92 92l133 136q-74 107 -74 231zM313 723
q0 -112 78.5 -192t194.5 -80t195 79.5t79 192.5q0 114 -80 195t-194 81q-116 0 -194.5 -82t-78.5 -194z" />
    <glyph glyph-name="yen" unicode="&#xa5;" 
d="M584 735l379 727h174l-416 -770h262v-127h-317v-170h317v-127h-317v-268h-164v268h-316v127h316v170h-316v127h256l-411 770h178z" />
    <glyph glyph-name="brokenbar" unicode="&#xa6;" horiz-adv-x="1128" 
d="M494 1556h141v-776h-141v776zM494 281h141v-777h-141v777z" />
    <glyph glyph-name="section" unicode="&#xa7;" horiz-adv-x="1057" 
d="M139 809q0 86 43 154.5t121 105.5q-74 40 -116 95.5t-42 140.5q0 121 103.5 190.5t300.5 69.5q94 0 173.5 -14.5t176.5 -53.5l-53 -131q-98 39 -165.5 52.5t-143.5 13.5q-116 0 -174 -29.5t-58 -93.5q0 -60 61.5 -102t215.5 -97q186 -68 261 -143.5t75 -182.5
q0 -90 -41 -160.5t-115 -111.5q153 -81 153 -227q0 -140 -117 -216.5t-329 -76.5q-218 0 -346 65v148q78 -37 175 -59.5t179 -22.5q134 0 204.5 38t70.5 109q0 46 -24 75t-78 58t-169 72q-142 52 -209 97t-100 102t-33 135zM285 829q0 -77 66 -129.5t233 -113.5l49 -19
q137 80 137 191q0 83 -73.5 139t-258.5 113q-68 -19 -110.5 -69t-42.5 -112z" />
    <glyph glyph-name="dieresis" unicode="&#xa8;" horiz-adv-x="1182" 
d="M309 1393q0 52 26.5 75t63.5 23q38 0 65.5 -23t27.5 -75q0 -50 -27.5 -74.5t-65.5 -24.5q-37 0 -63.5 24.5t-26.5 74.5zM690 1393q0 52 26.5 75t63.5 23t64.5 -23t27.5 -75q0 -50 -27.5 -74.5t-64.5 -24.5t-63.5 24.5t-26.5 74.5z" />
    <glyph glyph-name="copyright" unicode="&#xa9;" horiz-adv-x="1704" 
d="M893 1059q-125 0 -192.5 -87t-67.5 -241q0 -168 63.5 -249t194.5 -81q86 0 211 45v-124q-48 -20 -98.5 -34t-120.5 -14q-194 0 -298 120.5t-104 336.5q0 209 110.5 332t301.5 123q128 0 246 -60l-58 -118q-108 51 -188 51zM100 731q0 200 100 375t275 276t377 101
q200 0 375 -100t276 -275t101 -377q0 -197 -97 -370t-272 -277t-383 -104q-207 0 -382 103.5t-272.5 276.5t-97.5 371zM205 731q0 -173 87 -323.5t237.5 -237t322.5 -86.5q174 0 323 87t236.5 235.5t87.5 324.5q0 174 -87 323t-235.5 236.5t-324.5 87.5q-174 0 -323 -87
t-236.5 -235.5t-87.5 -324.5z" />
    <glyph glyph-name="ordfeminine" unicode="&#xaa;" horiz-adv-x="725" 
d="M532 801l-24 84q-92 -97 -232 -97q-95 0 -150.5 49.5t-55.5 151.5t77 154.5t242 58.5l117 4v39q0 133 -148 133q-100 0 -204 -51l-43 96q114 56 247 56q130 0 198.5 -52.5t68.5 -173.5v-452h-93zM193 989q0 -100 112 -100q201 0 201 180v49l-98 -4q-112 -4 -163.5 -32.5
t-51.5 -92.5z" />
    <glyph glyph-name="guillemotleft" unicode="&#xab;" horiz-adv-x="966" 
d="M288 5q-166 261 -166 493.5t165 494.5h150l-30 -52q-126 -222 -126 -441q0 -221 126 -442l30 -53h-149zM686 5q-166 261 -166 493.5t166 494.5h149l-29 -52q-127 -222 -127 -441q0 -221 126 -442l30 -53h-149z" />
    <glyph glyph-name="logicalnot" unicode="&#xac;" 
d="M1065 791v-527h-137v389h-824v138h961z" />
    <glyph glyph-name="uni00AD" unicode="&#xad;" horiz-adv-x="659" 
d="M84 473v152h491v-152h-491z" />
    <glyph glyph-name="registered" unicode="&#xae;" horiz-adv-x="1704" 
d="M723 762h108q80 0 128.5 41.5t48.5 105.5q0 75 -43 107.5t-136 32.5h-106v-287zM1157 913q0 -80 -42.5 -141.5t-119.5 -91.5l238 -395h-168l-207 354h-135v-354h-148v891h261q166 0 243.5 -65t77.5 -198zM100 731q0 200 100 375t275 276t377 101q200 0 375 -100t276 -275
t101 -377q0 -197 -97 -370t-272 -277t-383 -104q-207 0 -382 103.5t-272.5 276.5t-97.5 371zM205 731q0 -173 87 -323.5t237.5 -237t322.5 -86.5q174 0 323 87t236.5 235.5t87.5 324.5q0 174 -87 323t-235.5 236.5t-324.5 87.5q-174 0 -323 -87t-236.5 -235.5t-87.5 -324.5z
" />
    <glyph glyph-name="overscore" unicode="&#xaf;" horiz-adv-x="1024" 
d="M1030 1556h-1036v127h1036v-127z" />
    <glyph glyph-name="degree" unicode="&#xb0;" horiz-adv-x="877" 
d="M127 1171q0 130 90.5 221t220.5 91t221 -90.5t91 -221.5q0 -84 -41 -155.5t-114 -113.5t-157 -42q-130 0 -220.5 90t-90.5 221zM242 1171q0 -82 58.5 -139t139.5 -57q80 0 137.5 56.5t57.5 139.5q0 84 -56.5 140.5t-138.5 56.5q-83 0 -140.5 -57t-57.5 -140z" />
    <glyph glyph-name="plusminus" unicode="&#xb1;" 
d="M653 791h412v-138h-412v-426h-139v426h-410v138h410v428h139v-428zM104 1v138h961v-138h-961z" />
    <glyph glyph-name="twosuperior" unicode="&#xb2;" horiz-adv-x="711" 
d="M653 586h-604v104l236 230q89 86 130 134.5t57.5 86.5t16.5 92q0 68 -40 102.5t-103 34.5q-52 0 -101 -19t-118 -69l-66 88q131 111 283 111q132 0 205.5 -65t73.5 -177q0 -80 -44.5 -155.5t-191.5 -213.5l-174 -165h440v-119z" />
    <glyph glyph-name="threesuperior" unicode="&#xb3;" horiz-adv-x="711" 
d="M627 1255q0 -80 -41 -131.5t-109 -74.5q176 -47 176 -209q0 -128 -92 -199.5t-260 -71.5q-152 0 -268 56v123q147 -68 270 -68q211 0 211 162q0 145 -231 145h-117v107h119q103 0 152.5 39.5t49.5 107.5q0 61 -40 95t-107 34q-66 0 -122 -21.5t-112 -56.5l-69 90
q63 45 133 72t164 27q136 0 214.5 -59.5t78.5 -166.5z" />
    <glyph glyph-name="acute" unicode="&#xb4;" horiz-adv-x="1182" 
d="M393 1266q48 62 103.5 150t87.5 153h202v-21q-44 -65 -131 -160t-151 -147h-111v25z" />
    <glyph glyph-name="mu" unicode="&#xb5;" horiz-adv-x="1268" 
d="M342 381q0 -262 254 -262q171 0 250.5 94.5t79.5 306.5v576h166v-1096h-136l-26 147h-10q-111 -167 -340 -167q-150 0 -238 92h-10q10 -84 10 -244v-320h-166v1588h166v-715z" />
    <glyph glyph-name="paragraph" unicode="&#xb6;" horiz-adv-x="1341" 
d="M1120 -260h-114v1712h-213v-1712h-115v819q-62 -18 -146 -18q-216 0 -317.5 125t-101.5 376q0 260 109 387t341 127h557v-1816z" />
    <glyph glyph-name="periodcentered" unicode="&#xb7;" horiz-adv-x="545" 
d="M152 723q0 66 31 100.5t87 34.5q58 0 90.5 -34.5t32.5 -100.5q0 -65 -33 -100t-90 -35q-51 0 -84.5 31.5t-33.5 103.5z" />
    <glyph glyph-name="cedilla" unicode="&#xb8;" horiz-adv-x="465" 
d="M436 -289q0 -97 -76.5 -150t-226.5 -53q-51 0 -96 9v106q45 -8 104 -8q79 0 119.5 20t40.5 74q0 43 -39.5 69.5t-148.5 43.5l88 178h110l-55 -115q180 -39 180 -174z" />
    <glyph glyph-name="onesuperior" unicode="&#xb9;" horiz-adv-x="711" 
d="M338 1462h143v-876h-133v579q0 91 6 181q-22 -22 -49 -44.5t-162 -117.5l-67 96z" />
    <glyph glyph-name="ordmasculine" unicode="&#xba;" horiz-adv-x="768" 
d="M702 1135q0 -164 -85.5 -255.5t-235.5 -91.5q-146 0 -230.5 93t-84.5 254q0 163 84 253.5t235 90.5q152 0 234.5 -91t82.5 -253zM188 1135q0 -122 45.5 -183t149.5 -61q105 0 151 61t46 183q0 123 -46 182t-151 59q-103 0 -149 -59t-46 -182z" />
    <glyph glyph-name="guillemotright" unicode="&#xbb;" horiz-adv-x="966" 
d="M679 993q165 -262 165 -494.5t-165 -493.5h-150l30 53q126 220 126 442q0 219 -126 441l-30 52h150zM280 993q166 -262 166 -494.5t-166 -493.5h-149l30 53q126 220 126 442q0 219 -126 441l-30 52h149z" />
    <glyph glyph-name="onequarter" unicode="&#xbc;" horiz-adv-x="1597" 
d="M1298 1462l-903 -1462h-143l903 1462h143zM337 1462h143v-876h-133v579q0 91 6 181q-22 -22 -49 -44.5t-162 -117.5l-67 96zM1489 203h-125v-202h-145v202h-402v101l408 579h139v-563h125v-117zM1219 320v195q0 134 6 209q-5 -12 -17 -31.5t-27 -42l-30 -45t-26 -39.5
l-168 -246h262z" />
    <glyph glyph-name="onehalf" unicode="&#xbd;" horiz-adv-x="1597" 
d="M1230 1462l-903 -1462h-143l903 1462h143zM308 1462h143v-876h-133v579q0 91 6 181q-22 -22 -49 -44.5t-162 -117.5l-67 96zM1499 1h-604v104l236 230q89 86 130 134.5t57.5 86.5t16.5 92q0 68 -40 102.5t-103 34.5q-52 0 -101 -19t-118 -69l-66 88q131 111 283 111
q132 0 205.5 -65t73.5 -177q0 -80 -44.5 -155.5t-191.5 -213.5l-174 -165h440v-119z" />
    <glyph glyph-name="threequarters" unicode="&#xbe;" horiz-adv-x="1597" 
d="M620 1255q0 -80 -41 -131.5t-109 -74.5q176 -47 176 -209q0 -128 -92 -199.5t-260 -71.5q-152 0 -268 56v123q147 -68 270 -68q211 0 211 162q0 145 -231 145h-117v107h119q103 0 152.5 39.5t49.5 107.5q0 61 -40 95t-107 34q-66 0 -122 -21.5t-112 -56.5l-69 90
q63 45 133 72t164 27q136 0 214.5 -59.5t78.5 -166.5zM1390 1462l-903 -1462h-143l903 1462h143zM1569 203h-125v-202h-145v202h-402v101l408 579h139v-563h125v-117zM1299 320v195q0 134 6 209q-5 -12 -17 -31.5t-27 -42l-30 -45t-26 -39.5l-168 -246h262z" />
    <glyph glyph-name="questiondown" unicode="&#xbf;" horiz-adv-x="879" 
d="M590 684v-51q0 -122 -37.5 -196t-134.5 -158q-121 -106 -151.5 -143.5t-43 -76t-12.5 -94.5q0 -100 66 -156.5t188 -56.5q80 0 155 19t173 67l59 -135q-197 -96 -395 -96q-190 0 -298 93t-108 263q0 70 17.5 122.5t49.5 97t76.5 85.5t98.5 88q101 88 133.5 146t32.5 151
v31h131zM639 983q0 -135 -121 -135q-59 0 -90 34.5t-31 100.5q0 64 33 99.5t88 35.5q51 0 86 -32t35 -103z" />
    <glyph glyph-name="uni02BC" unicode="&#x2bc;" horiz-adv-x="348" 
d="M309 1462l15 -22q-26 -100 -75 -232.5t-102 -246.5h-122q70 285 102 501h182z" />
    <glyph glyph-name="circumflex" unicode="&#x2c6;" horiz-adv-x="1212" 
d="M268 1264q127 136 178 200t74 105h166q22 -42 76.5 -108.5t179.5 -196.5v-23h-119q-88 55 -221 186q-136 -134 -219 -186h-115v23z" />
    <glyph glyph-name="caron" unicode="&#x2c7;" horiz-adv-x="1212" 
d="M268 1569h115q114 -74 219 -189q130 130 221 189h119v-25l-66 -68q-144 -148 -190 -235h-166q-23 41 -74 104t-178 199v25z" />
    <glyph glyph-name="macron" unicode="&#x2c9;" horiz-adv-x="1202" 
d="M301 1378h600v-137h-600v137z" />
    <glyph glyph-name="breve" unicode="&#x2d8;" horiz-adv-x="1212" 
d="M598 1241q-140 0 -218 68.5t-87 199.5h104q6 -49 26.5 -77t57 -41t121.5 -13q101 0 149 32t58 99h104q-10 -126 -93.5 -197t-221.5 -71z" />
    <glyph glyph-name="dotaccent" unicode="&#x2d9;" horiz-adv-x="518" 
d="M162 1393q0 57 28 83.5t70 26.5q40 0 69 -27t29 -83t-29 -83.5t-69 -27.5q-42 0 -70 27.5t-28 83.5z" />
    <glyph glyph-name="ring" unicode="&#x2da;" horiz-adv-x="1182" 
d="M813 1458q0 -98 -61.5 -157.5t-163.5 -59.5q-101 0 -161 58.5t-60 156.5t60.5 155.5t160.5 57.5q101 0 163 -59.5t62 -151.5zM705 1456q0 56 -33 86.5t-84 30.5t-84 -30.5t-33 -86.5t30 -86.5t87 -30.5q52 0 84.5 30.5t32.5 86.5z" />
    <glyph glyph-name="ogonek" unicode="&#x2db;" horiz-adv-x="403" 
d="M178 -238q0 -94 94 -94q42 0 97 13v-109q-65 -18 -125 -18q-207 0 -207 188q0 70 43 137.5t115 120.5h120q-68 -66 -102.5 -120.5t-34.5 -117.5z" />
    <glyph glyph-name="tilde" unicode="&#x2dc;" horiz-adv-x="1212" 
d="M788 1243q-43 0 -84 18.5t-80.5 41t-76 41t-70.5 18.5q-50 0 -75.5 -30t-39.5 -91h-98q13 121 70.5 189.5t148.5 68.5q46 0 89 -18.5t82 -41t75 -41t68 -18.5q49 0 73 29.5t39 91.5h99q-13 -121 -69.5 -189.5t-150.5 -68.5z" />
    <glyph glyph-name="hungarumlaut" unicode="&#x2dd;" horiz-adv-x="1182" 
d="M231 1266q36 48 91 141t86 162h186v-21q-37 -63 -122.5 -161t-143.5 -146h-97v25zM588 1266q49 68 99.5 156.5t76.5 146.5h186v-21q-37 -63 -122.5 -161t-143.5 -146h-96v25z" />
    <glyph glyph-name="uni02F3" unicode="&#x2f3;" horiz-adv-x="682" 
d="M565 -338q0 -97 -62.5 -157t-164.5 -60q-101 0 -161 58.5t-60 156.5t60 156.5t161 58.5t164 -59t63 -154zM455 -340q0 57 -33 87t-84 30t-84 -30t-33 -87q0 -56 30 -86.5t87 -30.5q53 0 85 30.5t32 86.5z" />
    <glyph glyph-name="hook" unicode="&#x309;" horiz-adv-x="0" 
d="M-397 1495q0 -140 -166 -174l-10 -113h-105l-12 176q86 14 125 39t39 68t-33.5 63.5t-106.5 20.5q-62 0 -94 -6v100q38 10 107 10q256 0 256 -184z" />
    <glyph glyph-name="uni030F" unicode="&#x30f;" horiz-adv-x="0" 
d="M-332 1241h-96q-52 42 -140.5 143t-125.5 164v21h186q28 -61 77.5 -148t98.5 -155v-25zM-688 1241h-96q-56 44 -143 144t-124 163v21h187q28 -61 77.5 -148t98.5 -155v-25z" />
    <glyph glyph-name="dotbelow" unicode="&#x323;" horiz-adv-x="0" 
d="M-709 -242q0 57 29.5 84t71.5 27q40 0 69 -27t29 -84q0 -55 -29 -82.5t-69 -27.5q-42 0 -71.5 27.5t-29.5 82.5z" />
    <glyph glyph-name="tonos" unicode="&#x384;" horiz-adv-x="1182" 
d="M508 1270q27 72 53.5 185.5t38.5 195.5h184v-23q-18 -74 -72.5 -192.5t-103.5 -194.5h-100v29z" />
    <glyph glyph-name="afii57388" unicode="&#x60c;" horiz-adv-x="543" 
d="M280 0q-130 0 -130 117v71q0 250 225 423l68 -34q-148 -162 -151 -312h16q98 0 98 -112v-37q0 -116 -112 -116h-14z" />
    <glyph glyph-name="uni0615" unicode="&#x615;" horiz-adv-x="6" 
d="M504 1541h84q76 0 114 13q66 23 71 89q3 51 -41 58q-40 7 -97 -33q-64 -45 -131 -127zM849 1654q0 -197 -234 -197h-315v84h111v462h75v-383q114 165 243 166q44 1 77 -23q43 -33 43 -109z" />
    <glyph glyph-name="uni061B" unicode="&#x61b;" horiz-adv-x="543" 
d="M153 130.5q0 52.5 38 90.5t89 37q52 1 90 -37t38 -90.5t-38 -90.5t-90 -37q-51 -1 -89 37t-38 90.5zM280 418q-130 0 -130 117v71q0 250 225 422l68 -33q-148 -163 -151 -313h16q98 0 98 -112v-42q0 -110 -112 -110h-14z" />
    <glyph glyph-name="uni061F" unicode="&#x61f;" horiz-adv-x="875" 
d="M398 130q0 53 39 91q37 37 87 37q55 0 91 -37q38 -38 38 -91q0 -52 -38 -90q-37 -37 -87 -37q-55 0 -92 37q-38 38 -38 90zM434 425v71q0 116 -85 199l-93 91q-164 160 -164 325q0 162 112 266q106 99 276 99t334 -115l-69 -149q-123 80 -260 80q-81 0 -136 -46
q-72 -61 -72 -159t117 -213l75 -75q152 -150 152 -310v-64h-187z" />
    <glyph glyph-name="uni0621" unicode="&#x621;" horiz-adv-x="778" 
d="M91 -26v145l211 104q-210 62 -207 268q3 172 142 257q140 85 357 37v-175q-164 45 -253.5 -0.5t-88.5 -127.5q0 -126 183 -158q38 -7 78 -5t174 62v-192z" />
    <glyph glyph-name="uni0627" unicode="&#x627;" horiz-adv-x="448" 
d="M138 1412l173 75v-1485h-130z" />
    <glyph glyph-name="uni0628" unicode="&#x628;" horiz-adv-x="1832" 
d="M921 186q137 0 207 6q429 40 444 144q9 69 -5 202q-13 132 -39 214l157 39q50 -203 50 -349q-1 -144 -36 -220q-103 -222 -792 -222q-340 0 -509 71q-273 113 -298 396q-12 133 31 285l142 -38q-21 -141 -18 -207q12 -259 339 -306q110 -16 327 -15zM979.904 -209.011
l88.8047 -88.8057q28.8887 -27.8184 1.07031 -55.6367l-93.085 -93.0859q-29.959 -29.958 -58.8477 0l-93.085 92.0156q-27.8184 28.8887 3.20996 59.917l86.665 86.666q32.0986 32.0977 65.2676 -1.07031z" />
    <glyph glyph-name="uni0629" unicode="&#x629;" horiz-adv-x="915" 
d="M449 651q-191 -174 -190 -330q1 -140 199 -140q203 0 204 131q2 157 -213 339zM459 4q-161 0 -257 75q-102 79 -103 238q-2 195 230 444l-36 31l100 141q426 -338 429 -616q2 -159 -116 -249q-85 -65 -247 -64zM639.657 1401.99l88.8057 -88.8057
q27.8184 -27.8184 1.07031 -55.6367l-93.0859 -93.0859q-29.958 -29.958 -59.917 0l-93.085 92.0156q-27.8184 28.8887 4.2793 59.917l86.666 86.666q32.0986 32.0977 65.2666 -1.07031zM318.674 1401.99l88.8047 -88.8057q27.8193 -27.8184 1.07031 -55.6367
l-93.085 -93.0859q-29.959 -29.958 -59.917 0l-93.0859 92.0156q-27.8184 28.8887 4.28027 59.917l86.665 86.666q32.0986 32.0977 65.2676 -1.07031z" />
    <glyph glyph-name="uni062A" unicode="&#x62a;" horiz-adv-x="1832" 
d="M921 186q137 0 207 6q429 40 444 144q9 69 -5 202q-13 132 -39 214l157 39q50 -203 50 -349q-1 -144 -36 -220q-103 -222 -792 -222q-340 0 -509 71q-273 113 -298 396q-12 133 31 285l142 -38q-21 -141 -18 -207q12 -259 339 -306q110 -16 327 -15zM1088.66 1106.99
l88.8057 -88.8057q27.8184 -27.8184 1.07031 -55.6367l-93.0859 -93.0859q-29.958 -29.958 -59.917 0l-93.085 92.0156q-27.8184 28.8887 4.2793 59.917l86.666 86.666q32.0986 32.0977 65.2666 -1.07031zM767.674 1106.99l88.8047 -88.8057
q27.8193 -27.8184 1.07031 -55.6367l-93.085 -93.0859q-29.959 -29.958 -59.917 0l-93.0859 92.0156q-27.8184 28.8887 4.28027 59.917l86.665 86.666q32.0986 32.0977 65.2676 -1.07031z" />
    <glyph glyph-name="uni062B" unicode="&#x62b;" horiz-adv-x="1832" 
d="M921 186q137 0 207 6q429 40 444 144q9 69 -5 202q-13 132 -39 214l157 39q50 -203 50 -349q-1 -144 -36 -220q-103 -222 -792 -222q-340 0 -509 71q-273 113 -298 396q-12 133 31 285l142 -38q-21 -141 -18 -207q12 -259 339 -306q110 -16 327 -15zM1097.73 1039.08
l88.8057 -88.8057q27.8184 -27.8184 0 -55.6377l-92.0156 -93.085q-29.959 -29.958 -59.917 0l-93.0859 93.085q-27.8184 27.8193 3.20996 58.8477l86.666 86.666q33.168 32.0977 66.3369 -1.07031zM776.743 1039.08l88.8057 -88.8057q27.8184 -27.8184 0 -55.6377
l-92.0156 -93.085q-29.958 -29.958 -59.917 0l-93.085 93.085q-27.8184 27.8193 3.20996 58.8477l86.665 86.666q33.1689 32.0977 66.3369 -1.07031zM937.235 1293.73l88.8057 -88.8057q27.8184 -27.8184 0 -55.6377l-93.0859 -93.085q-28.8887 -29.959 -58.8467 0
l-93.085 93.085q-27.8193 27.8193 3.20898 58.8477l86.666 86.665q33.168 32.0986 66.3369 -1.06934z" />
    <glyph glyph-name="uni062C" unicode="&#x62c;" horiz-adv-x="1280" 
d="M120 625q172 253 370 249q32 0 71 -10q39 -11 196 -88q158 -76 239 -105q81 -28 174 -40l-25 -176q-128 -10 -150 -12q-245 -30 -404 -121q-326 -188 -326 -462q0 -215 195 -293q116 -46 317 -47q197 0 374 50l44 -155q-208 -64 -416 -64q-259 0 -440 94
q-242 126 -243 412q0 189 103 342q154 232 486 329q96 28 185 35q-69 18 -199 79q-130 62 -165 62q-135 0 -271 -175zM797.904 81.9893l88.8047 -88.8057q28.8887 -27.8184 1.07031 -55.6367l-93.085 -93.0859q-29.959 -29.958 -58.8477 0l-93.085 92.0156
q-27.8184 28.8887 3.20996 59.917l86.665 86.666q32.0986 32.0977 65.2676 -1.07031z" />
    <glyph glyph-name="uni062D" unicode="&#x62d;" horiz-adv-x="1280" 
d="M120 625q172 253 370 249q32 0 71 -10q39 -11 196 -88q158 -76 239 -105q81 -28 174 -40l-25 -176q-128 -10 -150 -12q-245 -30 -404 -121q-326 -188 -326 -462q0 -215 195 -293q116 -46 317 -47q197 0 374 50l44 -155q-208 -64 -416 -64q-259 0 -440 94
q-242 126 -243 412q0 189 103 342q154 232 486 329q96 28 185 35q-69 18 -199 79q-130 62 -165 62q-135 0 -271 -175z" />
    <glyph glyph-name="uni062E" unicode="&#x62e;" horiz-adv-x="1280" 
d="M646.904 1304.99l88.8047 -88.8057q28.8887 -27.8184 1.07031 -55.6367l-93.085 -93.0859q-29.959 -29.958 -58.8477 0l-93.085 92.0156q-27.8184 28.8887 3.20996 59.917l86.665 86.666q32.0986 32.0977 65.2676 -1.07031zM120 625q172 253 370 249q32 0 71 -10
q39 -11 196 -88q158 -76 239 -105q81 -28 174 -40l-25 -176q-128 -10 -150 -12q-245 -30 -404 -121q-326 -188 -326 -462q0 -215 195 -293q116 -46 317 -47q197 0 374 50l44 -155q-208 -64 -416 -64q-259 0 -440 94q-242 126 -243 412q0 189 103 342q154 232 486 329
q96 28 185 35q-69 18 -199 79q-130 62 -165 62q-135 0 -271 -175z" />
    <glyph glyph-name="uni062F" unicode="&#x62f;" horiz-adv-x="992" 
d="M98 200q113 -38 264 -37q236 0 332 71q49 36 49 82q0 101 -116 252q-95 122 -253 243l95 145q198 -148 305 -298q126 -176 126 -341q0 -161 -149 -251q-140 -84 -402 -83q-134 0 -252 42z" />
    <glyph glyph-name="uni0630" unicode="&#x630;" horiz-adv-x="992" 
d="M98 200q113 -38 264 -37q236 0 332 71q49 36 49 82q0 101 -116 252q-95 122 -253 243l95 145q198 -148 305 -298q126 -176 126 -341q0 -161 -149 -251q-140 -84 -402 -83q-134 0 -252 42zM453.904 1431.99l88.8047 -88.8057q28.8887 -27.8184 1.07031 -55.6367
l-93.085 -93.0859q-29.959 -29.958 -58.8477 0l-93.085 92.0156q-27.8184 28.8887 3.20996 59.917l86.665 86.666q32.0986 32.0977 65.2676 -1.07031z" />
    <glyph glyph-name="uni0631" unicode="&#x631;" horiz-adv-x="867" 
d="M627 -309q-181 -224 -543 -225h-3l-55 136q548 38 579 472q8 108 -65 381l150 87q81 -231 81 -427q-1 -248 -144 -424z" />
    <glyph glyph-name="uni0632" unicode="&#x632;" horiz-adv-x="867" 
d="M627 -309q-181 -224 -543 -225h-3l-55 136q548 38 579 472q8 108 -65 381l150 87q81 -231 81 -427q-1 -248 -144 -424zM577.904 1060.99l88.8047 -88.8057q28.8887 -27.8184 1.07031 -55.6367l-93.085 -93.0859q-29.959 -29.958 -58.8477 0l-93.085 92.0156
q-27.8184 28.8887 3.20996 59.917l86.665 86.666q32.0986 32.0977 65.2676 -1.07031z" />
    <glyph glyph-name="uni0633" unicode="&#x633;" horiz-adv-x="2384" 
d="M1457 0q-72 0 -156 51q-3 -567 -611 -569q-259 0 -413 117q-178 137 -177 419q0 207 92 416l149 -55q-80 -195 -80 -344q0 -380 432 -380q461 1 461 398q0 141 -107 358l137 119q1 -1 103 -243q45 -106 174 -106q154 1 172 191l19 191h118l26 -192q26 -195 183 -194
q92 1 128 71q42 82 17 243q-12 80 -39 198l157 50q42 -119 52 -273q31 -462 -313 -466q-186 -2 -270 148q-77 -149 -254 -148z" />
    <glyph glyph-name="uni0634" unicode="&#x634;" horiz-adv-x="2384" 
d="M1863.73 1073.08l88.8057 -88.8057q27.8184 -27.8184 0 -55.6377l-92.0156 -93.085q-29.959 -29.958 -59.917 0l-93.0859 93.085q-27.8184 27.8193 3.20996 58.8477l86.666 86.666q33.168 32.0977 66.3369 -1.07031zM1542.74 1073.08l88.8057 -88.8057
q27.8184 -27.8184 0 -55.6377l-92.0156 -93.085q-29.958 -29.958 -59.917 0l-93.085 93.085q-27.8184 27.8193 3.20996 58.8477l86.665 86.666q33.1689 32.0977 66.3369 -1.07031zM1703.24 1327.73l88.8057 -88.8057q27.8184 -27.8184 0 -55.6377l-93.0859 -93.085
q-28.8887 -29.959 -58.8467 0l-93.085 93.085q-27.8193 27.8193 3.20898 58.8477l86.666 86.665q33.168 32.0986 66.3369 -1.06934zM1457 0q-72 0 -156 51q-3 -567 -611 -569q-259 0 -413 117q-178 137 -177 419q0 207 92 416l149 -55q-80 -195 -80 -344q0 -380 432 -380
q461 1 461 398q0 141 -107 358l137 119q1 -1 103 -243q45 -106 174 -106q154 1 172 191l19 191h118l26 -192q26 -195 183 -194q92 1 128 71q42 82 17 243q-12 80 -39 198l157 50q42 -119 52 -273q31 -462 -313 -466q-186 -2 -270 148q-77 -149 -254 -148z" />
    <glyph glyph-name="uni0635" unicode="&#x635;" horiz-adv-x="2514" 
d="M1287 287q25 -55 78 -60q368 531 704 530q153 0 247 -88q100 -92 102 -246q1 -187 -161 -309q-152 -116 -528 -115l-196 1q-143 1 -232 51q-3 -567 -611 -569q-259 0 -413 117q-178 137 -177 419q0 207 92 416l149 -55q-80 -195 -80 -344q0 -380 432 -380q461 1 461 398
q0 141 -107 358l137 119q26 -72 103 -243zM1529 187h183q271 0 390 46q149 59 138 195q-4 53 -32 86q-49 64 -144 64q-126 0 -263 -106q-116 -90 -272 -285z" />
    <glyph glyph-name="uni0636" unicode="&#x636;" horiz-adv-x="2514" 
d="M1922.9 1243.99l88.8047 -88.8057q28.8887 -27.8184 1.07031 -55.6367l-93.085 -93.0859q-29.959 -29.958 -58.8477 0l-93.085 92.0156q-27.8184 28.8887 3.20996 59.917l86.665 86.666q32.0986 32.0977 65.2676 -1.07031zM1287 287q25 -55 78 -60q368 531 704 530
q153 0 247 -88q100 -92 102 -246q1 -187 -161 -309q-152 -116 -528 -115l-196 1q-143 1 -232 51q-3 -567 -611 -569q-259 0 -413 117q-178 137 -177 419q0 207 92 416l149 -55q-80 -195 -80 -344q0 -380 432 -380q461 1 461 398q0 141 -107 358l137 119q26 -72 103 -243z
M1529 187h183q271 0 390 46q149 59 138 195q-4 53 -32 86q-49 64 -144 64q-126 0 -263 -106q-116 -90 -272 -285z" />
    <glyph glyph-name="uni0637" unicode="&#x637;" horiz-adv-x="1574" 
d="M589 186h183q269 0 390 48q149 58 138 195q-4 49 -32 86q-48 63 -144 63q-126 1 -263 -106q-111 -86 -272 -286zM436 256q365 502 693 502q151 0 247 -88q100 -92 102 -246q1 -195 -161 -310q-162 -114 -528 -114h-106q-445 0 -615 32l-1 153h227l-33 1233l175 69v-1231z
" />
    <glyph glyph-name="uni0638" unicode="&#x638;" horiz-adv-x="1574" 
d="M993.904 1249.99l88.8047 -88.8057q28.8887 -27.8184 1.07031 -55.6367l-93.085 -93.0859q-29.959 -29.958 -58.8477 0l-93.085 92.0156q-27.8184 28.8887 3.20996 59.917l86.665 86.666q32.0986 32.0977 65.2676 -1.07031zM589 186h183q269 0 390 48q149 58 138 195
q-4 49 -32 86q-48 63 -144 63q-126 1 -263 -106q-111 -86 -272 -286zM436 256q365 502 693 502q151 0 247 -88q100 -92 102 -246q1 -195 -161 -310q-162 -114 -528 -114h-106q-445 0 -615 32l-1 153h227l-33 1233l175 69v-1231z" />
    <glyph glyph-name="uni0639" unicode="&#x639;" horiz-adv-x="1227" 
d="M430 811q-70 -102 20 -209q65 -77 150 -112q17 -8 181 19q21 3 225 36v-167q-252 -18 -460 -125q-281 -144 -280 -402q1 -146 114 -236q114 -92 398 -93q190 0 322 38l44 -156q-166 -51 -364 -51q-408 0 -572 188q-112 128 -110 307q1 201 99 340q102 145 244 211
q-203 111 -202 314q0 120 59 210q105 160 299 160q209 0 331 -168l-92 -114q-98 100 -218 103q-123 3 -188 -93z" />
    <glyph glyph-name="uni063A" unicode="&#x63a;" horiz-adv-x="1227" 
d="M430 811q-70 -102 20 -209q65 -77 150 -112q17 -8 181 19q21 3 225 36v-167q-252 -18 -460 -125q-281 -144 -280 -402q1 -146 114 -236q114 -92 398 -93q190 0 322 38l44 -156q-166 -51 -364 -51q-408 0 -572 188q-112 128 -110 307q1 201 99 340q102 145 244 211
q-203 111 -202 314q0 120 59 210q105 160 299 160q209 0 331 -168l-92 -114q-98 100 -218 103q-123 3 -188 -93zM623.904 1515.99l88.8047 -88.8057q28.8887 -27.8184 1.07031 -55.6367l-93.085 -93.0859q-29.959 -29.958 -58.8477 0l-93.085 92.0156
q-27.8184 28.8887 3.20996 59.917l86.665 86.666q32.0986 32.0977 65.2676 -1.07031z" />
    <glyph glyph-name="afii57440" unicode="&#x640;" horiz-adv-x="260" 
d="M267 0h-271q-48 0 -48 74v34q0 77 48 77h271q48 0 48 -77v-34q0 -74 -48 -74z" />
    <glyph glyph-name="uni0641" unicode="&#x641;" horiz-adv-x="1857" 
d="M921 186q353 0 484 40q168 51 192 196q-69 -49 -217 -49q-159 1 -239 112q-53 73 -52 180q1 132 54 237q93 186 274 186q169 0 253 -144q92 -155 90 -390q-1 -134 -26 -219q-64 -212 -286 -283q-161 -52 -541 -52q-340 0 -509 71q-273 113 -298 396q-12 133 31 285
l142 -38q-21 -141 -18 -207q12 -259 339 -306q103 -15 327 -15zM1399 546q123 -1 201 57q7 26 -11 123q-35 190 -163 190q-137 0 -178 -172q-9 -39 -10 -71q1 -126 161 -127zM1440.9 1506.99l88.8047 -88.8057q28.8887 -27.8184 1.07031 -55.6367l-93.085 -93.0859
q-29.959 -29.958 -58.8477 0l-93.085 92.0156q-27.8184 28.8887 3.20996 59.917l86.665 86.666q32.0986 32.0977 65.2676 -1.07031z" />
    <glyph glyph-name="uni0642" unicode="&#x642;" horiz-adv-x="1427" 
d="M690 -464q-259 0 -413 117q-178 137 -177 419q0 207 93 416l148 -55q-80 -195 -80 -344q0 -380 432 -380q455 1 479 381q-99 -52 -212 -52q-158 0 -240 112q-53 74 -52 180q1 132 54 237q93 186 274 185q166 0 253 -145q80 -135 80 -394q0 -676 -639 -677zM828 409
q-10 -40 -10 -71q0 -128 161 -128q114 0 194 58q0 61 -10 123q-26 190 -163 190q-130 0 -172 -172zM1168.66 1189.99l88.8057 -88.8057q27.8184 -27.8184 1.07031 -55.6367l-93.0859 -93.0859q-29.958 -29.958 -59.917 0l-93.085 92.0156q-27.8184 28.8887 4.2793 59.917
l86.666 86.666q32.0986 32.0977 65.2666 -1.07031zM847.674 1189.99l88.8047 -88.8057q27.8193 -27.8184 1.07031 -55.6367l-93.085 -93.0859q-29.959 -29.958 -59.917 0l-93.0859 92.0156q-27.8184 28.8887 4.28027 59.917l86.665 86.666q32.0986 32.0977 65.2676 -1.07031
z" />
    <glyph glyph-name="uni0643" unicode="&#x643;" horiz-adv-x="1876" 
d="M733 785q68 -9 127 -9q66 0 106 16q78 31 78 77q-1 24 -21 39t-67 23q-70 11 -106 51t-34 94q2 103 91 148q84 43 206 50l17 1v-93l-15 -1q-75 -5 -112 -19q-91 -34 -91 -82q0 -42 42 -57q24 -9 70 -15q116 -18 116 -131q0 -98 -113 -162q-108 -62 -299 -30l-13 2v100z
M1598 466l-37 953l177 68v-1053q0 -23 -3 -59q-16 -229 -325 -326q-152 -47 -497 -48q-346 -1 -515 70q-273 116 -296 392q-12 143 29 289l142 -38q-23 -147 -20 -207q14 -280 388 -312q168 -14 554 3q413 17 403 268z" />
    <glyph glyph-name="uni0644" unicode="&#x644;" horiz-adv-x="1369" 
d="M663 -315q428 0 420 457l-24 1273l172 71v-1080q0 -2 -2 -304q4 -589 -569 -590q-236 0 -381 111q-190 147 -189 425q0 184 102 416l149 -55q-80 -195 -80 -344q0 -153 90 -263q95 -116 312 -117z" />
    <glyph glyph-name="uni0645" unicode="&#x645;" horiz-adv-x="1180" 
d="M481 207q0 -9 103 -14t141 -5q135 0 166 20q21 14 38 50q64 138 -226 257q-72 30 -130 7q-50 -20 -70 -83q-15 -48 -22 -171v-61zM826 7q-47 -1 -107 0q-184 6 -306 6q-190 0 -177 -278l24 -481l-165 -94v624q0 199 81 300q51 67 150 84q-16 341 108 457q102 96 202 95
q66 0 136 -34q381 -181 317 -416q-29 -107 -68 -170q-53 -88 -195 -93z" />
    <glyph glyph-name="uni0646" unicode="&#x646;" horiz-adv-x="1403" 
d="M1244 -183q-137 -264 -554 -265q-259 0 -413 117q-178 137 -177 419q0 207 92 416l149 -55q-80 -195 -80 -344q0 -380 432 -380q461 1 461 398q0 141 -107 358l137 119q53 -104 84 -202q43 -138 44 -269q0 -180 -68 -312zM734.904 810.989l88.8047 -88.8057
q28.8887 -27.8184 1.07031 -55.6367l-93.085 -93.0859q-29.959 -29.958 -58.8477 0l-93.085 92.0156q-27.8184 28.8887 3.20996 59.917l86.665 86.666q32.0986 32.0977 65.2676 -1.07031z" />
    <glyph glyph-name="uni0647" unicode="&#x647;" horiz-adv-x="915" 
d="M449 651q-191 -174 -190 -330q1 -140 199 -140q203 0 204 131q2 157 -213 339zM459 4q-161 0 -257 75q-102 79 -103 238q-2 195 230 444l-36 31l100 141q426 -338 429 -616q2 -159 -116 -249q-85 -65 -247 -64z" />
    <glyph glyph-name="uni0648" unicode="&#x648;" horiz-adv-x="891" 
d="M441 548q-135 -4 -180 -183q-53 -205 178 -204q121 0 191 54q0 57 -4 94q-28 244 -185 239zM727 534q64 -132 63 -352q-1 -314 -127 -477q-185 -239 -560 -242h-2l-55 139q523 31 576 438q-90 -49 -208 -49q-95 1 -160 31q-157 72 -155 254q1 116 51 226q97 217 293 218
q194 1 284 -186z" />
    <glyph glyph-name="uni0649" unicode="&#x649;" horiz-adv-x="1470" 
d="M1045 150l55 1q107 0 168 -25q105 -43 105 -179q1 -130 -79 -230q-176 -221 -586 -222q-195 0 -324 56q-285 125 -287 480q-1 200 126 470l137 -60q-93 -211 -97 -388q-9 -385 453 -382q304 2 448 141q55 52 57 95q3 69 -82 69l-111 1q-255 1 -256 202q-1 134 102 282
q50 71 114 122q144 116 323 120l58 1l-60 -192h-14q-92 0 -184 -61q-104 -71 -152 -168q-18 -36 -23 -73q-10 -63 109 -60z" />
    <glyph glyph-name="uni064A" unicode="&#x64a;" horiz-adv-x="1470" 
d="M1045 150l55 1q107 0 168 -25q105 -43 105 -179q1 -130 -79 -230q-176 -221 -586 -222q-195 0 -324 56q-285 125 -287 480q-1 200 126 470l137 -60q-93 -211 -97 -388q-9 -385 453 -382q304 2 448 141q55 52 57 95q3 69 -82 69l-111 1q-255 1 -256 202q-1 134 102 282
q50 71 114 122q144 116 323 120l58 1l-60 -192h-14q-92 0 -184 -61q-104 -71 -152 -168q-18 -36 -23 -73q-10 -63 109 -60zM890.657 -624.011l88.8057 -88.8057q27.8184 -27.8184 1.07031 -55.6367l-93.0859 -93.0859q-29.958 -29.958 -59.917 0l-93.085 92.0156
q-27.8184 28.8887 4.2793 59.917l86.666 86.666q32.0986 32.0977 65.2666 -1.07031zM569.674 -624.011l88.8047 -88.8057q27.8193 -27.8184 1.07031 -55.6367l-93.085 -93.0859q-29.959 -29.958 -59.917 0l-93.0859 92.0156q-27.8184 28.8887 4.28027 59.917l86.665 86.666
q32.0986 32.0977 65.2676 -1.07031z" />
    <glyph glyph-name="uni064B" unicode="&#x64b;" horiz-adv-x="33" 
d="M347 1153v109l480 197v-110zM347 1414v109l480 197v-110z" />
    <glyph glyph-name="uni064C" unicode="&#x64c;" horiz-adv-x="35" 
d="M683 1813q-79 1 -80 -70q0 -48 60 -75q22 -11 65 -23l5 11q18 41 19 81q-2 77 -69 76zM368 1606q1 -213 121 -213q65 0 137 69q41 40 66 89l9 19q-46 10 -83 28q-99 51 -99 152q0 55 27 90q43 59 120.5 59t123.5 -45t46 -124q1 -38 -12 -78l-6 -21l21 -1q26 -1 61 -2v-85
q-40 1 -54 2l-65 7q-70 -161 -202 -225q-40 -19 -92 -19q-115 0 -163 127q-19 50 -20 171h64zM875 1629v0v0z" />
    <glyph glyph-name="uni064D" unicode="&#x64d;" horiz-adv-x="34" 
d="M352 -515v110l481 196v-109zM352 -254v110l481 196v-109z" />
    <glyph glyph-name="uni064E" unicode="&#x64e;" horiz-adv-x="30" 
d="M314 1427v110l481 196v-109z" />
    <glyph glyph-name="uni064F" unicode="&#x64f;" horiz-adv-x="34" 
d="M845 1562q-77 0 -126 8q-50 -70 -121 -114q-113 -71 -241 -76v85q189 29 267 131q-95 21 -136 80q-26 36 -26 84q0 77 64 125q44 32 96 32q67 0 113 -45t46 -124q0 -32 -14 -78l-6 -20l21 -1q37 -3 63 -3v-84zM673 1664l3 7q21 45 22 83q-1 38 -25 59q-24 19 -52 19
q-29 0 -50 -16q-23 -20 -24 -51q-1 -50 61 -79q30 -14 65 -22z" />
    <glyph glyph-name="uni0650" unicode="&#x650;" horiz-adv-x="35" 
d="M364 -357v109l480 197v-109z" />
    <glyph glyph-name="uni0651" unicode="&#x651;" horiz-adv-x="35" 
d="M612 1607q-25 -135 -157 -135q-150 1 -149 178q0 35 15 134h71q-12 -85 -12 -112q0 -88 76 -88q106 0 111 118q1 38 1 83v53h71q2 -34 2 -80q0 -114 106 -114q81 0 82 110q0 84 -11 143h76q14 -76 14 -135q0 -225 -159 -225q-104 0 -137 70z" />
    <glyph glyph-name="uni0652" unicode="&#x652;" horiz-adv-x="37" 
d="M737 1545q0 46 -32.5 78.5t-79.5 32.5t-79.5 -32t-32.5 -79q0 -48 32.5 -80.5t79.5 -32.5t79.5 32.5t32.5 80.5zM806 1544.5q0 -75.5 -52.5 -128.5t-127.5 -53q-26 0 -48.5 6t-42.5 17.5t-38 29.5q-26 26 -39 58.5t-13 70.5q0 75 52.5 127.5t128 52.5t128 -52.5
t52.5 -128z" />
    <glyph glyph-name="uni0653" unicode="&#x653;" horiz-adv-x="0" 
d="M170 1316l-92 91q108 179 254 152l134 -26q77 -14 195 57l65 -104q-100 -113 -269 -85l-126 22q-102 17 -161 -107z" />
    <glyph glyph-name="uni0654" unicode="&#x654;" horiz-adv-x="57" 
d="M549.489 1854.83q100.796 19.7998 186.292 -30.5986l4.5 -2.7002v-4.49902v-100.796v-14.3994l-13.5 6.2998l-17.999 8.99902q-55.7979 27.8994 -111.596 21.5996q-17.0986 -1.7998 -31.0488 -5.85059q-13.9492 -4.0498 -23.8486 -9.89941t-17.0996 -13.9492
q-7.19922 -8.09961 -10.7988 -17.999q-3.60059 -9.89941 -5.40039 -22.499q-5.39941 -66.5977 89.9961 -95.3965q28.7988 -8.99902 151.194 19.7998l11.6992 1.7998v-10.7998v-104.396v-7.2002l-7.19922 -1.7998l-350.086 -78.2969l-10.7998 -2.7002v11.7002v101.695v7.2002
l6.2998 1.7998l62.998 14.3994q-67.498 52.1973 -67.498 134.994q0 92.6963 64.7979 150.294q12.5996 10.7998 26.5488 18.8994t29.6992 14.3994q15.749 6.2998 32.8486 9.89941z" />
    <glyph glyph-name="uni0655" unicode="&#x655;" horiz-adv-x="57" 
d="M549.489 -90.1738q100.796 19.7998 186.292 -30.5986l4.5 -2.7002v-4.49902v-100.796v-14.3994l-13.5 6.2998l-17.999 8.99902q-55.7979 27.8994 -111.596 21.5996q-17.0986 -1.7998 -31.0488 -5.85059q-13.9492 -4.0498 -23.8486 -9.89941t-17.0996 -13.9492
q-7.19922 -8.09961 -10.7988 -17.999q-3.60059 -9.89941 -5.40039 -22.499q-5.39941 -66.5977 89.9961 -95.3965q28.7988 -8.99902 151.194 19.7998l11.6992 1.7998v-10.7998v-104.396v-7.2002l-7.19922 -1.7998l-350.086 -78.2969l-10.7998 -2.7002v11.7002v101.695v7.2002
l6.2998 1.7998l62.998 14.3994q-67.498 52.1973 -67.498 134.994q0 92.6963 64.7979 150.294q12.5996 10.7998 26.5488 18.8994t29.6992 14.3994q15.749 6.2998 32.8486 9.89941z" />
    <glyph glyph-name="uni0657" unicode="&#x657;" horiz-adv-x="58" 
d="M536 1774q8 -2 26 -11q103 -54 103 -144q0 -82 -65 -132q-25 -19 -86 -19q-69 0 -106 37q-53 51 -53 127q0 30 14 75l5 15l-16 1q-18 1 -36 1q-13 1 -27 1v87q29 0 55 -2q31 -2 59 -5l7 -1l4 6q43 60 111 102q192 118 335 123v-87q-153 -4 -292 -114q-24 -19 -44 -40
l-15 -16zM463 1707l-10 -25q-10 -23 -10 -50q0 -41 22 -59q20 -17 45 -17q27 0 43 12q23 17 23 51q0 47 -54 68q-21 8 -48 17z" />
    <glyph glyph-name="uni065A" unicode="&#x65a;" horiz-adv-x="1160" 
d="M505 1440l-205 343h126l155 -233l155 233h126l-205 -343h-152z" />
    <glyph glyph-name="afii57392" unicode="&#x660;" horiz-adv-x="866" 
d="M332 551q0 -42 29.5 -72t71.5 -30t71.5 30t29.5 72t-29.5 71.5t-71.5 29.5t-71.5 -29.5t-29.5 -71.5zM170 553.5q0 109.5 77.5 187t185.5 77.5t185.5 -77.5t77.5 -187t-77.5 -187t-185.5 -77.5t-185.5 77.5t-77.5 187z" />
    <glyph glyph-name="afii57393" unicode="&#x661;" horiz-adv-x="746" 
d="M468 738q42 -305 43 -729h-163v3q0 409 -52 716q-63 375 -181 631l154 74q154 -358 199 -695z" />
    <glyph glyph-name="afii57394" unicode="&#x662;" horiz-adv-x="1106" 
d="M269 1433l98 -271q43 -119 231 -119q138 0 207 157q29 67 51 232l143 -39q-14 -189 -70 -310q-103 -222 -329 -221q-81 0 -159 26q69 -383 70 -879h-163v3q0 409 -52 716q-63 375 -181 631z" />
    <glyph glyph-name="afii57395" unicode="&#x663;" horiz-adv-x="1305" 
d="M441 888q68 -358 70 -879h-163v3q0 407 -52 716q-63 375 -181 631l154 74l100 -278q42 -117 170 -117q53 0 84 32q53 56 53 311v3l129 -1q10 -184 17 -244q12 -100 129 -100q134 1 105 385l142 -2q38 -556 -248 -553q-135 1 -204 101q-63 -103 -195 -104q-53 0 -110 22z
" />
    <glyph glyph-name="afii57396" unicode="&#x664;" horiz-adv-x="1108" 
d="M388 1109q0 103 83 201q103 121 300 120q108 0 167 -39v-152q-98 20 -146 20q-104 0 -178 -42q-91 -51 -101 -154q-16 -154 250 -156q104 0 236 47l3 -161q-136 -37 -248 -36q-186 0 -306 96q61 -324 63 -844h-163v3q0 412 -52 716q-63 375 -181 631l154 74z" />
    <glyph glyph-name="afii57397" unicode="&#x665;" horiz-adv-x="1294" 
d="M886 188q144 -2 144 193q-1 308 -402 730q-365 -423 -364 -730q0 -193 168 -193q140 -1 154 192l4 61h125l7 -62q20 -189 164 -191zM652 158q-54 -148 -225 -149q-330 -1 -330 342q1 374 406 868l-48 42l107 149q639 -531 638 -1065q-1 -337 -298 -336q-195 1 -250 149z
" />
    <glyph glyph-name="afii57398" unicode="&#x666;" horiz-adv-x="1008" 
d="M591 1424q79 0 178 -32v-165q-220 66 -333 -14q-94 -67 -94 -166t75 -155q138 -100 248 -52q264 116 276 120l10 -180q-400 -127 -712 -771l-141 64q164 367 394 612q-304 66 -316 322q-9 189 116 309q112 107 299 108z" />
    <glyph glyph-name="afii57399" unicode="&#x667;" horiz-adv-x="1220" 
d="M526 9q-80 651 -421 1337l161 87q243 -499 349 -1076q109 569 339 1076l160 -87q-318 -687 -419 -1337h-169z" />
    <glyph glyph-name="afii57400" unicode="&#x668;" horiz-adv-x="1220" 
d="M526 1433h169q100 -650 419 -1337l-160 -87q-230 507 -339 1076q-106 -577 -349 -1076l-161 87q341 686 421 1337z" />
    <glyph glyph-name="afii57401" unicode="&#x669;" horiz-adv-x="1209" 
d="M880 0q-64 195 -101 688q-319 -23 -495 69q-180 94 -180 303q0 166 116 281q114 115 278 115q397 3 423 -430q15 -245 33 -467q22 -285 82 -510zM761 862l-6 100q-17 318 -246 316q-93 -1 -157 -52q-70 -55 -70 -160q0 -121 119 -178q110 -52 360 -26z" />
    <glyph glyph-name="afii57381" unicode="&#x66a;" horiz-adv-x="1253" 
d="M270 1297.5q0 49.5 35.5 85t83.5 34.5q48 1 84 -34.5t36 -85t-36 -85t-84 -34.5q-48 -1 -83.5 34.5t-35.5 85zM750 180.5q0 49.5 35.5 85t83.5 34.5q48 1 84 -34.5t36 -85t-36 -85t-84 -34.5q-48 -1 -83.5 34.5t-35.5 85zM925 1463l124 -63l-725 -1401l-124 68z" />
    <glyph glyph-name="uni066B" unicode="&#x66b;" horiz-adv-x="760" 
d="M432 524l133 -63l-392 -706l-129 66z" />
    <glyph glyph-name="uni066C" unicode="&#x66c;" horiz-adv-x="627" 
d="M317 258q141 -3 151 -122q8 -110 -51 -222q-79 -149 -237 -265l-53 49q168 152 222 302q-33 -1 -44 0q-148 8 -126 150q18 111 138 108z" />
    <glyph glyph-name="uni066E" unicode="&#x66e;" horiz-adv-x="1832" 
d="M921 186q137 0 207 6q429 40 444 144q9 69 -5 202q-13 132 -39 214l157 39q50 -203 50 -349q-1 -144 -36 -220q-103 -222 -792 -222q-340 0 -509 71q-273 113 -298 396q-12 133 31 285l142 -38q-21 -141 -18 -207q12 -259 339 -306q110 -16 327 -15z" />
    <glyph glyph-name="uni066F" unicode="&#x66f;" horiz-adv-x="1427" 
d="M690 -464q-259 0 -413 117q-178 137 -177 419q0 207 93 416l148 -55q-80 -195 -80 -344q0 -380 432 -380q455 1 479 381q-99 -52 -212 -52q-158 0 -240 112q-53 74 -52 180q1 132 54 237q93 186 274 185q166 0 253 -145q80 -135 80 -394q0 -676 -639 -677zM828 409
q-10 -40 -10 -71q0 -128 161 -128q114 0 194 58q0 61 -10 123q-26 190 -163 190q-130 0 -172 -172z" />
    <glyph glyph-name="uni0670" unicode="&#x670;" horiz-adv-x="6" 
d="M558 1407l-26 423l104 61v-484h-78z" />
    <glyph glyph-name="uni0674" unicode="&#x674;" horiz-adv-x="683" 
d="M305 2011q112 22 207 -34l5 -3v-5v-112v-16l-15 7l-20 10q-62 31 -124 24q-19 -2 -34.5 -6.5t-26.5 -11t-19 -15.5t-12 -20t-6 -25q-6 -74 100 -106q32 -10 168 22l13 2v-12v-116v-8l-8 -2l-389 -87l-12 -3v13v113v8l7 2l70 16q-75 58 -75 150q0 103 72 167
q14 12 29.5 21t33 16t36.5 11z" />
    <glyph glyph-name="afii57506" unicode="&#x67e;" horiz-adv-x="1832" 
d="M922 186q137 0 207 6q429 40 444 144q9 69 -5 202q-13 132 -39 214l157 39q50 -203 50 -349q-1 -144 -36 -220q-103 -222 -792 -222q-340 0 -509 71q-273 113 -298 396q-12 133 31 285l142 -38q-21 -141 -18 -207q12 -259 339 -306q110 -16 327 -15zM1158.66 -167.381
l88.8057 -89.876q28.8887 -27.8184 1.07031 -55.6367l-93.0859 -92.0156q-29.958 -29.959 -58.8467 -1.07031l-93.0859 93.0859q-27.8184 27.8184 3.20996 58.8467l86.666 87.7354q32.0986 32.0986 65.2666 -1.06934zM837.674 -167.381l88.8047 -89.876
q28.8887 -27.8184 1.07031 -55.6367l-93.085 -92.0156q-29.959 -29.959 -58.8477 -1.07031l-93.085 93.0859q-27.8184 27.8184 3.20996 58.8467l86.665 87.7354q32.0986 32.0986 65.2676 -1.06934zM998.165 -403.84l88.8057 -88.8047q28.8887 -28.8887 1.07031 -55.6377
l-93.0859 -93.085q-29.958 -29.959 -58.8467 -1.07031l-93.085 93.0859q-27.8193 27.8184 3.20898 59.916l86.666 86.666q32.0986 32.0986 65.2666 -1.07031z" />
    <glyph glyph-name="afii57507" unicode="&#x686;" horiz-adv-x="1280" 
d="M120 625q172 253 370 249q32 0 71 -10q39 -11 196 -88q158 -76 239 -105q81 -28 174 -40l-25 -176q-128 -10 -150 -12q-245 -30 -404 -121q-326 -188 -326 -462q0 -215 195 -293q116 -46 317 -47q197 0 374 50l44 -155q-208 -64 -416 -64q-259 0 -440 94
q-242 126 -243 412q0 189 103 342q154 232 486 329q96 28 185 35q-69 18 -199 79q-130 62 -165 62q-135 0 -271 -175zM984.657 160.619l88.8057 -89.876q28.8887 -27.8184 1.07031 -55.6367l-93.0859 -92.0156q-29.958 -29.959 -58.8467 -1.07031l-93.0859 93.0859
q-27.8184 27.8184 3.20996 58.8467l86.666 87.7354q32.0986 32.0986 65.2666 -1.06934zM663.674 160.619l88.8047 -89.876q28.8887 -27.8184 1.07031 -55.6367l-93.085 -92.0156q-29.959 -29.959 -58.8477 -1.07031l-93.085 93.0859q-27.8184 27.8184 3.20996 58.8467
l86.665 87.7354q32.0986 32.0986 65.2676 -1.06934zM824.165 -75.8398l88.8057 -88.8047q28.8887 -28.8887 1.07031 -55.6377l-93.0859 -93.085q-29.958 -29.959 -58.8467 -1.07031l-93.085 93.0859q-27.8193 27.8184 3.20898 59.916l86.666 86.666
q32.0986 32.0986 65.2666 -1.07031z" />
    <glyph glyph-name="afii57508" unicode="&#x698;" horiz-adv-x="897" 
d="M627 -309q-181 -224 -543 -225h-3l-55 136q548 38 579 472q8 108 -65 381l150 87q81 -231 81 -427q-1 -248 -144 -424zM753.728 1003.08l88.8057 -88.8057q27.8184 -27.8184 0 -55.6377l-92.0156 -93.085q-29.959 -29.958 -59.917 0l-93.0859 93.085
q-27.8184 27.8193 3.20996 58.8477l86.666 86.666q33.168 32.0977 66.3369 -1.07031zM432.743 1003.08l88.8057 -88.8057q27.8184 -27.8184 0 -55.6377l-92.0156 -93.085q-29.958 -29.958 -59.917 0l-93.085 93.085q-27.8184 27.8193 3.20996 58.8477l86.665 86.666
q33.1689 32.0977 66.3369 -1.07031zM593.235 1257.73l88.8057 -88.8057q27.8184 -27.8184 0 -55.6377l-93.0859 -93.085q-28.8887 -29.959 -58.8467 0l-93.085 93.085q-27.8193 27.8193 3.20898 58.8477l86.666 86.665q33.168 32.0986 66.3369 -1.06934z" />
    <glyph glyph-name="uni06A1" unicode="&#x6a1;" horiz-adv-x="1857" 
d="M921 186q353 0 484 40q168 51 192 196q-69 -49 -217 -49q-159 1 -239 112q-53 73 -52 180q1 132 54 237q93 186 274 186q169 0 253 -144q92 -155 90 -390q-1 -134 -26 -219q-64 -212 -286 -283q-161 -52 -541 -52q-340 0 -509 71q-273 113 -298 396q-12 133 31 285
l142 -38q-21 -141 -18 -207q12 -259 339 -306q103 -15 327 -15zM1399 546q123 -1 201 57q7 26 -11 123q-35 190 -163 190q-137 0 -178 -172q-9 -39 -10 -71q1 -126 161 -127z" />
    <glyph glyph-name="uni06A9" unicode="&#x6a9;" horiz-adv-x="1967" 
d="M1916 1528l-3 -185l-657 -338l348 -385q140 -155 94 -344q-67 -276 -489 -276h-302q-340 0 -509 71q-273 113 -298 396q-12 133 31 285l142 -38q-21 -141 -18 -207q12 -260 339 -306q108 -15 267 -15h255h178q224 0 256 143q17 81 -64 171l-380 426q-5 82 12 153
q11 50 60 74z" />
    <glyph glyph-name="afii57509" unicode="&#x6af;" horiz-adv-x="1967" 
d="M1905 1679.06l-719.004 -371.271v131.604l719.004 370.201v-130.533zM1916 1528l-3 -185l-657 -338l348 -385q140 -155 94 -344q-67 -276 -489 -276h-302q-340 0 -509 71q-273 113 -298 396q-12 133 31 285l142 -38q-21 -141 -18 -207q12 -260 339 -306q108 -15 267 -15
h255h178q224 0 256 143q17 81 -64 171l-380 426q-5 82 12 153q11 50 60 74z" />
    <glyph glyph-name="afii57514" unicode="&#x6ba;" horiz-adv-x="1403" 
d="M1244 -183q-137 -264 -554 -265q-259 0 -413 117q-178 137 -177 419q0 207 92 416l149 -55q-80 -195 -80 -344q0 -380 432 -380q461 1 461 398q0 141 -107 358l137 119q53 -104 84 -202q43 -138 44 -269q0 -180 -68 -312z" />
    <glyph glyph-name="uni06C0" unicode="&#x6c0;" horiz-adv-x="915" 
d="M421 1585q112 22 207 -34l5 -3v-5v-112v-16l-15 7l-20 10q-62 31 -124 24q-19 -2 -34.5 -6.5t-26.5 -11t-19 -15.5t-12 -20t-6 -25q-6 -74 100 -106q32 -10 168 22l13 2v-12v-116v-8l-8 -2l-389 -87l-12 -3v13v113v8l7 2l70 16q-75 58 -75 150q0 103 72 167
q14 12 29.5 21t33 16t36.5 11zM449 651q-191 -174 -190 -330q1 -140 199 -140q203 0 204 131q2 157 -213 339zM459 4q-161 0 -257 75q-102 79 -103 238q-2 195 230 444l-36 31l100 141q426 -338 429 -616q2 -159 -116 -249q-85 -65 -247 -64z" />
    <glyph glyph-name="uni06CA" unicode="&#x6ca;" horiz-adv-x="891" 
d="M624 1149l83 -83q26 -26 1 -52l-87 -87q-28 -28 -56 0l-87 86q-26 27 4 56l81 81q30 30 61 -1zM324 1149l83 -83q26 -26 1 -52l-87 -87q-28 -28 -56 0l-87 86q-26 27 4 56l81 81q30 30 61 -1zM441 548q-135 -4 -180 -183q-53 -205 178 -204q121 0 191 54q0 57 -4 94
q-28 244 -185 239zM727 534q64 -132 63 -352q-1 -314 -127 -477q-185 -239 -560 -242h-2l-55 139q523 31 576 438q-90 -49 -208 -49q-95 1 -160 31q-157 72 -155 254q1 116 51 226q97 217 293 218q194 1 284 -186z" />
    <glyph glyph-name="uni06CC" unicode="&#x6cc;" horiz-adv-x="1470" 
d="M1045 150l55 1q107 0 168 -25q105 -43 105 -179q1 -130 -79 -230q-176 -221 -586 -222q-195 0 -324 56q-285 125 -287 480q-1 200 126 470l137 -60q-93 -211 -97 -388q-9 -385 453 -382q304 2 448 141q55 52 57 95q3 69 -82 69l-111 1q-255 1 -256 202q-1 134 102 282
q50 71 114 122q144 116 323 120l58 1l-60 -192h-14q-92 0 -184 -61q-104 -71 -152 -168q-18 -36 -23 -73q-10 -63 109 -60z" />
    <glyph glyph-name="afii57534" unicode="&#x6d5;" horiz-adv-x="915" 
d="M449 651q-191 -174 -190 -330q1 -140 199 -140q203 0 204 131q2 157 -213 339zM459 4q-161 0 -257 75q-102 79 -103 238q-2 195 230 444l-36 31l100 141q426 -338 429 -616q2 -159 -116 -249q-85 -65 -247 -64z" />
    <glyph glyph-name="uni06F0" unicode="&#x6f0;" horiz-adv-x="866" 
d="M332 551q0 -42 29.5 -72t71.5 -30t71.5 30t29.5 72t-29.5 71.5t-71.5 29.5t-71.5 -29.5t-29.5 -71.5zM170 553.5q0 109.5 77.5 187t185.5 77.5t185.5 -77.5t77.5 -187t-77.5 -187t-185.5 -77.5t-185.5 77.5t-77.5 187z" />
    <glyph glyph-name="uni06F1" unicode="&#x6f1;" horiz-adv-x="746" 
d="M468 738q42 -305 43 -729h-163v3q0 409 -52 716q-63 375 -181 631l154 74q154 -358 199 -695z" />
    <glyph glyph-name="uni06F2" unicode="&#x6f2;" horiz-adv-x="1106" 
d="M269 1433l98 -271q43 -119 231 -119q138 0 207 157q29 67 51 232l143 -39q-14 -189 -70 -310q-103 -222 -329 -221q-81 0 -159 26q69 -383 70 -879h-163v3q0 409 -52 716q-63 375 -181 631z" />
    <glyph glyph-name="uni06F3" unicode="&#x6f3;" horiz-adv-x="1305" 
d="M441 888q68 -358 70 -879h-163v3q0 407 -52 716q-63 375 -181 631l154 74l100 -278q42 -117 170 -117q53 0 84 32q53 56 53 311v3l129 -1q10 -184 17 -244q12 -100 129 -100q134 1 105 385l142 -2q38 -556 -248 -553q-135 1 -204 101q-63 -103 -195 -104q-53 0 -110 22z
" />
    <glyph glyph-name="uni06F4" unicode="&#x6f4;" horiz-adv-x="1108" 
d="M388 1109q0 103 83 201q103 121 300 120q108 0 167 -39v-152q-98 20 -146 20q-104 0 -178 -42q-91 -51 -101 -154q-16 -154 250 -156q104 0 236 47l3 -161q-136 -37 -248 -36q-186 0 -306 96q61 -324 63 -844h-163v3q0 412 -52 716q-63 375 -181 631l154 74z" />
    <glyph glyph-name="uni06F5" unicode="&#x6f5;" horiz-adv-x="1294" 
d="M886 188q144 -2 144 193q-1 308 -402 730q-365 -423 -364 -730q0 -193 168 -193q140 -1 154 192l4 61h125l7 -62q20 -189 164 -191zM652 158q-54 -148 -225 -149q-330 -1 -330 342q1 374 406 868l-48 42l107 149q639 -531 638 -1065q-1 -337 -298 -336q-195 1 -250 149z
" />
    <glyph glyph-name="uni06F6" unicode="&#x6f6;" horiz-adv-x="1008" 
d="M591 1424q79 0 178 -32v-165q-220 66 -333 -14q-94 -67 -94 -166t75 -155q138 -100 248 -52q264 116 276 120l10 -180q-400 -127 -712 -771l-141 64q164 367 394 612q-304 66 -316 322q-9 189 116 309q112 107 299 108z" />
    <glyph glyph-name="uni06F7" unicode="&#x6f7;" horiz-adv-x="1220" 
d="M526 9q-80 651 -421 1337l161 87q243 -499 349 -1076q109 569 339 1076l160 -87q-318 -687 -419 -1337h-169z" />
    <glyph glyph-name="uni06F8" unicode="&#x6f8;" horiz-adv-x="1220" 
d="M526 1433h169q100 -650 419 -1337l-160 -87q-230 507 -339 1076q-106 -577 -349 -1076l-161 87q341 686 421 1337z" />
    <glyph glyph-name="uni06F9" unicode="&#x6f9;" horiz-adv-x="1209" 
d="M880 0q-64 195 -101 688q-319 -23 -495 69q-180 94 -180 303q0 166 116 281q114 115 278 115q397 3 423 -430q15 -245 33 -467q22 -285 82 -510zM761 862l-6 100q-17 318 -246 316q-93 -1 -157 -52q-70 -55 -70 -160q0 -121 119 -178q110 -52 360 -26z" />
    <glyph glyph-name="uni2000" unicode="&#x2000;" horiz-adv-x="1024" 
 />
    <glyph glyph-name="uni2001" unicode="&#x2001;" horiz-adv-x="2048" 
 />
    <glyph glyph-name="uni2002" unicode="&#x2002;" horiz-adv-x="1024" 
 />
    <glyph glyph-name="uni2003" unicode="&#x2003;" horiz-adv-x="2048" 
 />
    <glyph glyph-name="uni2004" unicode="&#x2004;" horiz-adv-x="682" 
 />
    <glyph glyph-name="uni2005" unicode="&#x2005;" horiz-adv-x="512" 
 />
    <glyph glyph-name="uni2006" unicode="&#x2006;" horiz-adv-x="342" 
 />
    <glyph glyph-name="uni2007" unicode="&#x2007;" horiz-adv-x="1145" 
 />
    <glyph glyph-name="uni2008" unicode="&#x2008;" horiz-adv-x="545" 
 />
    <glyph glyph-name="uni2009" unicode="&#x2009;" horiz-adv-x="410" 
 />
    <glyph glyph-name="uni200A" unicode="&#x200a;" horiz-adv-x="205" 
 />
    <glyph glyph-name="uni200B" unicode="&#x200b;" horiz-adv-x="0" 
 />
    <glyph glyph-name="afii61664" unicode="&#x200c;" horiz-adv-x="0" 
 />
    <glyph glyph-name="afii301" unicode="&#x200d;" horiz-adv-x="0" 
 />
    <glyph glyph-name="endash" unicode="&#x2013;" horiz-adv-x="1024" 
d="M82 473v152h860v-152h-860z" />
    <glyph glyph-name="emdash" unicode="&#x2014;" horiz-adv-x="2048" 
d="M82 473v152h1884v-152h-1884z" />
    <glyph glyph-name="afii00208" unicode="&#x2015;" horiz-adv-x="2048" 
d="M82 473v152h1884v-152h-1884z" />
    <glyph glyph-name="underscoredbl" unicode="&#x2017;" horiz-adv-x="842" 
d="M846 -463h-850v139h850v-139zM846 -184h-850v139h850v-139z" />
    <glyph glyph-name="quoteleft" unicode="&#x2018;" horiz-adv-x="348" 
d="M37 961l-12 22q22 90 71 224t105 255h123q-66 -254 -103 -501h-184z" />
    <glyph glyph-name="quoteright" unicode="&#x2019;" horiz-adv-x="348" 
d="M309 1462l15 -22q-26 -100 -75 -232.5t-102 -246.5h-122q70 285 102 501h182z" />
    <glyph glyph-name="quotesinglbase" unicode="&#x201a;" horiz-adv-x="502" 
d="M350 238l15 -23q-26 -100 -75 -232.5t-102 -246.5h-125q27 104 59.5 257t45.5 245h182z" />
    <glyph glyph-name="quotereversed" unicode="&#x201b;" horiz-adv-x="348" 
d="M223 1462q37 -251 103 -501h-123q-45 94 -99.5 236t-78.5 243l14 22h184z" />
    <glyph glyph-name="quotedblleft" unicode="&#x201c;" horiz-adv-x="717" 
d="M406 961l-15 22q56 215 178 479h123q-30 -115 -59.5 -259.5t-42.5 -241.5h-184zM37 961l-12 22q22 90 71 224t105 255h123q-66 -254 -103 -501h-184z" />
    <glyph glyph-name="quotedblright" unicode="&#x201d;" horiz-adv-x="717" 
d="M309 1462l15 -22q-26 -100 -75 -232.5t-102 -246.5h-122q70 285 102 501h182zM678 1462l14 -22q-24 -91 -72 -224t-104 -255h-125q26 100 59 254t46 247h182z" />
    <glyph glyph-name="quotedblbase" unicode="&#x201e;" horiz-adv-x="829" 
d="M309 238l15 -22q-26 -100 -75 -232.5t-102 -246.5h-122q70 285 102 501h182zM678 238l14 -22q-24 -91 -72 -224t-104 -255h-125q26 100 59 254t46 247h182z" />
    <glyph glyph-name="dagger" unicode="&#x2020;" horiz-adv-x="1028" 
d="M905 999l-352 31l49 -1030h-196l49 1030l-332 -31v170l332 -30l-49 417h196l-49 -417l352 30v-170z" />
    <glyph glyph-name="daggerdbl" unicode="&#x2021;" horiz-adv-x="1044" 
d="M569 487l353 31v-168l-353 29l49 -379h-198l49 379l-346 -29v168l346 -31l-43 299l43 283l-346 -31v168l346 -30l-49 380h198l-49 -380l353 30v-168l-353 31l43 -283z" />
    <glyph glyph-name="bullet" unicode="&#x2022;" horiz-adv-x="770" 
d="M164 748q0 121 56.5 184t164.5 63q105 0 163 -62t58 -185q0 -119 -57.5 -183.5t-163.5 -64.5q-107 0 -164 65.5t-57 182.5z" />
    <glyph glyph-name="ellipsis" unicode="&#x2026;" horiz-adv-x="1606" 
d="M1213 106q0 67 30.5 101.5t87.5 34.5q58 0 90.5 -34.5t32.5 -101.5q0 -65 -33 -100t-90 -35q-51 0 -84.5 31.5t-33.5 103.5zM682 106q0 67 30.5 101.5t87.5 34.5q58 0 90.5 -34.5t32.5 -101.5q0 -65 -33 -100t-90 -35q-51 0 -84.5 31.5t-33.5 103.5zM152 106
q0 67 30.5 101.5t87.5 34.5q58 0 90.5 -34.5t32.5 -101.5q0 -65 -33 -100t-90 -35q-51 0 -84.5 31.5t-33.5 103.5z" />
    <glyph glyph-name="uni202F" unicode="&#x202f;" horiz-adv-x="106" 
 />
    <glyph glyph-name="perthousand" unicode="&#x2030;" horiz-adv-x="2462" 
d="M236 1026q0 -170 41.5 -255t134.5 -85q180 0 180 340q0 338 -180 338q-93 0 -134.5 -84t-41.5 -254zM729 1026q0 -230 -80.5 -345.5t-236.5 -115.5q-149 0 -230.5 119t-81.5 342q0 457 312 457q152 0 234.5 -120t82.5 -337zM1346 1462l-811 -1462h-148l811 1462h148z
M1870 440q0 -171 41.5 -255.5t134.5 -84.5q91 0 135.5 83.5t44.5 256.5q0 171 -44.5 253.5t-135.5 82.5q-93 0 -134.5 -82.5t-41.5 -253.5zM2363 440q0 -230 -81 -345t-236 -115q-148 0 -229.5 119.5t-81.5 340.5q0 457 311 457q150 0 233.5 -118t83.5 -339zM1139 440
q0 -171 40.5 -255.5t133.5 -84.5q91 0 135.5 83.5t44.5 256.5q0 171 -44.5 253.5t-135.5 82.5q-93 0 -133.5 -82.5t-40.5 -253.5zM1630 440q0 -230 -81 -345t-236 -115q-149 0 -230.5 119t-81.5 341q0 457 312 457q150 0 233.5 -118t83.5 -339z" />
    <glyph glyph-name="minute" unicode="&#x2032;" horiz-adv-x="453" 
d="M319 1462l-40 -528h-105l-41 528h186z" />
    <glyph glyph-name="second" unicode="&#x2033;" horiz-adv-x="805" 
d="M319 1462l-40 -528h-105l-41 528h186zM688 1462l-41 -528h-104l-41 528h186z" />
    <glyph glyph-name="guilsinglleft" unicode="&#x2039;" horiz-adv-x="623" 
d="M82 551l342 407l119 -69l-289 -350l289 -351l-119 -71l-342 407v27z" />
    <glyph glyph-name="guilsinglright" unicode="&#x203a;" horiz-adv-x="623" 
d="M541 524l-344 -407l-117 71l287 351l-287 350l117 69l344 -407v-27z" />
    <glyph glyph-name="exclamdbl" unicode="&#x203c;" horiz-adv-x="995" 
d="M775 403h-105l-51 1059h207zM601 106q0 136 120 136q58 0 89.5 -35t31.5 -101q0 -64 -32 -99.5t-89 -35.5q-52 0 -86 31.5t-34 103.5zM326 403h-105l-51 1059h207zM152 106q0 136 120 136q58 0 89.5 -35t31.5 -101q0 -64 -32 -99.5t-89 -35.5q-52 0 -86 31.5t-34 103.5z
" />
    <glyph glyph-name="fraction" unicode="&#x2044;" horiz-adv-x="266" 
d="M655 1462l-903 -1462h-143l903 1462h143z" />
    <glyph glyph-name="zerosuperior" unicode="&#x2070;" horiz-adv-x="711" 
d="M176 1024q0 -168 41 -251t135 -83t137 82.5t43 253.5q0 170 -43 252t-137 82t-135 -82.5t-41 -253.5zM670 1026q0 -457 -316 -457q-158 0 -236.5 118t-78.5 339q0 453 315 453q158 0 237 -116t79 -337z" />
    <glyph glyph-name="foursuperior" unicode="&#x2074;" horiz-adv-x="711" 
d="M692 788h-125v-202h-145v202h-402v101l408 579h139v-563h125v-117zM422 905v195q0 134 6 209q-5 -12 -17 -31.5t-27 -42l-30 -45t-26 -39.5l-168 -246h262z" />
    <glyph glyph-name="fivesuperior" unicode="&#x2075;" horiz-adv-x="711" 
d="M328 1128q145 0 233 -71.5t88 -194.5q0 -140 -85 -217.5t-251 -77.5q-74 0 -143.5 15.5t-110.5 38.5v131q56 -34 126 -53t124 -19q95 0 150 41.5t55 130.5q0 78 -54.5 122t-156.5 44q-57 0 -95 -8.5t-69 -16.5l-59 41l33 416h495v-104h-381l-20 -230q62 12 121 12z" />
    <glyph glyph-name="sixsuperior" unicode="&#x2076;" horiz-adv-x="711" 
d="M41 963q0 261 109.5 388.5t328.5 127.5q74 0 123 -15v-114q-52 18 -135 18q-141 0 -216 -76.5t-85 -242.5h8q29 43 85.5 72.5t141.5 29.5q125 0 199 -74t74 -200q0 -144 -83 -226t-224 -82q-153 0 -239.5 105t-86.5 289zM365 680q81 0 130.5 46.5t49.5 145.5
q0 79 -44 124.5t-130 45.5q-85 0 -141 -45t-56 -104q0 -89 53 -151t138 -62z" />
    <glyph glyph-name="sevensuperior" unicode="&#x2077;" horiz-adv-x="711" 
d="M162 586l350 760h-455v116h598v-94l-352 -782h-141z" />
    <glyph glyph-name="eightsuperior" unicode="&#x2078;" horiz-adv-x="711" 
d="M356 1479q124 0 199.5 -59t75.5 -163q0 -130 -148 -206q176 -74 176 -232q0 -113 -82.5 -181.5t-220.5 -68.5q-146 0 -225.5 64t-79.5 180q0 69 36.5 127t121.5 104q-74 46 -102.5 92.5t-28.5 114.5q0 102 78.5 165t199.5 63zM182 813q0 -60 42 -96.5t128 -36.5
q90 0 132 36.5t42 96.5q0 63 -46.5 102.5t-127.5 67.5l-28 10q-72 -34 -107 -76t-35 -104zM354 1370q-68 0 -105.5 -30t-37.5 -87q0 -47 34 -82.5t115 -68.5q140 54 140 151q0 57 -39 87t-107 30z" />
    <glyph glyph-name="ninesuperior" unicode="&#x2079;" horiz-adv-x="711" 
d="M668 1094q0 -270 -109 -397.5t-321 -127.5q-83 0 -132 15v116q49 -20 142 -20q276 0 297 326h-10q-35 -51 -93 -77t-123 -26q-131 0 -207.5 73t-76.5 204q0 136 84.5 218.5t220.5 82.5q152 0 240 -101t88 -286zM340 1370q-81 0 -128.5 -47.5t-47.5 -134.5
q0 -81 42.5 -128.5t129.5 -47.5q84 0 141.5 42.5t57.5 104.5q0 97 -51.5 154t-143.5 57z" />
    <glyph glyph-name="nsuperior" unicode="&#x207f;" horiz-adv-x="807" 
d="M588 801v420q0 84 -39 119.5t-119 35.5q-114 0 -159.5 -52.5t-45.5 -174.5v-348h-116v665h96l14 -88h10q75 101 220 101q258 0 258 -250v-428h-119z" />
    <glyph glyph-name="franc" unicode="&#x20a3;" 
d="M440 395h308v-129h-308v-266h-166v266h-176v129h176v1067h785v-151h-619v-535h580v-151h-580v-230z" />
    <glyph glyph-name="afii08941" unicode="&#x20a4;" 
d="M688 1481q201 0 359 -80l-60 -131q-152 71 -299 71q-122 0 -185 -67.5t-63 -196.5v-186h420v-129h-420v-166h420v-129h-420v-33q0 -100 -32.5 -168t-106.5 -112h795v-154h-1028v141q206 48 206 291v35h-200v129h200v166h-200v129h200v207q0 178 112 280.5t302 102.5z" />
    <glyph glyph-name="peseta" unicode="&#x20a7;" horiz-adv-x="1563" 
d="M1358 117q34 0 77 7t54 11v-125q-60 -30 -170 -30q-109 0 -173.5 68t-64.5 206v463h-157v80l157 69l62 191h98v-211h221v-129h-221v-441q0 -77 26 -118t91 -41zM926 1036q0 -227 -138.5 -344t-404.5 -117h-64v-575h-165v1462h262q256 0 383 -105.5t127 -320.5zM319 721
h52q200 0 292.5 72.5t92.5 234.5q0 145 -86 216t-269 71h-82v-594z" />
    <glyph glyph-name="uni20AB" unicode="&#x20ab;" horiz-adv-x="1255" 
d="M922 147h-9q-115 -167 -344 -167q-215 0 -334.5 147t-119.5 418t120 421t334 150q223 0 342 -162h13q-11 83 -11 156v133h-448v129h448v184h166v-184h156v-129h-156v-1243h-135zM590 119q170 0 246.5 92.5t76.5 298.5v35q0 233 -77.5 332.5t-247.5 99.5
q-146 0 -223.5 -113.5t-77.5 -320.5q0 -210 77 -317t226 -107zM1102 -315h-926v131h926v-131z" />
    <glyph glyph-name="Euro" unicode="&#x20ac;" horiz-adv-x="1208" 
d="M795 1333q-319 0 -398 -403h510v-129h-524l-2 -57v-64l2 -45h463v-129h-447q37 -180 138.5 -278.5t271.5 -98.5q156 0 309 66v-150q-146 -65 -317 -65q-237 0 -381.5 134.5t-190.5 391.5h-166v129h152l-2 42v44l2 80h-152v129h164q39 261 185 407t383 146q201 0 366 -97
l-71 -139q-166 86 -295 86z" />
    <glyph glyph-name="afii61248" unicode="&#x2105;" horiz-adv-x="1688" 
d="M1311 1462l-811 -1462h-148l811 1462h148zM1546 334q0 -159 -84.5 -250.5t-232.5 -91.5q-139 0 -224 92.5t-85 249.5q0 158 83.5 250t231.5 92q141 0 226 -93t85 -249zM1055 334q0 -238 178 -238q176 0 176 238q0 235 -176 235q-178 0 -178 -235zM489 788
q-166 0 -257 88.5t-91 249.5q0 168 94 257.5t265 89.5q104 0 192 -35l-33 -103q-81 31 -161 31q-224 0 -224 -238q0 -235 220 -235q98 0 188 33v-101q-78 -37 -193 -37z" />
    <glyph glyph-name="afii61289" unicode="&#x2113;" horiz-adv-x="1065" 
d="M637 111q174 0 192 213h95q-8 -166 -84.5 -255t-218.5 -89q-150 0 -230 90.5t-80 259.5v243q-96 -35 -192 -57v113q78 21 192 59v498q0 138 75 217.5t210 79.5q117 0 184.5 -80.5t67.5 -218.5q0 -185 -103 -337t-278 -226v-283q0 -104 41 -165.5t129 -61.5zM723 1178
q0 194 -127 194q-67 0 -98 -43t-31 -151v-437q256 137 256 437z" />
    <glyph glyph-name="afii61352" unicode="&#x2116;" horiz-adv-x="2087" 
d="M1223 0h-187l-692 1227h-8q16 -288 16 -396v-831h-151v1462h194l682 -1222h8q-14 245 -14 383v839h152v-1462zM1987 621q0 -163 -80.5 -255t-227.5 -92q-139 0 -220 93.5t-81 253.5q0 163 80.5 253.5t227.5 90.5q139 0 220 -93.5t81 -250.5zM1509 621q0 -114 40.5 -173
t133.5 -59q91 0 130.5 58.5t39.5 173.5t-39.5 171t-130.5 56q-92 0 -133 -56t-41 -171zM1423 0v135h512v-135h-512z" />
    <glyph glyph-name="uni2120" unicode="&#x2120;" horiz-adv-x="1626" 
d="M584 940q0 -98 -74.5 -152.5t-198.5 -54.5q-145 0 -219 33v108q106 -40 225 -40q148 0 148 100q0 33 -11.5 53t-38.5 36.5t-112 47.5q-120 44 -160.5 89.5t-40.5 121.5q0 86 71 138.5t181 52.5q125 0 217 -39l-34 -99q-100 37 -183 37q-60 0 -97.5 -23t-37.5 -63
q0 -29 9 -47t30.5 -32t116.5 -50q129 -50 169 -95t40 -122zM1006 741l-201 559h-8l6 -129v-430h-119v721h188l195 -559l203 559h180v-721h-127v420l6 137h-8l-211 -557h-104z" />
    <glyph glyph-name="trademark" unicode="&#x2122;" horiz-adv-x="1589" 
d="M369 741h-123v615h-209v106h543v-106h-211v-615zM969 741l-201 559h-8l6 -129v-430h-119v721h187l196 -559l203 559h180v-721h-127v420l6 137h-8l-211 -557h-104z" />
    <glyph glyph-name="Omega" unicode="&#x2126;" horiz-adv-x="1602" 
d="M801 1333q-238 0 -363 -128.5t-125 -381.5q0 -225 86.5 -391.5t266.5 -298.5v-133h-586v152h364q-151 118 -231 293t-80 378q0 310 177 486t491 176q315 0 492 -173.5t177 -486.5q0 -207 -79 -380t-230 -293h363v-152h-586v133q183 134 267.5 301t84.5 389
q0 252 -124.5 381t-364.5 129z" />
    <glyph glyph-name="estimated" unicode="&#x212e;" horiz-adv-x="1268" 
d="M633 -35q-157 0 -277.5 73.5t-187 204t-66.5 287.5q0 171 69 298.5t191 197.5t271 70q152 0 273.5 -71t189 -200.5t67.5 -294.5h-827v-356q49 -53 132 -88t165 -35q131 0 222.5 52.5t172.5 181.5l72 -41q-98 -155 -206.5 -217t-260.5 -62zM932 616v277q-50 53 -131.5 86
t-169.5 33q-173 0 -295 -117v-279h596z" />
    <glyph glyph-name="oneeighth" unicode="&#x215b;" horiz-adv-x="1597" 
d="M1259 1462l-903 -1462h-143l903 1462h143zM333 1462h143v-876h-133v579q0 91 6 181q-22 -22 -49 -44.5t-162 -117.5l-67 96zM1220 890q124 0 199.5 -59t75.5 -163q0 -130 -148 -206q176 -74 176 -232q0 -113 -82.5 -181.5t-220.5 -68.5q-146 0 -225.5 64t-79.5 180
q0 69 36.5 127t121.5 104q-74 46 -102.5 92.5t-28.5 114.5q0 102 78.5 165t199.5 63zM1046 224q0 -60 42 -96.5t128 -36.5q90 0 132 36.5t42 96.5q0 63 -46.5 102.5t-127.5 67.5l-28 10q-72 -34 -107 -76t-35 -104zM1218 781q-68 0 -105.5 -30t-37.5 -87q0 -47 34 -82.5
t115 -68.5q140 54 140 151q0 57 -39 87t-107 30z" />
    <glyph glyph-name="threeeighths" unicode="&#x215c;" horiz-adv-x="1597" 
d="M1329 1462l-903 -1462h-143l903 1462h143zM1241 890q124 0 199.5 -59t75.5 -163q0 -130 -148 -206q176 -74 176 -232q0 -113 -82.5 -181.5t-220.5 -68.5q-146 0 -225.5 64t-79.5 180q0 69 36.5 127t121.5 104q-74 46 -102.5 92.5t-28.5 114.5q0 102 78.5 165t199.5 63z
M1067 224q0 -60 42 -96.5t128 -36.5q90 0 132 36.5t42 96.5q0 63 -46.5 102.5t-127.5 67.5l-28 10q-72 -34 -107 -76t-35 -104zM1239 781q-68 0 -105.5 -30t-37.5 -87q0 -47 34 -82.5t115 -68.5q140 54 140 151q0 57 -39 87t-107 30zM626 1255q0 -80 -41 -131.5t-109 -74.5
q176 -47 176 -209q0 -128 -92 -199.5t-260 -71.5q-152 0 -268 56v123q147 -68 270 -68q211 0 211 162q0 145 -231 145h-117v107h119q103 0 152.5 39.5t49.5 107.5q0 61 -40 95t-107 34q-66 0 -122 -21.5t-112 -56.5l-69 90q63 45 133 72t164 27q136 0 214.5 -59.5
t78.5 -166.5z" />
    <glyph glyph-name="fiveeighths" unicode="&#x215d;" horiz-adv-x="1597" 
d="M1323 1462l-903 -1462h-143l903 1462h143zM340 1128q145 0 233 -71.5t88 -194.5q0 -140 -85 -217.5t-251 -77.5q-74 0 -143.5 15.5t-110.5 38.5v131q56 -34 126 -53t124 -19q95 0 150 41.5t55 130.5q0 78 -54.5 122t-156.5 44q-57 0 -95 -8.5t-69 -16.5l-59 41l33 416
h495v-104h-381l-20 -230q62 12 121 12zM1237 890q124 0 199.5 -59t75.5 -163q0 -130 -148 -206q176 -74 176 -232q0 -113 -82.5 -181.5t-220.5 -68.5q-146 0 -225.5 64t-79.5 180q0 69 36.5 127t121.5 104q-74 46 -102.5 92.5t-28.5 114.5q0 102 78.5 165t199.5 63z
M1063 224q0 -60 42 -96.5t128 -36.5q90 0 132 36.5t42 96.5q0 63 -46.5 102.5t-127.5 67.5l-28 10q-72 -34 -107 -76t-35 -104zM1235 781q-68 0 -105.5 -30t-37.5 -87q0 -47 34 -82.5t115 -68.5q140 54 140 151q0 57 -39 87t-107 30z" />
    <glyph glyph-name="seveneighths" unicode="&#x215e;" horiz-adv-x="1597" 
d="M1237 1462l-903 -1462h-143l903 1462h143zM1233 890q124 0 199.5 -59t75.5 -163q0 -130 -148 -206q176 -74 176 -232q0 -113 -82.5 -181.5t-220.5 -68.5q-146 0 -225.5 64t-79.5 180q0 69 36.5 127t121.5 104q-74 46 -102.5 92.5t-28.5 114.5q0 102 78.5 165t199.5 63z
M1059 224q0 -60 42 -96.5t128 -36.5q90 0 132 36.5t42 96.5q0 63 -46.5 102.5t-127.5 67.5l-28 10q-72 -34 -107 -76t-35 -104zM1231 781q-68 0 -105.5 -30t-37.5 -87q0 -47 34 -82.5t115 -68.5q140 54 140 151q0 57 -39 87t-107 30zM211 586l350 760h-455v116h598v-94
l-352 -782h-141z" />
    <glyph glyph-name="partialdiff" unicode="&#x2202;" horiz-adv-x="1190" 
d="M1077 934q0 -262 -83.5 -491.5t-221.5 -346t-311 -116.5q-172 0 -265.5 100.5t-93.5 292.5q0 169 68 322.5t184 234t267 80.5q97 0 170 -46.5t116 -121.5l4 90q0 405 -282 405q-62 0 -134 -22t-120 -55v159q47 23 124.5 41.5t151.5 18.5q210 0 318 -138t108 -407z
M471 121q95 0 178 72t143 201.5t82 279.5q-25 97 -89 151t-144 54q-101 0 -183.5 -66t-133 -191t-50.5 -253q0 -118 50.5 -183t146.5 -65z" />
    <glyph glyph-name="Delta" unicode="&#x2206;" 
d="M39 104l463 1358h166l465 -1360v-102h-1094v104zM584 1268q-61 -225 -101 -346l-260 -770h721l-258 761q-68 202 -102 355z" />
    <glyph glyph-name="product" unicode="&#x220f;" horiz-adv-x="1513" 
d="M1143 -496v1805h-772v-1805h-170v1958h1112v-1958h-170z" />
    <glyph glyph-name="summation" unicode="&#x2211;" horiz-adv-x="1292" 
d="M76 -496v107l631 924l-615 819v108h1088v-151h-848l579 -772l-604 -883h938v-152h-1169z" />
    <glyph glyph-name="minus" unicode="&#x2212;" 
d="M104 653v138h961v-138h-961z" />
    <glyph glyph-name="radical" unicode="&#x221a;" horiz-adv-x="1124" 
d="M623 -14h-127l-279 782h-180v135h289l235 -684l514 1469h137z" />
    <glyph glyph-name="infinity" unicode="&#x221e;" horiz-adv-x="1444" 
d="M1325 719q0 -131 -83.5 -223.5t-211.5 -92.5q-93 0 -169.5 53t-141.5 169q-60 -104 -136.5 -160.5t-164.5 -56.5q-131 0 -215 86.5t-84 228.5q0 134 84 223.5t215 89.5q181 0 303 -219q124 215 309 215q133 0 214 -87.5t81 -225.5zM426 532q66 0 120.5 45.5t108.5 145.5
q-50 97 -104.5 143.5t-126.5 46.5q-76 0 -126 -52.5t-50 -139.5q0 -83 48.5 -136t129.5 -53zM1018 909q-66 0 -120.5 -46t-109.5 -144q51 -97 106 -144t126 -47q76 0 126 53.5t50 137.5q0 85 -50.5 137.5t-127.5 52.5z" />
    <glyph glyph-name="integral" unicode="&#x222b;" horiz-adv-x="786" 
d="M637 1556q79 0 123 -16v-137q-49 22 -111 22q-176 0 -176 -243v-1311q0 -176 -82.5 -269.5t-245.5 -93.5q-74 0 -133 19v135q61 -22 119 -22q182 0 182 243v1311q0 362 324 362z" />
    </font>
</defs>
</svg>
